<svg width="280" height="280" viewBox="0 0 280 280" fill="none" xmlns="http://www.w3.org/2000/svg">
<path d="M199.709 121.831C194.474 111.036 186.749 100.447 176.537 90.062C166.379 79.884 155.09 70.8837 142.671 63.0611C130.459 55.1847 118.213 49.306 105.934 45.4248C87.88 39.7294 71.7256 37.5181 57.4709 38.7911" stroke="#3C3C56" stroke-width="5.6"/>
<path d="M149.778 234.611L57.7781 75.2619L86.357 58.7619L178.357 218.111L149.778 234.611Z" fill="#3C3C56" stroke="#3C3C56" stroke-width="5.6" stroke-linejoin="round"/>
<path d="M56.068 39.2979C54.7528 40.0572 54.0118 41.5231 54.1803 43.0324L57.7786 75.2607L86.3574 58.7607L60.246 39.5304C59.0232 38.6298 57.3832 38.5385 56.068 39.2979Z" fill="#E9F9F9" stroke="#3C3C56" stroke-width="5.6" stroke-linejoin="round"/>
<path d="M149.778 234.611L159.128 250.805C163.684 258.697 173.776 261.401 181.668 256.845C189.559 252.288 192.263 242.197 187.707 234.305L178.357 218.111L149.778 234.611Z" fill="#E9F9F9" stroke="#3C3C56" stroke-width="5.6" stroke-linejoin="round"/>
<path d="M59.8055 176.225C59.2005 189.837 60.0323 203.524 62.301 217.287C65.7795 237.705 72.3586 255.476 82.0381 270.6" stroke="#3C3C56" stroke-width="5.6"/>
<path d="M202.204 73.1101C212.587 81.9333 222.047 91.8604 230.584 102.891C243.172 119.339 251.711 136.256 256.2 153.642" stroke="#3C3C56" stroke-width="5.6"/>
</svg>
