<svg width="500" height="500" viewBox="0 0 500 500" fill="none" xmlns="http://www.w3.org/2000/svg">
<path d="M325.686 177.296V234.685V234.685C325.686 235.483 325.686 236.503 325.944 237.409C327.051 240.607 328.869 243.905 331.377 246.413C334.676 249.941 339.462 251.989 344.7 251.989C355.056 251.989 363.6 243.682 363.6 233.09V175.931C363.6 155.328 346.748 138.476 326.138 138.476C305.528 138.476 288.677 155.328 288.677 175.931V42.8283C288.677 37.5967 286.629 32.8107 283.1 29.5123C279.572 25.9767 274.786 23.9286 269.777 23.9286C259.192 23.9286 250.877 32.473 250.877 42.8283V71.07C250.877 65.8312 248.829 61.0452 245.301 57.7468C241.765 54.2184 236.987 52.1703 231.978 52.1703C221.385 52.1703 213.078 60.7075 213.078 71.07V99.5345C213.078 94.2958 211.023 89.5169 207.494 86.2113C203.966 82.6829 199.187 80.6348 194.171 80.6348C183.586 80.6348 175.272 89.172 175.272 99.5345L175.271 393.214H325.57L325.571 358.338C346.181 358.338 363.025 341.486 363.025 320.876V271.572C363.025 266.34 360.754 261.554 357.449 258.256C353.92 254.727 349.364 252.672 344.125 252.672C336.041 252.672 328.984 257.681 326.562 264.745C326.476 264.968 326.253 265.543 326.217 265.737C325.686 267.706 325.226 269.754 325.226 272.032V315.3C325.456 316.888 325.456 318.146 325.456 319.626L325.226 320.646V315.408C323.178 296.738 307.124 282.164 287.994 282.164L288.224 214.758C308.834 214.758 325.686 197.906 325.686 177.296Z" fill="#E9F9F9"/>
<path d="M325.686 177.296V234.685V234.685C325.686 235.483 325.686 236.503 325.944 237.409C327.051 240.607 328.869 243.905 331.377 246.413C334.676 249.941 339.462 251.989 344.7 251.989C355.056 251.989 363.6 243.682 363.6 233.09V175.931C363.6 155.328 346.748 138.476 326.138 138.476C305.528 138.476 288.677 155.328 288.677 175.931V42.8283C288.677 37.5967 286.629 32.8107 283.1 29.5123C279.572 25.9767 274.786 23.9286 269.777 23.9286C259.192 23.9286 250.877 32.473 250.877 42.8283V71.07C250.877 65.8312 248.829 61.0452 245.301 57.7468C241.765 54.2184 236.987 52.1703 231.978 52.1703C221.385 52.1703 213.078 60.7075 213.078 71.07V99.5345C213.078 94.2958 211.023 89.5169 207.494 86.2113C203.966 82.6829 199.187 80.6348 194.171 80.6348C183.586 80.6348 175.272 89.172 175.272 99.5345L175.271 393.214H325.57L325.571 358.338C346.181 358.338 363.025 341.486 363.025 320.876V271.572C363.025 266.34 360.754 261.554 357.449 258.256C353.92 254.727 349.364 252.672 344.125 252.672C336.041 252.672 328.984 257.681 326.562 264.745C326.476 264.968 326.253 265.543 326.217 265.737C325.686 267.706 325.226 269.754 325.226 272.032V315.3C325.456 316.888 325.456 318.146 325.456 319.626L325.226 320.646V315.408C323.178 296.738 307.124 282.164 287.994 282.164L288.224 214.758C308.834 214.758 325.686 197.906 325.686 177.296Z" stroke="#3C3C56" stroke-width="10" stroke-linecap="round" stroke-linejoin="round"/>
<path d="M325.223 315.522C325.453 316.78 325.453 318.26 325.453 319.849L325.223 320.876V315.522Z" stroke="#3C3C56" stroke-width="10" stroke-linecap="round" stroke-linejoin="round"/>
<path d="M164.113 394.093H335.813V414.608H164.113V394.093Z" fill="#E9F9F9"/>
<path d="M164.286 393.929H335.985V414.445H164.286V393.929Z" stroke="#3C3C56" stroke-width="10" stroke-linecap="round" stroke-linejoin="round"/>
<path d="M283.435 415.154H342.872V476.071H157.281V415.154H267.266H283.435Z" fill="#3C3C56" stroke="#3C3C56" stroke-width="10" stroke-linecap="round" stroke-linejoin="round"/>
<path d="M316.786 448.809C318.495 448.809 319.881 447.423 319.881 445.714C319.881 444.005 318.495 442.619 316.786 442.619C315.076 442.619 313.691 444.005 313.691 445.714C313.691 447.423 315.076 448.809 316.786 448.809Z" fill="#E9F9F9"/>
<path d="M316.786 448.809C318.495 448.809 319.881 447.423 319.881 445.714C319.881 444.005 318.495 442.619 316.786 442.619C315.076 442.619 313.691 444.005 313.691 445.714C313.691 447.423 315.076 448.809 316.786 448.809Z" fill="#E9F9F9"/>
<path d="M318.95 445.714C318.95 446.909 317.981 447.878 316.786 447.878C315.59 447.878 314.621 446.909 314.621 445.714C314.621 444.519 315.59 443.55 316.786 443.55C317.981 443.55 318.95 444.519 318.95 445.714Z" stroke="#E9F9F9" stroke-width="10" stroke-linecap="round" stroke-linejoin="round"/>
<path d="M213.238 249.655V222.671" stroke="#3C3C56" stroke-width="10" stroke-linecap="round" stroke-linejoin="round"/>
<path d="M213.075 99.4249V205.083" stroke="#3C3C56" stroke-width="10" stroke-linecap="round" stroke-linejoin="round"/>
<path d="M250.863 70.881L249.842 196.697" stroke="#3C3C56" stroke-width="10" stroke-linecap="round" stroke-linejoin="round"/>
<path d="M118.571 476.07H381.586" stroke="#3C3C56" stroke-width="10" stroke-linecap="round" stroke-linejoin="round"/>
<path d="M325.906 237.303C325.683 236.052 325.453 234.802 325.453 233.321V191.534C325.453 190.506 325.453 189.486 325.683 188.458V234.802C325.683 235.484 325.683 236.505 325.906 237.303Z" stroke="#3C3C56" stroke-width="10" stroke-linecap="round" stroke-linejoin="round"/>
</svg>
