<?xml version="1.0" encoding="UTF-8"?>
<svg xmlns="http://www.w3.org/2000/svg" width="762" height="81" viewBox="0 0 762 81" fill="none">
  <path d="M604.262 78.865H617.863V3.76464H604.262V78.865ZM527.241 19.0147C523.962 15.889 520.078 13.4262 515.576 11.6265C511.074 9.8268 506.249 8.93371 501.088 8.93371H474.397V78.8785H501.088C506.249 78.8785 511.074 77.9854 515.576 76.1857C520.078 74.386 523.962 71.9368 527.241 68.8381C530.52 65.7393 533.101 62.0587 534.982 57.7963C536.864 53.5338 537.805 48.9737 537.805 44.1023C537.805 39.1768 536.864 34.549 534.982 30.2189C533.101 25.8753 530.52 22.1541 527.241 19.0147ZM521.234 52.6949C520.105 55.3606 518.559 57.6745 516.57 59.6366C514.581 61.5987 512.256 63.1548 509.582 64.2779C506.907 65.4146 504.045 65.9829 500.994 65.9829H488.791V21.8158H500.994C504.031 21.8158 506.894 22.3841 509.582 23.5208C512.256 24.6574 514.595 26.2136 516.57 28.2162C518.559 30.2189 520.105 32.5734 521.234 35.3068C522.363 38.0402 522.927 40.963 522.927 44.1023C522.927 47.1605 522.363 50.0292 521.234 52.6949ZM570.193 25.8211C566.484 25.8211 562.735 26.2812 558.931 27.2149C555.128 28.1486 551.204 29.5423 547.172 31.4097L552.131 41.5042C555.37 40.0428 558.273 38.9603 560.813 38.2567C563.353 37.553 565.718 37.2012 567.909 37.2012C571.484 37.2012 574.198 37.9725 576.04 39.5016C577.894 41.0306 578.822 43.2904 578.822 46.2944V49.9886C576.765 49.3255 574.682 48.8248 572.572 48.4866C570.449 48.1483 568.339 47.9859 566.215 47.9859C559.603 47.9859 554.402 49.3796 550.639 52.1807C546.863 54.9817 544.981 58.8382 544.981 63.7773C544.981 68.5133 546.728 72.3563 550.236 75.3197C553.744 78.2831 558.273 79.7716 563.837 79.7716C566.82 79.7716 569.508 79.4062 571.927 78.6755C574.346 77.9448 576.644 76.8082 578.822 75.2791V78.8785H592.221V45.1037C592.221 38.9738 590.285 34.2243 586.415 30.8684C582.544 27.4991 577.142 25.8211 570.193 25.8211ZM578.822 66.6865C577.236 67.7555 575.502 68.5674 573.607 69.1358C571.726 69.7041 569.656 69.9883 567.398 69.9883C564.549 69.9883 562.278 69.4064 560.557 68.2427C558.837 67.079 557.977 65.4958 557.977 63.4931C557.977 61.4904 558.851 59.9072 560.611 58.7435C562.358 57.5798 564.791 56.9979 567.909 56.9979C569.898 56.9979 571.793 57.1468 573.607 57.4445C575.421 57.7422 577.169 58.2293 578.822 58.8923V66.6865ZM629.905 78.865H643.505V3.76464H629.905V78.865ZM761.96 26.9037H746.908L711.361 78.892L757.149 78.9056V67.2549H734.369L761.96 26.9037ZM700.932 33.6559C698.446 31.2202 695.529 29.3123 692.156 27.905C688.783 26.5112 685.168 25.8076 681.337 25.8076C677.494 25.8076 673.892 26.5112 670.519 27.905C667.145 29.2988 664.216 31.2202 661.743 33.6559C659.256 36.0916 657.308 38.9468 655.883 42.2485C654.459 45.5502 653.746 49.0955 653.746 52.8843C653.746 56.6867 654.459 60.232 655.883 63.5201C657.308 66.8219 659.256 69.6635 661.743 72.0586C664.229 74.4537 667.145 76.3616 670.519 77.7554C673.892 79.1491 677.494 79.8528 681.337 79.8528C685.168 79.8528 688.783 79.1491 692.156 77.7554C695.529 76.3616 698.459 74.4672 700.932 72.0586C703.418 69.6635 705.367 66.8083 706.792 63.5201C708.216 60.2184 708.928 56.6732 708.928 52.8843C708.928 49.0819 708.216 45.5367 706.792 42.2485C705.367 38.9468 703.418 36.0916 700.932 33.6559ZM691.457 63.5878C688.675 66.5242 685.302 67.9856 681.337 67.9856C677.359 67.9856 673.986 66.5242 671.217 63.5878C668.436 60.6515 667.051 57.0926 667.051 52.8979C667.051 48.6354 668.436 45.036 671.217 42.0996C673.999 39.1633 677.373 37.7019 681.337 37.7019C685.302 37.7019 688.675 39.1633 691.457 42.0996C694.239 45.036 695.623 48.6219 695.623 52.8979C695.623 57.0926 694.239 60.6515 691.457 63.5878ZM724.196 43.3175C729.101 43.3175 733.079 39.3121 733.079 34.3731C733.079 29.4341 729.101 25.4287 724.196 25.4287C719.29 25.4287 715.312 29.4341 715.312 34.3731C715.312 39.2986 719.29 43.3175 724.196 43.3175ZM92.8795 34.0619C90.5948 31.5991 87.88 29.6506 84.7486 28.2162C81.6038 26.7819 78.2171 26.0647 74.575 26.0647C70.8657 26.0647 67.3849 26.7683 64.1057 28.1621C60.8265 29.5559 58.0042 31.4773 55.6254 33.8995C53.2467 36.3352 51.3786 39.1903 50.0212 42.4921C48.6638 45.7938 47.9918 49.2984 47.9918 53.0332C47.9918 56.822 48.7041 60.3808 50.1287 63.669C51.5533 66.9707 53.502 69.8123 55.9883 72.2074C58.4746 74.6025 61.4178 76.5105 64.818 77.9042C68.2182 79.298 71.8871 80.0016 75.7845 80.0016C79.8836 80.0016 83.6063 79.4062 86.9527 78.2019C90.2857 76.9976 93.5514 75.1032 96.7231 72.5051L87.7859 64.3185C86.4017 65.6581 84.7083 66.6865 82.7193 67.4173C80.7302 68.148 78.6203 68.5133 76.3624 68.5133C72.7876 68.5133 69.683 67.512 67.0355 65.5228C64.3879 63.5201 62.6005 60.895 61.6732 57.6339H100.177V54.0345C100.177 50.0427 99.532 46.3215 98.2418 42.898C96.9516 39.4745 95.1642 36.5246 92.8795 34.0619ZM61.5656 47.8506C62.4258 44.6571 63.9847 42.0996 66.2291 40.2052C68.4735 38.3108 71.1614 37.3636 74.2659 37.3636C77.236 37.3636 79.8701 38.3514 82.1548 40.3135C84.4395 42.2756 86.0119 44.7924 86.872 47.8506H61.5656ZM142.404 25.9429C137.498 25.9429 133.52 29.9483 133.52 34.8873C133.52 39.8263 137.498 43.8317 142.404 43.8317C147.309 43.8317 151.287 39.8263 151.287 34.8873C151.301 29.9483 147.309 25.9429 142.404 25.9429ZM14.4336 3.91349H0.0400391V79.0138H44.0138V66.2265H14.4336V3.91349ZM122.702 4.98249C119.234 7.85119 114.772 13.7239 114.772 23.3449V28.1215H107.125V41.6531H114.772V79.0138H128.373V23.2907C128.373 15.0635 133.708 12.276 141.1 13.1826C143.775 13.5074 146.503 14.3058 148.492 15.0229L152.228 2.96628C150.481 2.24911 148.062 1.42368 144.366 0.679442C135.805 -1.02554 128.104 0.503532 122.702 4.98249ZM365.552 25.9429C360.646 25.9429 356.668 29.9483 356.668 34.8873C356.668 39.8263 360.646 43.8317 365.552 43.8317C370.457 43.8317 374.435 39.8263 374.435 34.8873C374.435 29.9483 370.457 25.9429 365.552 25.9429ZM197.667 34.0619C195.382 31.5991 192.667 29.6506 189.536 28.2162C186.391 26.7819 183.004 26.0647 179.362 26.0647C175.653 26.0647 172.172 26.7683 168.893 28.1621C165.614 29.5559 162.791 31.4773 160.412 33.8995C158.034 36.3352 156.166 39.1903 154.808 42.4921C153.451 45.7938 152.779 49.2984 152.779 53.0332C152.779 56.822 153.491 60.3808 154.916 63.669C156.34 66.9707 158.289 69.8123 160.775 72.2074C163.262 74.6025 166.191 76.5105 169.605 77.9042C173.019 79.298 176.661 80.0016 180.572 80.0016C184.671 80.0016 188.393 79.4062 191.74 78.2019C195.073 76.9976 198.339 75.1032 201.51 72.5051L192.586 64.3185C191.202 65.6581 189.509 66.6865 187.52 67.4173C185.531 68.148 183.421 68.5133 181.163 68.5133C177.588 68.5133 174.484 67.512 171.836 65.5228C169.188 63.5201 167.401 60.895 166.474 57.6339H204.978V54.0345C204.978 50.0427 204.332 46.3215 203.042 42.898C201.739 39.4745 199.951 36.5246 197.667 34.0619ZM166.366 47.8506C167.226 44.6571 168.785 42.0996 171.03 40.2052C173.274 38.3108 175.962 37.3636 179.066 37.3636C182.05 37.3636 184.671 38.3514 186.955 40.3135C189.24 42.2756 190.812 44.7924 191.673 47.8506H166.366ZM422.105 34.0619C419.82 31.5991 417.105 29.6506 413.974 28.2162C410.829 26.7819 407.442 26.0647 403.8 26.0647C400.091 26.0647 396.61 26.7683 393.331 28.1621C390.052 29.5559 387.229 31.4773 384.851 33.8995C382.472 36.3352 380.604 39.1903 379.246 42.4921C377.889 45.7938 377.217 49.2984 377.217 53.0332C377.217 56.822 377.929 60.3808 379.354 63.669C380.778 66.9707 382.727 69.8123 385.213 72.2074C387.7 74.6025 390.643 76.5105 394.043 77.9042C397.443 79.298 401.112 80.0016 405.01 80.0016C409.109 80.0016 412.831 79.4062 416.178 78.2019C419.511 76.9976 422.777 75.1032 425.948 72.5051L417.011 64.3185C415.627 65.6581 413.933 66.6865 411.944 67.4173C409.955 68.148 407.845 68.5133 405.588 68.5133C402.013 68.5133 398.908 67.512 396.261 65.5228C393.613 63.5201 391.826 60.895 390.898 57.6339H429.402V54.0345C429.402 50.0427 428.757 46.3215 427.467 42.898C426.177 39.4745 424.389 36.5246 422.105 34.0619ZM390.804 47.8506C391.664 44.6571 393.223 42.0996 395.468 40.2052C397.712 38.3108 400.4 37.3636 403.504 37.3636C406.475 37.3636 409.109 38.3514 411.393 40.3135C413.678 42.2756 415.251 44.7924 416.111 47.8506H390.804ZM337.49 79.0138H351.077V26.9578H337.49V79.0138ZM300.693 61.6393L286.501 26.9713H271.718L293.946 79.0274H307.05L329.279 26.9713H314.791L300.693 61.6393ZM262.041 34.0619C259.663 31.6668 256.867 29.7724 253.655 28.3651C250.443 26.9713 247.016 26.2677 243.387 26.2677C240.74 26.2677 238.173 26.6872 235.7 27.5126C233.214 28.3515 230.956 29.5288 228.9 31.0579V3.91349H215.312V79.0138H228.712V75.5227C230.768 76.8623 233.012 77.8907 235.458 78.6214C237.904 79.3521 240.417 79.7175 242.998 79.7175C246.707 79.7175 250.188 79.0274 253.467 77.6742C256.746 76.3075 259.568 74.4266 261.947 72.0315C264.326 69.6364 266.221 66.8083 267.605 63.5337C269.003 60.2726 269.688 56.7679 269.688 53.0467C269.688 49.312 269.016 45.8208 267.659 42.5597C266.302 39.2851 264.42 36.457 262.041 34.0619ZM251.921 63.7773C249.005 66.673 245.444 68.1209 241.21 68.1209C238.764 68.1209 236.466 67.6879 234.316 66.8219C232.165 65.9558 230.365 64.7921 228.913 63.3307V42.8439C230.432 41.2472 232.26 40.0293 234.37 39.1903C236.48 38.3649 238.764 37.9454 241.21 37.9454C245.376 37.9454 248.938 39.3933 251.881 42.2891C254.824 45.1848 256.303 48.7707 256.303 53.0332C256.289 57.3092 254.838 60.8815 251.921 63.7773Z" fill="#0d1e46"></path>
</svg>
