<svg
  xmlns="http://www.w3.org/2000/svg"
  fill="none"
  aria-hidden="true"
  viewBox="0 0 24 24"
>
  <path
    fill="currentColor"
    d="M11.25 22v-6a.75.75 0 0 1 1.5 0v6a.75.75 0 0 1-1.5 0M21.33 1.665a.75.75 0 0 1 1.34.67l-5 10a.75.75 0 0 1-1.34-.67l1.956-3.915h-3.322l-2.293 4.585a.75.75 0 0 1-1.342-.67l1.957-3.915H9.964L7.67 12.335a.75.75 0 0 1-1.342-.67L8.286 7.75H4.964L2.67 12.335a.75.75 0 0 1-1.342-.67l5-10a.75.75 0 0 1 1.342.67L5.714 6.25h3.322l2.293-4.585a.75.75 0 0 1 1.342.67L10.714 6.25h3.322l2.293-4.585a.75.75 0 0 1 1.342.67L15.714 6.25h3.322z"
  />
</svg>
