<svg xmlns="http://www.w3.org/2000/svg" fill="none" viewBox="0 0 24 24" aria-hidden="true">
  <path fill="currentColor" d="M14 21.25a.75.75 0 0 1 0 1.5h-4a.75.75 0 0 1 0-1.5zm1-4a.75.75 0 0 1 0 1.5H9a.75.75 0 0 1 0-1.5zM17.25 8a5.25 5.25 0 0 0-10.5 0l.009.326c.045.777.286 1.658 1.271 2.644.742.742 1.463 1.67 1.705 2.882a.75.75 0 0 1-1.47.296c-.158-.788-.637-1.46-1.295-2.118C5.68 10.741 5.33 9.5 5.264 8.442L5.25 8a6.75 6.75 0 1 1 13.5 0c0 1.473-.562 2.972-1.72 4.03-.75.75-1.136 1.324-1.295 2.118a.75.75 0 0 1-1.47-.296c.241-1.206.855-2.033 1.705-2.882l.028-.028c.823-.74 1.252-1.827 1.252-2.942"/>
</svg>
