<svg xmlns="http://www.w3.org/2000/svg" width="22" height="22" viewBox="0 0 22 22" fill="none">
	<path
		d="M20 10.75C20 5.64137 15.8586 1.5 10.75 1.5C5.64137 1.5 1.5 5.64137 1.5 10.75C1.5 15.8586 5.64137 20 10.75 20C15.8586 20 20 15.8586 20 10.75ZM13.2197 7.21973C13.5126 6.92683 13.9874 6.92683 14.2803 7.21973C14.5732 7.51262 14.5732 7.98738 14.2803 8.28027L11.8105 10.75L14.2803 13.2197C14.5732 13.5126 14.5732 13.9874 14.2803 14.2803C13.9874 14.5732 13.5126 14.5732 13.2197 14.2803L10.75 11.8105L8.28027 14.2803C7.98738 14.5732 7.51262 14.5732 7.21973 14.2803C6.92683 13.9874 6.92683 13.5126 7.21973 13.2197L9.68945 10.75L7.21973 8.28027C6.92683 7.98738 6.92683 7.51262 7.21973 7.21973C7.51262 6.92683 7.98738 6.92683 8.28027 7.21973L10.75 9.68945L13.2197 7.21973ZM21.5 10.75C21.5 16.6871 16.6871 21.5 10.75 21.5C4.81294 21.5 0 16.6871 0 10.75C0 4.81294 4.81294 0 10.75 0C16.6871 0 21.5 4.81294 21.5 10.75Z"
		fill="currentColor" />
</svg>