<svg xmlns="http://www.w3.org/2000/svg" fill="none" viewBox="0 0 138 40">
  <path
    fill="var(--logo-frontguys-brand, #004C61)"
    d="M14.086 4.122q-3.213 4.596-6.502 12.204 2.447-1.39 4.303-4.017 1.854-2.625 2.811-5.484.535-1.621.612-3.05 0-.502-.077-.889-.497.31-1.147 1.236M3.071 31.696q-.574 3.746-.306 5.291.305-.309.497-.54.727-.89 1.453-2.433.345-.811.65-1.796t.613-2.607q.305-1.622.19-3.611a15 15 0 0 0-.764-3.92 68.6 68.6 0 0 0-2.333 9.616M.699 39.111q-1.223-1.776-.306-7.723.765-4.983 2.678-10.93 1.262-3.939 3.9-9.307 2.64-5.369 4.897-8.613 1.031-1.467 2.027-2.046 1.338-.85 2.562-.232 1.415.773 1.569 3.05.075 1.855-.765 4.365-1.301 3.939-3.71 6.951-1.569 2.009-3.29 3.244a16 16 0 0 1-2.792 1.545q.46.347.803.927.536.85.995 1.931.802 1.739 1.185 2.24.574.735.918.772.383.078.995-.424 1.032-.696 2.295-2.433a1.3 1.3 0 0 1 .899-.541 1.4 1.4 0 0 1 1.013.232q.42.347.517.907a1.3 1.3 0 0 1-.25 1.023q-3.097 4.21-5.736 3.979-1.187-.116-2.18-1.12 0 1.235-.192 2.78-.612 4.365-2.677 7.531-1.76 2.78-3.633 2.78-1.071 0-1.722-.888"
  />
  <path
    fill="var(--logo-frontguys-brand, #004C61)"
    d="M19.402 29.109q-.688-.965-.459-2.549.192-1.468 1.186-3.514 1.11-2.28.956-3.129-.192-.887-1.644-1.854-.46 1.005-1.148 2.55a280 280 0 0 1-1.683 3.707 1.43 1.43 0 0 1-.803.695q-.535.194-1.033-.038a1.29 1.29 0 0 1-.688-.773 1.34 1.34 0 0 1 .038-1.042q.918-1.815 3.137-6.875a3.4 3.4 0 0 1-.306-.618q-.421-1.12.153-2.162.381-.734 1.109-1.024.726-.29 1.377.02 1.109.502 1.032 2.008 0 .27-.153.965 2.907 1.777 3.29 3.94.306 1.698-1.186 4.827-1.186 2.472-.918 3.321.075.078.497.039h.077q1.492-.077 3.346-1.584a13.9 13.9 0 0 0 3.156-3.669q.267-.5.822-.637.555-.135 1.052.174.496.27.631.83t-.172 1.024a15.7 15.7 0 0 1-3.825 4.403q-2.447 2.008-4.857 2.2h-.383q-1.797 0-2.6-1.235"
  />
  <path
    fill="var(--logo-frontguys-brand, #004C61)"
    d="M35.734 18.102q-1.34 1.236-.88 2.742.42 1.622 2.219 2.55 1.682-2.627 1.3-4.867-.192-1.08-.765-1.274a.5.5 0 0 0-.23-.04q-.65 0-1.644.89m-5.125 6.874q-.498 1.933.114 2.704.383.194.88.116 1.224-.27 3.06-1.738.114-.076.325-.27.21-.194.287-.27-2.334-1.43-3.022-3.785a9.7 9.7 0 0 0-1.644 3.243m-1.913 4.52q-1.605-1.777-.688-5.214.841-3.166 3.404-5.64.42-.423.994-.385.497-1.274 1.53-2.163 2.333-2.124 4.552-1.43 2.065.735 2.562 3.4.42 2.316-.726 4.982-.154.386-.268.579 1.415-.424 2.486-1.854.344-.425.899-.483.554-.058 1.013.29.42.349.498.907.075.56-.306 1.024-1.416 1.854-3.404 2.626-1.455.58-3.137.386a18 18 0 0 1-1.72 1.66q-2.334 1.893-4.246 2.318-.69.078-.918.077-1.57 0-2.525-1.08"
  />
  <path
    fill="var(--logo-frontguys-brand, #004C61)"
    d="M42.389 29.38q-1.07-.541-.689-1.662.078-.153.612-1.757.536-1.602 1.167-4.016t.746-3.804q.075-.54.497-.908.42-.366.995-.328.535.078.898.502.363.425.325 1.004a29 29 0 0 1-.42 2.55q1.147-1.391 2.18-2.318 2.409-2.163 4.551-2.163 2.448 0 3.404 1.43.804 1.235.421 3.204-.114.774-.88 2.974-.459 1.314-.612 1.854-.114.463-.114.657.42 0 1.224-.194 1.452-.346 2.945-2.626.803-1.234 1.262-2.433.19-.54.707-.772a1.36 1.36 0 0 1 1.052-.039q.497.194.727.715.229.522.038 1.062 0 .04-.153.425-.153.386-.535 1.1-.384.715-.803 1.371-2.065 3.205-4.59 3.862-2.831.695-3.978-.58-.956-1.041-.497-2.78.114-.617.765-2.587.573-1.43.803-2.51.037-.232.057-.425t.02-.328q0-.135-.02-.213a.26.26 0 0 0-.057-.116v-.038q-.192-.27-1.186-.27-2.869 0-9.141 9.693-.42.617-1.148.618-.305 0-.573-.155"
  />
  <path
    fill="var(--logo-frontguys-brand, #004C61)"
    d="M73.446 21.655q.496.232.707.772.21.542-.019 1.043-1.185 2.86-3.825 5.02-2.754 2.279-5.278 2.473h-.42q-2.45 0-3.71-2.047-1.07-1.776-.46-5.33.383-2.317 1.492-5.33-.268 0-.382-.038-1.11-.115-.995-1.275.078-.423.23-.714a.84.84 0 0 1 .459-.405q.306-.117.497-.155t.63-.058q.441-.019.594-.02 2.524-6.1 4.398-8.573A5.7 5.7 0 0 1 69.2 5.493q1.07-.56 1.912.058.956.618.613 1.892a4.9 4.9 0 0 1-.65 1.39q-.881 1.39-4.093 6.797l4.13-.116q.574-.037.995.329.42.367.497.907.038.58-.325 1.005t-.899.502l-.765.038q-.727.04-2.142.077-1.415.04-3.021.04h-.689q-1.262 3.397-1.644 5.676-.46 2.55.076 3.36.497.851 1.645.772 1.759-.154 3.825-1.93 2.065-1.776 2.983-3.901.23-.502.746-.715a1.42 1.42 0 0 1 1.052-.019"
  />
  <path
    fill="var(--logo-frontguys-brand, #004C61)"
    d="M74.478 34.98q-1.032 1.118-1.147 1.814-.039.154.038.232.153.153.383.077 1.492-.463 3.557-4.325-1.798 1.08-2.83 2.201m4.4-16.646q-1.8 1.313-3.615 3.688-1.817 2.375-1.97 4.075-.078.695.306 1.158.382.425.994.386 1.185-.037 2.945-1.39 1.76-1.351 3.404-3.283l.115-.579q.612-2.625 2.18-2.82.115-.038.383-.038-.918-.463-.727-1.468.115-.578-.153-.656-.306-.193-.88-.193-1.49 0-2.983 1.12m-7.344 20.739q-1.11-1.082-.88-2.665.23-1.74 2.18-3.63 1.606-1.623 4.437-3.09l1.836-.85a2 2 0 0 0 .096-.25q.056-.174.095-.252-2.524 1.932-4.59 2.047-1.836.116-3.098-1.274-1.224-1.275-1.033-3.244.23-2.433 2.563-5.561 2.027-2.665 4.13-4.21 1.76-1.275 3.692-1.564 1.93-.29 3.232.56 1.796 1.12 1.377 3.514a1.3 1.3 0 0 1-.536.83q-.42.291-.918.251.383.156.65.619.726 1.275-1.032 3.514l-.306.425a69 69 0 0 1-.842 2.858q2.64-1.623 4.398-4.867.307-.501.823-.656.516-.154 1.052.116.496.27.65.81.153.543-.115 1.043-1.722 3.207-4.053 4.982-1.302 1.005-4.132 2.356a38 38 0 0 1-1.377 2.936q-1.185 2.277-2.448 3.784-1.453 1.738-2.83 2.124-.422.155-.956.155-1.148 0-2.065-.812"
  />
  <path
    fill="var(--logo-frontguys-brand, #004C61)"
    d="M87.98 28.646q-1.07-1.777-.23-5.292.69-2.586 2.371-6.14.269-.501.804-.695a1.3 1.3 0 0 1 1.033.038q.496.27.688.792.19.522-.076 1.062-3.29 6.835-2.295 8.806.23.309.46.308 1.337-.076 3.747-3.05 2.37-2.974 3.634-5.948.228-.503.765-.714.534-.213 1.032.019.535.232.727.734.19.502-.038 1.042-1.492 3.555-1.645 5.677-.191 1.47.191 1.854.46.155 1.683-.85 1.759-1.274 3.863-4.48.306-.462.86-.56.555-.095 1.052.213.46.309.555.87.096.559-.211 1.022-2.524 3.708-4.665 5.291-2.601 1.93-4.436.927-1.417-.772-1.645-2.935-2.908 3.476-5.24 3.63h-.269q-1.72 0-2.715-1.622"
  />
  <path
    fill="var(--logo-frontguys-brand, #004C61)"
    d="M107.544 35.848q1.09-1.1 2.236-2.954l-.612.27q-1.606.81-2.791 2.317-.727.965-.727 1.584h.115q.688-.117 1.779-1.217m-3.615 3.34q-1.147-.888-.956-2.51.153-1.545 1.588-3.263a10.7 10.7 0 0 1 3.423-2.723q.152-.078.764-.347.612-.27.995-.425.153-.078.822-.367.67-.29 1.013-.483.345-.848.88-2.549l-.65.464q-2.256 1.545-4.819 1.545-1.607 0-2.333-1.545-.841-1.815-.077-4.673.765-2.936 2.793-5.523.345-.424.917-.502.574-.077.994.309.422.348.497.908.078.56-.304 1.023-1.837 2.28-2.373 4.866-.342 1.777 0 2.395 3.328-.077 6.618-4.635.075-.424.152-1.197.344-2.665 1.76-3.012 1.033-.27 1.645.618.535.81.23 2.162-.307 1.16-1.149 2.433l-.076.077a48 48 0 0 1-1.186 4.867q3.099-2.009 4.399-4.982.229-.502.765-.715a1.25 1.25 0 0 1 1.032.02q.497.231.708.772.21.54-.018 1.043-2.105 4.788-8.262 7.84a22.4 22.4 0 0 1-1.454 2.935 28 28 0 0 1-.976 1.525 21 21 0 0 1-1.318 1.7 9.3 9.3 0 0 1-1.779 1.621q-.976.675-1.931.87-.192.076-.613.077a2.57 2.57 0 0 1-1.721-.618"
  />
  <path
    fill="var(--logo-frontguys-brand, #004C61)"
    d="M119.877 28.53q-.267-.54-.095-1.062t.67-.792q.496-.27 1.033-.097.535.174.802.676.192.348.345.54.153.195.727.406.573.213 1.491.213 1.645 0 2.142-.85.84-1.197.305-4.287-.305-1.698-1.032-3.785-.534.927-1.3 1.931-1.645 2.085-4.131 4.365-.421.386-.974.366a1.27 1.27 0 0 1-.938-.444 1.35 1.35 0 0 1-.363-.985q.018-.558.439-.946 4.17-3.86 5.776-7.183.23-.386.343-.772a2 2 0 0 0-.018-.232 2 2 0 0 1-.02-.232q-.076-1.467.727-2.008.956-.696 1.76.077.879.735.383 2.626 0 .078.267.85 3.404 8.65 1.032 12.204-1.338 2.046-4.398 2.047-3.595 0-4.973-2.626"
  />
  <path
    fill="var(--logo-frontguys-dot, #00B5C0)"
    d="M135.044 26.025q.823-.695 1.587-.695 1.262 0 1.262 1.197 0 .695-.593 1.506-.592.81-1.396.811-.803 0-1.243-.425a1.4 1.4 0 0 1-.439-1.042q0-.657.822-1.352"
  />
</svg>
