<svg width="197" height="68" viewBox="0 0 197 68" fill="none" xmlns="http://www.w3.org/2000/svg">
<path fill-rule="evenodd" clip-rule="evenodd" d="M22.7319 1.64971C23.8918 0.739268 25.657 -0.104985 27.6782 0.673698L27.6781 0.673829C28.9451 1.16122 29.7571 2.14679 30.2363 3.10218C30.7146 4.05607 30.9361 5.1154 30.9633 6.05135L30.9675 6.25151C30.9945 8.33312 30.5051 10.8617 29.6581 13.4054C29.6578 13.4062 29.6576 13.4071 29.6573 13.4079C28.8361 15.8631 26.9287 20.6628 23.3598 25.0933L23.3597 25.0932C21.5943 27.3246 19.7165 29.1729 17.7563 30.5613C17.7513 30.5648 17.7462 30.5683 17.7412 30.5718C16.2127 31.6319 14.6 32.5235 13.0265 33.1559C13.0255 33.1563 13.0244 33.1567 13.0235 33.1571L12.9966 33.1679C12.9853 33.1724 12.9739 33.1768 12.9626 33.1811C12.7632 33.2564 12.5643 33.3294 12.3661 33.4003C13.3041 35.7223 14.8184 39.3302 15.3232 40.4641L15.4111 40.6574C15.8528 41.6075 16.3235 42.3104 16.7973 42.6866C17.0217 42.8647 17.209 42.9389 17.3754 42.9628C17.5386 42.9862 17.8078 42.9796 18.2285 42.8L18.229 42.7997C20.6364 41.7733 22.1869 39.1499 23.5982 36.2065L23.5984 36.206C24.3442 34.6519 25.02 33.047 25.6957 31.4468C26.125 30.4273 26.5786 29.3534 27.0449 28.311L28.7834 24.415C29.1453 23.6039 30.025 23.1563 30.8937 23.3413C31.7624 23.5263 32.3833 24.2935 32.3833 25.1816V26.324L32.4715 26.3772L32.4718 26.3774C34.3164 27.4914 37.1205 29.3682 37.9707 32.4021L38.0097 32.5474L38.0101 32.5489C38.4813 34.3923 38.099 36.0742 37.6208 37.4507C37.3837 38.1332 37.0984 38.8056 36.8568 39.3888C36.6101 39.9839 36.4016 40.5028 36.2463 41.0009C36.2015 41.1716 36.172 41.3151 36.157 41.4436C36.1464 41.5352 36.1458 41.6009 36.1486 41.6467C36.1823 41.651 36.2243 41.6544 36.2757 41.6544C38.1278 41.6544 39.6203 40.6734 41.0227 38.9618C42.4685 37.1973 43.5423 35.0129 44.6986 32.9497L44.7276 32.8996C44.7375 32.883 44.7479 32.8666 44.7583 32.8503L45.82 31.2026C46.2278 30.5697 46.9542 30.2607 47.6583 30.3573C48.3095 28.4941 49.8436 26.9666 51.743 26.2369L51.7448 26.2363C53.1164 25.7109 54.6992 25.5602 56.2098 25.9742C58.6154 26.6323 60.3802 28.5909 61.1506 30.737L61.1866 30.8394L61.1867 30.8398C61.7129 32.3736 61.792 33.948 61.5729 35.4594C63.863 34.1726 65.8345 32.1947 66.9097 30.1206C67.2862 29.1285 67.56 28.4211 67.6622 28.1928C68.0632 27.2964 69.086 26.8591 70.011 27.1885C70.9359 27.5179 71.452 28.503 71.1965 29.4508C72.7663 28.4332 74.5755 27.7596 76.6054 27.7596C77.9074 27.7596 79.3345 28.0054 80.5464 28.7674C81.8292 29.5739 82.7157 30.866 82.9741 32.5902L82.9891 32.6952C83.1344 33.7688 83.0384 34.8437 82.8649 35.7672L82.8543 35.8292L82.8542 35.829C82.6318 37.2154 81.5135 41.2502 81.3526 41.8068L81.3527 41.8069L81.3428 41.8426C81.3299 41.8944 81.3151 41.9479 81.2988 42.0025C81.2228 42.2753 81.1731 42.4894 81.1771 42.6829C81.1788 42.7665 81.1913 42.8084 81.1968 42.8228C81.1985 42.8274 81.2008 42.8345 81.2126 42.848L81.2279 42.8641L81.2309 42.8668C81.2514 42.8864 81.2857 42.9136 81.3371 42.9362C81.3832 42.9566 81.4745 42.9877 81.6348 42.9877C81.7679 42.9877 81.9496 42.9657 82.1758 42.8995L82.1865 42.8965C83.2675 42.5868 84.181 41.8024 85.2108 40.874L85.236 40.8507L85.2574 40.8312C86.187 39.9944 87.0074 39.0363 87.7006 37.9845L87.709 37.9718C87.7092 37.9715 87.7095 37.9712 87.7098 37.9707C87.7117 37.9679 87.7153 37.9625 87.7204 37.9546C87.7309 37.9387 87.7479 37.9127 87.7707 37.8772C87.8164 37.806 87.8856 37.6967 87.9735 37.5531C88.1495 37.2655 88.399 36.8422 88.6835 36.3144C89.2557 35.2529 89.9531 33.7982 90.4819 32.1943C90.6797 31.5901 90.8946 30.9903 91.1072 30.415L91.6309 28.984C91.7283 28.696 91.828 28.4088 91.9295 28.1224H91.148C90.1088 28.1224 89.2664 27.2799 89.2664 26.2407C89.2664 25.2016 90.1088 24.3591 91.148 24.3591H93.3925C95.1436 20.2044 97.2489 16.2282 99.392 12.4181C99.9015 11.5124 101.049 11.1911 101.955 11.7006C102.86 12.2101 103.182 13.3573 102.672 14.2631C100.81 17.5743 99.0251 20.9304 97.4949 24.3591H102.989C104.028 24.3591 104.871 25.2015 104.871 26.2407C104.871 27.2799 104.028 28.1224 102.989 28.1224H95.9375C95.7895 28.5126 95.6454 28.9039 95.5056 29.2962C95.4875 29.379 95.4637 29.4616 95.4338 29.5434L95.1719 30.2587C94.4368 32.4415 93.8378 34.6583 93.4172 36.9158L93.417 36.9162C92.7516 40.4833 93.318 41.7027 93.4823 41.9576C93.4893 41.9686 93.4963 41.9797 93.5031 41.9908C93.9395 42.6999 94.5213 43.0441 95.4839 43.0441C95.5901 43.0441 95.6923 43.0403 95.79 43.0321L95.801 43.0311C97.6679 42.8839 99.7882 41.8714 102.318 39.521L102.482 39.366C104.169 37.7534 105.468 35.8186 106.848 33.7501C106.866 33.7237 106.884 33.6979 106.903 33.6727C107.044 33.4548 107.189 33.2402 107.337 33.0294C108.875 30.8366 110.818 28.8897 112.703 27.5314L112.704 27.5308C114.39 26.3171 116.433 25.5553 118.376 25.5553C119.442 25.5553 120.521 25.7927 121.426 26.3683L121.448 26.3817C123.6 27.7066 123.566 29.9628 123.366 31.1092C123.188 32.133 122.213 32.8185 121.19 32.6402C120.166 32.4619 119.481 31.4873 119.659 30.4635C119.71 30.1726 119.7 29.9531 119.662 29.8172C119.646 29.7592 119.627 29.7247 119.61 29.7009C119.594 29.6792 119.558 29.6367 119.471 29.5835C119.465 29.58 119.459 29.5765 119.453 29.5729L119.432 29.5595C119.425 29.5552 119.418 29.5509 119.411 29.5465C119.251 29.4436 118.919 29.3187 118.376 29.3187C117.367 29.3187 116.077 29.7394 114.903 30.5844L114.903 30.5845C113.371 31.6885 111.723 33.3302 110.418 35.1904C109.102 37.0676 108.239 39.0177 108.071 40.738C108.07 40.7461 108.07 40.7544 108.069 40.7625C108.002 41.3679 108.093 41.7274 108.172 41.9285C108.252 42.1342 108.353 42.2692 108.496 42.4488L108.522 42.4786C108.834 42.8328 109.164 42.9769 109.61 42.9769C109.661 42.9769 109.727 42.9745 109.817 42.9681L109.855 42.9658C110.045 42.9564 110.262 42.9258 110.53 42.8618L110.533 42.8612C112.693 42.3484 114.643 40.7504 116.588 38.9607L116.589 38.9596C117.006 38.5765 118.203 37.2233 119.101 35.6588C119.578 34.8273 120.604 34.4875 121.484 34.87C122.363 35.2524 122.814 36.2347 122.531 37.1508C122.451 37.4082 122.372 37.665 122.293 37.9209C122.216 38.1676 122.14 38.4137 122.064 38.6602C121.786 39.6572 121.167 41.695 120.629 43.4164C121.977 42.5425 123.224 41.541 124.349 40.3097C126.306 38.1697 127.677 35.4092 128.908 32.4815C128.937 32.4087 128.966 32.3367 128.994 32.2655L128.995 32.2626L130.693 27.9973C130.762 27.8212 130.836 27.6344 130.917 27.4337C131.304 26.4709 132.398 26.0034 133.362 26.3889C134.325 26.7745 134.795 27.8674 134.411 28.8317L134.409 28.838C134.171 29.4297 133.991 29.894 133.818 30.3434C133.645 30.7921 133.476 31.233 133.265 31.7603C132.982 32.472 132.686 33.2082 132.372 33.9562C131.402 36.3919 130.54 38.4592 130.618 40.5198L130.623 40.6221L130.623 40.623C130.698 42.0607 131.752 42.9797 132.684 42.9797C134.95 42.9797 136.896 41.3611 138.679 38.4702C140.435 35.6245 141.665 32.1473 142.726 29.421C142.728 29.4176 142.729 29.4141 142.73 29.4107C142.892 28.9289 143.058 28.453 143.228 27.9791C143.578 27.0009 144.656 26.4924 145.634 26.8432C146.612 27.1941 147.121 28.2714 146.77 29.2496C146.597 29.7328 146.429 30.2139 146.268 30.6986C146.253 30.7429 146.237 30.7863 146.219 30.8288C145.811 31.9684 145.439 33.1212 145.044 34.3196C144.643 35.5349 144.221 36.7845 143.737 38.0188L143.737 38.02C143.316 39.0908 142.904 40.1365 142.77 41.1109C142.642 42.0416 142.815 42.5308 143.155 42.8574C143.18 42.8805 143.216 42.9083 143.267 42.9309C143.314 42.9516 143.405 42.9823 143.563 42.9823C143.696 42.9823 143.878 42.9605 144.104 42.8942L144.115 42.8911C145.194 42.5818 146.107 41.799 147.135 40.8721L147.164 40.8456L147.186 40.8258C148.115 39.989 148.936 39.0309 149.629 37.9791C149.632 37.975 149.634 37.9709 149.637 37.9668L149.637 37.9664C149.638 37.9655 149.639 37.9632 149.642 37.9598C149.646 37.9529 149.654 37.9409 149.665 37.924C149.687 37.8901 149.722 37.8366 149.767 37.7649C149.858 37.6214 149.991 37.4054 150.153 37.1281C150.478 36.5721 150.915 35.7761 151.357 34.8273C151.36 34.8225 151.362 34.8177 151.364 34.8129L151.45 34.6333C152.318 32.429 153.374 30.5115 154.158 28.9498C154.621 28.0281 155.74 27.6509 156.667 28.1043C157.593 28.5577 157.982 29.6727 157.538 30.6039L154.894 36.1542C154.329 37.6013 153.889 39.1254 153.707 40.7624C153.64 41.3678 153.732 41.7273 153.81 41.9285C153.89 42.1339 153.991 42.2689 154.134 42.4481L154.161 42.479C154.473 42.8329 154.802 42.9769 155.248 42.9769C155.299 42.9769 155.365 42.9745 155.456 42.9681L155.494 42.9658C155.684 42.9563 155.901 42.9258 156.169 42.8618L156.171 42.8612C158.332 42.3484 160.282 40.7503 162.227 38.9607L162.228 38.9596C162.627 38.5931 164.173 36.9117 165.022 34.5038L166.324 30.288C166.325 30.286 166.325 30.2839 166.326 30.2819C166.33 30.2658 166.335 30.2498 166.34 30.2338C166.419 29.9763 166.499 29.7195 166.578 29.4636C166.658 29.2074 166.737 28.952 166.816 28.6961C167.122 27.7032 168.176 27.147 169.169 27.4537C170.162 27.7604 170.718 28.8139 170.411 29.8068L169.933 31.356C169.72 32.112 169.326 33.4242 168.923 34.737C168.916 34.7584 168.909 34.7798 168.902 34.8009L168.597 35.6811L168.551 35.8283C168.476 36.073 168.305 36.6469 168.128 37.2407C167.961 37.8023 167.788 38.3839 167.701 38.6644C167.453 39.5549 166.935 41.2694 166.444 42.8492C172.277 39.021 177.169 34.1406 179.191 27.574L179.208 27.5236L179.208 27.5228C179.208 27.5223 179.208 27.5216 179.209 27.5206C179.209 27.5186 179.21 27.5155 179.212 27.5115C179.214 27.5035 179.218 27.4916 179.224 27.4762C179.234 27.4453 179.249 27.4002 179.268 27.3437C179.307 27.2305 179.36 27.0716 179.422 26.8889C179.493 26.6782 179.573 26.437 179.653 26.1982L179.381 25.1064C179.149 24.1749 179.656 23.2183 180.557 22.8865C181.458 22.5547 182.464 22.9542 182.892 23.8134C183.506 25.0471 185.102 28.2894 185.544 29.2139L185.616 29.3666L185.617 29.3678C186.523 31.3125 187.454 33.6384 187.967 36.0956L188.016 36.3339L188.016 36.3353C188.335 37.9598 188.467 39.8008 187.995 41.531C187.508 43.3122 186.398 44.8938 184.454 45.9168L184.36 45.9651C182.936 46.6913 181.231 46.8778 179.68 46.5858C178.125 46.293 176.524 45.4756 175.517 43.9628C174.941 43.0976 175.176 41.9295 176.041 41.3538C176.907 40.7782 178.075 41.013 178.65 41.8782C178.964 42.3492 179.558 42.7333 180.377 42.8874C181.199 43.0423 182.045 42.9211 182.651 42.6124C183.643 42.1067 184.129 41.4011 184.364 40.5399C184.621 39.5999 184.588 38.4092 184.323 37.0613L184.283 36.8624C183.854 34.8089 183.055 32.7794 182.207 30.959L182.139 30.8159C182.12 30.7776 182.1 30.735 182.077 30.6882C178.829 38.7856 171.848 44.3043 164.669 48.3197C163.82 50.7559 162.85 53.183 161.562 55.5572C160.168 58.2111 158.753 60.3909 157.223 62.2017C157.219 62.2066 157.215 62.2116 157.211 62.2164C155.664 64.0086 153.935 65.4328 152.172 65.9571C152.164 65.9599 152.157 65.9628 152.15 65.9655C151.6 66.1704 150.973 66.2452 150.404 66.2452C148.991 66.2452 147.745 65.7339 146.675 64.815C146.648 64.7913 146.621 64.7666 146.595 64.7413C145.285 63.4766 144.769 61.8283 145.012 60.046L145.025 59.9611C145.337 57.7563 146.868 55.5029 148.907 53.5255C150.846 51.5884 153.564 49.738 156.745 48.1085L156.815 48.0747C158.408 47.3394 160.006 46.5572 161.577 45.7189C161.769 45.1405 161.958 44.5552 162.147 43.9623C160.68 45.0651 158.973 46.0643 157.04 46.5228L157.04 46.5227C156.596 46.6286 156.155 46.6991 155.704 46.7231C155.567 46.7324 155.412 46.7403 155.248 46.7403C153.702 46.7403 152.345 46.1169 151.325 44.9536C151.318 44.9455 151.311 44.9373 151.304 44.9291L151.245 44.8591C151.234 44.8467 151.224 44.8341 151.214 44.8213C151.026 44.5875 150.609 44.0766 150.305 43.2982C150.282 43.24 150.26 43.1808 150.239 43.1205C150.071 43.2845 149.9 43.4454 149.725 43.603L149.688 43.6379C149.681 43.6442 149.674 43.6505 149.667 43.6567C148.734 44.4979 147.207 45.9165 145.162 46.5057L145.162 46.5059C145.161 46.506 145.161 46.5062 145.16 46.5064C145.157 46.5072 145.154 46.5082 145.151 46.509L145.151 46.5089C144.628 46.661 144.093 46.7457 143.563 46.7457C142.14 46.7457 141.149 46.1418 140.564 45.5872C140.563 45.5856 140.561 45.584 140.559 45.5823C139.97 45.0191 139.579 44.3936 139.332 43.7502C137.604 45.4822 135.424 46.743 132.684 46.743C130.038 46.743 128.059 44.9242 127.253 42.7092C127.211 42.7558 127.17 42.8024 127.127 42.8486C124.733 45.4685 121.836 47.2349 118.902 48.6852C118.084 50.9986 117.147 53.3017 115.923 55.5572C114.529 58.2111 113.115 60.3909 111.585 62.2017C111.58 62.2066 111.576 62.2116 111.572 62.2164C110.026 64.0088 108.296 65.4332 106.532 65.9573C106.525 65.96 106.518 65.9628 106.511 65.9655C105.961 66.1704 105.334 66.2452 104.766 66.2452C103.352 66.2452 102.106 65.7339 101.037 64.815C101.009 64.7912 100.982 64.7666 100.956 64.7413C99.6464 63.4766 99.1303 61.8283 99.3739 60.046L99.3861 59.9611C99.698 57.7568 101.229 55.5039 103.267 53.527C105.206 51.5893 107.925 49.7384 111.107 48.1085C111.129 48.0969 111.152 48.0857 111.175 48.075C112.8 47.3248 114.366 46.6501 115.858 45.9606C116.077 45.3037 116.293 44.6379 116.509 43.9623C115.042 45.0651 113.334 46.0643 111.402 46.5228L111.401 46.5227C110.958 46.6285 110.517 46.699 110.066 46.7231C109.929 46.7325 109.774 46.7403 109.61 46.7403C108.064 46.7403 106.706 46.117 105.687 44.9536C105.679 44.9455 105.672 44.9373 105.665 44.929L105.606 44.8591C105.596 44.8467 105.585 44.834 105.575 44.8213C105.387 44.5875 104.97 44.0766 104.666 43.2982C104.588 43.0971 104.519 42.884 104.462 42.6585C101.745 45.0828 98.9968 46.5508 96.1076 46.7818L96.1078 46.7819C96.1073 46.7819 96.1069 46.7819 96.1065 46.7819C96.1033 46.7821 96.1001 46.7826 96.0969 46.7828L96.0967 46.7827C95.8813 46.8006 95.6755 46.8075 95.4839 46.8075C93.2878 46.8075 91.4661 45.8467 90.3105 43.983C89.9524 43.4231 89.6718 42.7219 89.506 41.8422C88.9737 42.4715 88.3992 43.0656 87.7851 43.6192L87.7592 43.6435C87.7524 43.6497 87.7456 43.656 87.7388 43.6621C86.8058 44.5033 85.2786 45.9219 83.2334 46.5111L83.2335 46.5112C82.7071 46.6654 82.1684 46.751 81.6348 46.751C80.2109 46.751 79.218 46.1491 78.6301 45.5869C76.7658 43.8087 77.5705 41.3616 77.6775 40.9787L77.6918 40.9304C77.6912 40.9324 77.6905 40.9355 77.6895 40.9396C77.6958 40.9127 77.7026 40.886 77.71 40.8594L77.7288 40.7922L77.7344 40.7726C77.8964 40.2174 78.9753 36.2923 79.1407 35.2199C79.1425 35.208 79.1445 35.1961 79.1466 35.1842L79.1574 35.1224L79.1626 35.0931C79.2971 34.3866 79.3371 33.7121 79.2525 33.1491L79.2524 33.1484C79.1532 32.486 78.8785 32.164 78.5432 31.9532C78.1369 31.6978 77.4888 31.523 76.6054 31.523C74.6695 31.523 72.805 32.6063 71.0794 34.4721C69.3679 36.3228 67.9961 38.7348 67.0794 40.8492C67.0791 40.8498 67.0788 40.8504 67.0785 40.851C66.7335 41.6443 66.3891 42.4385 66.0443 43.2337C65.7739 43.8573 65.503 44.4815 65.2319 45.1056C65.1284 45.354 65.0436 45.5493 64.9806 45.6811C64.538 46.6067 63.4353 47.0072 62.5019 46.5812C61.5685 46.1552 61.1484 45.0599 61.5575 44.119C61.6416 43.9256 61.7255 43.732 61.8095 43.5384C62.1973 42.5971 62.9178 40.7187 63.7369 38.5532C62.9128 39.0402 62.0602 39.4545 61.1981 39.7825C60.77 39.9453 60.3332 40.0893 59.8906 40.2117C59.7276 40.4972 59.558 40.7732 59.383 41.0382C58.5305 42.3295 57.3365 43.7683 55.8793 44.8786C54.4289 45.9836 52.5631 46.8758 50.4389 46.7476L50.4378 46.7475C47.1898 46.5495 44.7782 44.092 43.9881 41.2794C43.9699 41.3019 43.9521 41.3247 43.9338 41.347C42.1689 43.5009 39.7137 45.4178 36.2757 45.4178C35.701 45.4177 35.1212 45.3188 34.5721 45.0861C33.6588 44.6996 32.9735 43.9582 32.6355 43.046C32.1075 41.6244 32.5454 40.2103 32.7564 39.5223C32.7884 39.4179 32.8287 39.3183 32.8763 39.224C33.0387 38.7771 33.2148 38.3467 33.3801 37.948C33.6415 37.3173 33.8739 36.7684 34.0659 36.2157C34.4458 35.122 34.5675 34.277 34.364 33.4808C33.9892 32.0225 32.5058 30.8001 30.5774 29.6299L30.4809 29.8462L30.4801 29.8479C30.0328 30.8478 29.5941 31.8861 29.1634 32.909C29.1631 32.9096 29.1628 32.9103 29.1626 32.9109C28.4944 34.4931 27.7832 36.1836 26.9915 37.8334L26.9916 37.8336C25.6396 40.6534 23.5773 44.6101 19.7055 46.2612C18.7501 46.6689 17.7854 46.8234 16.8409 46.6879C16.2608 46.6047 15.7365 46.4188 15.2679 46.1683C15.4136 47.5452 15.4422 48.88 15.2885 50.1059C15.2873 50.1156 15.2861 50.1253 15.2847 50.1349C14.6354 54.7336 13.007 59.3435 10.7496 62.7753C9.84316 64.1968 8.3416 66.1752 6.36608 67.1523L6.36595 67.1521C5.41716 67.622 4.00983 67.9039 2.69554 67.2439C2.69384 67.243 2.69211 67.2421 2.69042 67.2413C1.14025 66.4568 0.555673 64.8945 0.305383 63.7975C0.0421011 62.6436 0.0211416 61.4282 0.00559652 60.7079C0.00558001 60.7071 0.00561112 60.7063 0.00559652 60.7056C-0.0490625 58.0184 0.304985 55.3565 0.70348 52.8625C1.4924 47.7076 3.05648 41.3344 5.01114 35.2454C4.24435 35.3616 3.43357 35.4621 2.58765 35.537C1.55253 35.6286 0.639073 34.8637 0.547417 33.8286C0.455804 32.7934 1.22071 31.8799 2.25583 31.7882C3.79797 31.6517 5.21336 31.4212 6.43315 31.1677C9.71551 22.5217 15.5911 10.9857 20.0888 4.58667C20.0927 4.58106 20.0967 4.57544 20.1007 4.56987C20.6693 3.77955 21.5821 2.5522 22.7319 1.64971ZM8.80625 35.7412C8.80562 35.7432 8.80491 35.7452 8.80428 35.7471C6.79679 41.8891 5.20128 48.3435 4.42167 53.4437C4.42103 53.4479 4.42037 53.4522 4.4197 53.4563C4.0279 55.9084 3.72067 58.2948 3.76815 60.629C3.78486 61.4027 3.80973 62.2388 3.97435 62.9604C4.12411 63.6167 4.30812 63.818 4.3693 63.8687C4.37728 63.8688 4.38783 63.8688 4.40106 63.8679C4.47364 63.8627 4.58074 63.8369 4.69626 63.7797L4.6977 63.7789C5.69807 63.2841 6.73823 62.0674 7.57941 60.7474L7.59529 60.723C9.50124 57.8322 10.969 53.7683 11.5563 49.6224C11.8119 47.5516 11.3684 44.753 10.5974 41.6467C10.0664 39.5077 9.45207 37.4722 8.87791 35.5222C8.85383 35.5956 8.82973 35.6686 8.80625 35.7412ZM113.989 50.9315C113.584 51.1124 113.184 51.2929 112.79 51.4748C109.84 52.9889 107.492 54.624 105.922 56.1943C105.914 56.2015 105.907 56.2087 105.9 56.2157C104.076 57.9811 103.246 59.5149 103.111 60.4969C103.11 60.5042 103.109 60.5116 103.108 60.5189C103.007 61.1904 103.163 61.6214 103.53 61.994C103.97 62.3604 104.353 62.4818 104.766 62.4818C104.895 62.4818 105.005 62.4728 105.09 62.4602C105.15 62.4512 105.184 62.4424 105.196 62.4392L105.231 62.4258L105.299 62.4005C105.322 62.3925 105.345 62.385 105.368 62.3779L105.43 62.3591L105.451 62.3529C106.182 62.1395 107.334 61.3663 108.718 59.7626C110.026 58.2131 111.295 56.2771 112.599 53.7927C112.603 53.7852 112.607 53.7777 112.612 53.7702C113.117 52.838 113.571 51.8927 113.989 50.9315ZM159.638 50.9072C159.234 51.0996 158.832 51.2879 158.433 51.4723C155.481 52.9871 153.131 54.6232 151.56 56.1943C151.553 56.2015 151.546 56.2087 151.538 56.2157C149.715 57.9811 148.885 59.5149 148.75 60.4969C148.749 60.5042 148.748 60.5116 148.747 60.5189C148.646 61.1903 148.802 61.6213 149.168 61.9938C149.609 62.3604 149.992 62.4818 150.404 62.4818C150.533 62.4818 150.644 62.4728 150.728 62.4602C150.788 62.4513 150.822 62.4426 150.834 62.4393L150.869 62.4258L150.938 62.4005C150.961 62.3925 150.984 62.385 151.007 62.3779L151.069 62.3591L151.089 62.3529C151.82 62.1397 152.971 61.3675 154.354 59.7662C155.663 58.216 156.933 56.279 158.238 53.7927L158.25 53.7702C158.76 52.8301 159.217 51.8768 159.638 50.9072ZM48.0965 35.3174C47.5767 36.8079 47.3239 38.3232 47.4998 39.7167C47.7246 41.4938 49.1253 42.8971 50.6668 42.9911C51.5717 43.0454 52.5629 42.6741 53.5986 41.885C54.1047 41.4995 54.5846 41.0406 55.0243 40.5491C54.6666 40.4919 54.3108 40.4147 53.9582 40.3153C51.5508 39.6371 49.4915 37.9945 48.0965 35.3174ZM55.2157 29.6038C54.5708 29.4269 53.8102 29.4751 53.0909 29.7506C51.3365 30.4254 50.6831 32.0883 51.3757 33.4648C52.3374 35.3748 53.6247 36.3114 54.9789 36.693C55.6971 36.8953 56.4882 36.9553 57.3256 36.8771C57.9596 35.2374 58.1295 33.5259 57.6269 32.0608C57.2053 30.8332 56.2513 29.8871 55.2168 29.6041L55.2157 29.6038ZM26.3254 4.18543C26.086 4.0932 25.7329 4.07834 25.0555 4.61004C24.372 5.14657 23.7316 5.96762 23.1655 6.75369C19.2908 12.2674 14.2616 21.9355 10.9836 29.8975C11.194 29.8231 11.4061 29.7459 11.6194 29.6654L11.6231 29.664L11.7429 29.6153C12.9819 29.1054 14.3012 28.377 15.5889 27.4846C17.1973 26.3441 18.8237 24.7633 20.4181 22.7461C20.4217 22.7416 20.4254 22.737 20.429 22.7326C23.6072 18.787 25.3395 14.4524 26.0882 12.2142C26.8799 9.83574 27.2465 7.68838 27.2015 6.16239V6.16108C27.1881 5.69689 27.0723 5.18828 26.8722 4.7892C26.6727 4.3915 26.465 4.23906 26.3268 4.18595L26.3254 4.18543Z" fill="var(--logo-frontguys-brand, #004C61)"/>
<path d="M194.373 40.489C195.83 40.5259 197 41.7184 197 43.1842C197 44.6732 195.793 45.8804 194.304 45.8804C192.815 45.8804 191.608 44.6732 191.608 43.1842C191.608 41.6951 192.815 40.4881 194.304 40.4881L194.373 40.489Z" fill="var(--logo-frontguys-brand, #004C61)"/>
</svg>
