<svg
  xmlns="http://www.w3.org/2000/svg"
  fill="none"
  aria-hidden="true"
  viewBox="0 0 24 24"
>
  <path
    fill="currentColor"
    d="m17.25 13.637-4.11 1.865a2.75 2.75 0 0 1-2.281 0L6.75 13.63v2.37c0 .368.31.936 1.343 1.452.997.498 2.403.799 3.907.799s2.91-.3 3.908-.8c1.032-.515 1.342-1.083 1.342-1.45zm4 2.363v-4.178l-2.5 1.135V16c0 1.223-.953 2.183-2.172 2.793-1.253.626-2.9.957-4.578.957-1.677 0-3.325-.33-4.578-.957-1.218-.61-2.172-1.57-2.172-2.793v-3.056L2.3 11.598a1.75 1.75 0 0 1-.01-3.2l8.569-3.9a2.75 2.75 0 0 1 2.282 0L21.712 8.4a1.75 1.75 0 0 1 1.038 1.838v5.76a.75.75 0 0 1-1.5 0M2.751 9.996a.25.25 0 0 0 .09.191l.06.038.01.004 8.57 3.908a1.25 1.25 0 0 0 1.038 0l8.592-3.898.006-.003a.25.25 0 0 0 .11-.094.2.2 0 0 0 .023-.05V10q0-.036.003-.07a.25.25 0 0 0-.163-.164L12.52 5.863v-.001a1.25 1.25 0 0 0-1.037 0h-.001l-8.57 3.9-.01.005a.25.25 0 0 0-.15.229"
  />
</svg>
