<svg xmlns="http://www.w3.org/2000/svg" width="101" height="84" viewBox="0 0 101 84" fill="none">
  <path d="M70.4188 43.2146H30.4668V67.3407H70.4188V43.2146Z" fill="white" stroke="#282839" stroke-linecap="round" stroke-linejoin="round"/>
  <path d="M50.4994 46.1288L31.6254 51.6059C28.2574 52.5973 24.7734 50.0324 24.7734 46.478V33.8901C24.7734 25.9063 29.7094 18.7393 37.2014 16.0579L39.4074 15.2431L61.1854 15.0685L63.9714 16.1161C71.4634 18.8557 76.3994 26.0227 76.3994 33.9483V46.5362C76.3994 50.1488 72.9734 52.6555 69.4894 51.6641L50.4994 46.1288Z" fill="white" stroke="#282839" stroke-linecap="round" stroke-linejoin="round"/>
  <path d="M35.5762 32.026V37.9707L50.5002 33.3667V46.1292" stroke="#282839" stroke-linecap="round" stroke-linejoin="round"/>
  <path d="M65.308 32.026V37.9707L50.5 33.3667" stroke="#282839" stroke-linecap="round" stroke-linejoin="round"/>
  <path d="M90.048 83.0156H10.952C5.204 83.0156 0.5 78.2971 0.5 72.527C0.5 66.7569 5.204 62.0385 10.952 62.0385H90.048C95.796 62.0385 100.5 66.7569 100.5 72.527C100.5 78.2971 95.796 83.0156 90.048 83.0156Z" fill="#3C3C56" stroke="#282839" stroke-linecap="round" stroke-linejoin="round"/>
  <path d="M50.5 70.4874V80.394" stroke="#282839" stroke-linecap="round" stroke-linejoin="round"/>
  <path d="M50.5 62.3878V67.3411" stroke="#282839" stroke-linecap="round" stroke-linejoin="round"/>
  <path d="M55.4347 5.10233C45.6787 -4.10376 38.0128 6.73402 38.0128 6.73402C37.3168 8.1329 36.9688 9.76459 36.9688 11.4545C36.9688 12.6787 37.1427 13.8448 37.4907 14.8925C38.8847 19.3219 43.0647 22.4689 47.9427 22.4689C49.9767 22.4689 51.7767 21.945 53.4607 21.0118C60.0807 17.2828 58.3967 7.90009 55.4347 5.10233Z" fill="white" stroke="#282839" stroke-linecap="round" stroke-linejoin="round"/>
  <path d="M42.3125 11.6875V14.3688" stroke="#282839" stroke-linecap="round" stroke-linejoin="round"/>
  <path d="M45.2745 14.3685C45.2745 15.1272 44.5765 15.8256 43.8225 15.8256C43.0665 15.8256 42.3125 15.1272 42.3125 14.3685" stroke="#282839" stroke-linecap="round" stroke-linejoin="round"/>
  <path d="M59.0349 14.1355V11.8636C59.0349 11.8034 59.0349 11.687 59.0349 11.5124C59.0349 9.8807 58.6869 8.19081 57.9909 6.79193C56.2489 3.00473 52.4149 0.5 48.0589 0.5C43.7049 0.5 39.8709 3.06294 38.1289 6.79193H41.4389C43.0069 6.79193 44.3429 5.51147 44.3429 3.87978C44.3429 5.45327 45.6209 6.79193 47.1889 6.79193H53.2869V9.9389V10.8722V19.7872C53.2869 20.2549 53.4029 20.6623 53.4609 21.0697C54.0409 23.5764 56.3069 25.5574 59.0349 25.5574C62.1709 25.5574 64.7269 22.9924 64.7269 19.8454C64.7849 16.7587 62.1709 14.1355 59.0349 14.1355Z" fill="#3C3C56" stroke="#282839" stroke-linecap="round" stroke-linejoin="round"/>
</svg>