<svg xmlns="http://www.w3.org/2000/svg" fill="none" viewBox="0 0 650 487" aria-hidden="true">
  <path fill="#e9f9f9" d="M565.16 180.843c-4.771-13.482-12.342-25.83-22.926-35.752-37.607-35.335-96.381-37.891-143.779-24.91-15.521 4.268-30.414 10.758-44.678 18.085-12.007 6.156-23.677 12.893-35.976 18.336a201.5 201.5 0 0 1-43.213 11.766c-15.186 1.716-30.497 1.8-45.683.084-13.639-2.222-26.857-6.658-40.496-8.708-16.022-2.389-32.128-1.884-47.395 4.268-14.558 5.822-27.946 14.235-38.53 26.001-11.168 12.432-19.241 27.045-23.844 43.079-8.953 31.397-4.6 66.524 10.042 95.536 7.488 14.78 19.368 28.135 33.756 36.422 16.861 9.799 36.48 12.435 55.304 7.577 17.988-4.687 34.933-14.86 51.497-23.107 18.322-9.042 39.994-25.077 60.95-25.583 16.357-.418 32.63 8.625 47.733 13.901 17.988 6.323 36.899 8.959 55.933 8.708 16.858-.251 33.672-2.134 50.367-4.101 41.999-4.858 84.878-13.733 111.317-49.988 23.343-32.029 26.94-76.112 9.621-111.614"/>
  <path stroke="#282839" stroke-linecap="round" stroke-linejoin="round" d="m55.6 393.931 538.801-.41"/>
  <path fill="#e7e7ee" d="M500.833 342.816h45.849c.037 0 .037 0 .037-.04v-59.224c0-.04 0-.04-.037-.04h-72.645c-.041 0-.041 0-.041.04v59.224c0 .04 0 .04.041.04h6.63"/>
  <path stroke="#282839" stroke-linecap="round" stroke-linejoin="round" d="M500.833 342.816h45.849c.037 0 .037 0 .037-.04v-59.224c0-.04 0-.04-.037-.04h-72.645c-.041 0-.041 0-.041.04v59.224c0 .04 0 .04.041.04h6.63M473.96 313.128h72.723M546.682 373.703v20.203"/>
  <path stroke="#282839" stroke-linecap="round" stroke-linejoin="round" d="M473.96 393.906V283.475h72.723v86.369M495.361 342.816h-9.99"/>
  <path fill="#fff" stroke="#282839" stroke-linecap="round" stroke-linejoin="round" d="M510.319 300.903a2.583 2.583 0 1 0 0-5.167 2.585 2.585 0 0 0-2.584 2.584 2.585 2.585 0 0 0 2.584 2.583M510.319 330.556a2.583 2.583 0 0 0 2.584-2.584 2.583 2.583 0 1 0-5.168 0 2.585 2.585 0 0 0 2.584 2.584"/>
  <path fill="#7d7d9b" stroke="#282839" stroke-linecap="round" stroke-linejoin="round" d="m521.077 245.649 5.862-1.852 8.369 27.454-5.168 1.581-.5-1.581c-4.627-9.717-7.828-15.811-8.563-25.602"/>
  <path fill="#3c3c56" stroke="#282839" stroke-linecap="round" stroke-linejoin="round" d="M512.903 272.945H547.8v4.205h-3.701c-12.261 1.93-19.976 2.161-31.196 0z"/>
  <path fill="#3c3c56" stroke="#282839" stroke-linecap="round" stroke-linejoin="round" d="M544.099 277.15h-34.897v6.325h34.897z"/>
  <path fill="#7d7d9b" stroke="#282839" stroke-linecap="round" stroke-linejoin="round" d="M479.395 270.902c9.641-3.007 21.865-4.896 32.159 0h4.899v6.248l-3.01.077-34.048 3.124z"/>
  <path fill="#3c3c56" stroke="#282839" stroke-linecap="round" stroke-linejoin="round" d="M477.969 259.836c13.65-2.698 23.096-3.007 34.934 0h2.121v4.822h-3.506c-10.181 3.664-20.784 2.969-33.549 0z"/>
  <path fill="#e7e7ee" stroke="#282839" stroke-linecap="round" stroke-linejoin="round" d="M475.849 253.591h.694c14.191-1.503 25.874-1.543 36.36 0v6.244h-37.054z"/>
  <path fill="#e7e7ee" d="M483.251 243.91h-5.282v7.638h37.055v-7.638h-28.686"/>
  <path stroke="#282839" stroke-linecap="round" stroke-linejoin="round" d="M483.251 243.91h-5.282v7.638h37.055v-7.638h-28.686"/>
  <path fill="#3c3c56" stroke="#282839" stroke-linecap="round" stroke-linejoin="round" d="M513.407 277.227h-37.018v6.248h37.018z"/>
  <path fill="#7d7d9b" stroke="#282839" stroke-linecap="round" stroke-linejoin="round" d="M511.518 264.658h-37.059v6.244h37.059z"/>
  <path fill="#e7e7ee" stroke="#282839" stroke-linecap="round" stroke-linejoin="round" d="M517.493 250.159H476.58v3.433h40.913z"/>
  <path fill="#7d7d9b" stroke="#282839" stroke-linecap="round" stroke-linejoin="round" d="m516.067 245.418 5.164-1.585 8.409 27.418-5.208 1.58z"/>
  <path fill="#00778f" stroke="#282839" stroke-linecap="round" stroke-linejoin="round" d="m453.606 153.138 8.93-8.929-3.815-6.155a23 23 0 0 0 1.649-3.989l7.11-1.65v-12.658l-7.11-1.646a22.6 22.6 0 0 0-1.649-3.989l3.815-6.155-8.93-8.93-6.154 3.815s-2.6-1.214-3.99-1.649l-1.645-7.11h-12.659l-1.649 7.11s-2.685.955-3.989 1.649l-6.155-3.814-8.929 8.929 3.814 6.155a22.8 22.8 0 0 0-1.649 3.989l-7.11 1.646v12.658l7.11 1.65c.435 1.385 1.649 3.989 1.649 3.989l-3.814 6.155 8.929 8.929 6.155-3.815a23 23 0 0 0 3.989 1.65l1.649 7.109h12.659l1.645-7.109s2.69-.955 3.99-1.65z"/>
  <path fill="#fff" d="M451.092 128.6a15.76 15.76 0 0 1-4.42 8.67 15.906 15.906 0 0 1-22.543 0 15.906 15.906 0 0 1 0-22.543 15.913 15.913 0 0 1 22.543 0 15.83 15.83 0 0 1 4.42 8.584"/>
  <path stroke="#282839" stroke-linecap="round" stroke-linejoin="round" d="M451.092 128.6a15.76 15.76 0 0 1-4.42 8.67 15.906 15.906 0 0 1-22.543 0 15.906 15.906 0 0 1 0-22.543 15.913 15.913 0 0 1 22.543 0 15.83 15.83 0 0 1 4.42 8.584"/>
  <path fill="#00778f" stroke="#282839" stroke-linecap="round" stroke-linejoin="round" d="m509.791 187.3 3.729-8.67-4.335-3.209c.086-1.04.086-2.165.086-3.209l4.509-3.12-3.469-8.755-5.375.78c-.695-.869-1.389-1.564-2.255-2.344l.955-5.375-8.673-3.729-3.206 4.339s-2.169-.09-3.209-.09l-3.12-4.509-8.759 3.469.78 5.375s-1.56 1.389-2.34 2.255l-5.374-.955-3.73 8.673 4.335 3.206c-.085 1.04-.085 2.169-.085 3.209l-4.51 3.12 3.47 8.759 5.374-.78c.695.865 2.255 2.34 2.255 2.34l-.955 5.374 8.67 3.73 3.209-4.335c1.04.085 2.169.085 3.209.085l3.12 4.51 8.759-3.47-.784-5.374s1.564-1.386 2.344-2.255z"/>
  <path fill="#fff" d="M489.588 185.39c6.565 0 11.879-5.314 11.879-11.874 0-6.565-5.314-11.879-11.879-11.879-6.553 0-11.879 5.314-11.879 11.879 0 6.56 5.326 11.874 11.879 11.874"/>
  <path stroke="#282839" stroke-linecap="round" stroke-linejoin="round" d="M489.588 185.39c6.565 0 11.879-5.314 11.879-11.874 0-6.565-5.314-11.879-11.879-11.879-6.553 0-11.879 5.314-11.879 11.879 0 6.56 5.326 11.874 11.879 11.874M451.441 193.629h-10.579c-7.804 0-14.048-6.329-14.048-14.048v-10.575"/>
  <path stroke="#282839" stroke-linecap="round" stroke-linejoin="round" d="m421.094 174.641 5.72-5.635 5.639 5.635M478.059 110.827h10.574c7.804 0 14.048 6.329 14.048 14.048v10.575"/>
  <path stroke="#282839" stroke-linecap="round" stroke-linejoin="round" d="m508.316 129.815-5.634 5.635-5.635-5.635"/>
  <path fill="#fff" stroke="#282839" stroke-linecap="round" stroke-linejoin="round" d="M177.223 129.982H103.46v108.099h73.763z"/>
  <path fill="#fff" stroke="#282839" stroke-linecap="round" stroke-linejoin="round" d="m114.128 124.075-16.4 16.401 3.871 3.871 16.396-16.4zM101.607 223.684l-3.871 3.875 16.404 16.4 3.872-3.871z"/>
  <path fill="#04c6cd" stroke="#282839" stroke-linecap="round" stroke-linejoin="round" d="M166.611 144.099h-52.536v13.735h52.536zM134.436 162.543h-20.361v13.731h20.361zM149.898 180.983h-35.823v13.735h35.823z"/>
  <path fill="#a5a4bc" stroke="#282839" stroke-linecap="round" stroke-linejoin="round" d="M149.012 325.632h-48.607a3.906 3.906 0 0 0-3.913 3.912 3.906 3.906 0 0 0 3.913 3.912h48.607a3.903 3.903 0 0 0 3.909-3.912 3.903 3.903 0 0 0-3.909-3.912"/>
  <path fill="#a5a4bc" d="m140.77 333.456 8.856 60.564z"/>
  <path stroke="#282839" stroke-linecap="round" stroke-linejoin="round" d="m140.77 333.456 8.856 60.564"/>
  <path fill="#a5a4bc" d="m108.615 333.456-8.824 60.564z"/>
  <path stroke="#282839" stroke-linecap="round" stroke-linejoin="round" d="m108.615 333.456-8.824 60.564"/>
  <path fill="#a5a4bc" d="M124.707 333.456v60.564z"/>
  <path stroke="#282839" stroke-linecap="round" stroke-linejoin="round" d="M124.707 333.456v60.564"/>
  <path fill="#a5a4bc" d="M140.77 363.738h8.242z"/>
  <path stroke="#282839" stroke-linecap="round" stroke-linejoin="round" d="M140.77 363.738h8.242"/>
  <path fill="#a5a4bc" d="M100.405 363.738h35.745z"/>
  <path stroke="#282839" stroke-linecap="round" stroke-linejoin="round" d="M100.405 363.738h35.745"/>
  <path fill="#fff" d="M428.472 141.625h-192.81v156.053l111.036 2.372 110.947-2.372V141.625H436.82"/>
  <path stroke="#282839" stroke-linecap="round" stroke-linejoin="round" d="M428.472 141.625h-192.81v156.053l111.036 2.372 110.947-2.372V141.625H436.82"/>
  <path fill="#3c3c56" stroke="#282839" stroke-linecap="round" stroke-linejoin="round" d="M457.645 297.678H235.662v21.45h221.983zM383.951 371.936h-76.387c-10.502 0-19.122 9.799-19.122 21.97H402.98c.089-12.171-8.438-21.97-19.029-21.97"/>
  <path stroke="#282839" stroke-linecap="round" stroke-linejoin="round" d="M346.698 371.936v-52.808M429.991 182.181v92.267M403.118 210.44v64.009M379.011 195.864v78.585M341.144 232.914v41.535M309.465 238.207v36.242M429.991 182.181l-26.792 28.259-24.107-14.577-37.866 37.132-31.68 5.212-29.152 36.241"/>
  <path fill="#04c6cd" stroke="#282839" stroke-linecap="round" stroke-linejoin="round" d="M429.991 186.089a3.91 3.91 0 0 1 0-7.816 3.91 3.91 0 0 1 3.909 3.908 3.91 3.91 0 0 1-3.909 3.908M403.118 214.267a3.91 3.91 0 0 1 0-7.817 3.91 3.91 0 0 1 0 7.817M379.011 200.097a3.91 3.91 0 0 1-3.908-3.908 3.91 3.91 0 0 1 7.82 0 3.91 3.91 0 0 1-3.912 3.908M341.144 236.826a3.91 3.91 0 0 1 0-7.82 3.91 3.91 0 0 1 0 7.82M309.465 242.282a3.91 3.91 0 0 1 0-7.82 3.91 3.91 0 0 1 0 7.82M280.394 278.357a3.91 3.91 0 0 1 0-7.817 3.91 3.91 0 0 1 0 7.817"/>
  <path stroke="#282839" stroke-linecap="round" stroke-linejoin="round" d="M268.015 274.449h-6.353M268.015 264.187h-6.353M268.015 253.925h-6.353M268.015 243.664h-6.353M268.015 233.487h-6.353M268.015 223.225h-6.353M268.015 212.963h-6.353M268.015 202.701h-6.353M268.015 192.444h-6.353M268.015 182.181h-6.353"/>
  <path fill="#3c3c56" d="M229.958 264.987q.042 0 0 0l.028 128.891c0 .029 0 .029-.028.029h-61.612c-.024 0-.024 0-.024-.029V265.012c0-.025 0-.025.024-.025l55.611-3.4h.029z"/>
  <path stroke="#282839" stroke-linecap="round" stroke-linejoin="round" d="M229.958 264.987q.042 0 0 0m0 0 .028 128.891c0 .029 0 .029-.028.029h-61.612c-.024 0-.024 0-.024-.029V265.012c0-.025 0-.025.024-.025l55.611-3.4h.029z"/>
  <path fill="#fff" stroke="#282839" stroke-linecap="round" stroke-linejoin="round" d="m162.13 236.058 1.918-29.835c.463-7.121 5.862-12.984 12.927-14.052l15.754-2.523h.029v.029l-.139 1.206v.029h32.712c7.475 0 13.532 6.053 13.532 13.532v21.75s0 .029.028.029l34.158 17.176s.028.029 0 .029l-10.571 21.34s-.028.024-.028 0l-32.301-15.726h-.025v.028l-.085 15.832c0 .028 0 .028-.024.028h-28.686v.029l3.616 6.959v.024l-.024.029-21.918 11.013h-.028l-9.726-18.025-.024-.029h-4.879v-.028l.057-8.958-3.124-5.805a25.43 25.43 0 0 1-3.149-14.081"/>
  <path fill="#04c6cd" stroke="#282839" stroke-linecap="round" stroke-linejoin="round" d="M268.584 222.989c0-.028 0-.028-.024-.028h-34.328c-.029 0-.029 0-.029.028v41.97c0 .028 0 .028.029.028h34.328c.024 0 .024 0 .024-.028z"/>
  <path fill="#fff" d="M254.832 234.251q0-.043 0 0l9.564-.195c7.174-.11 13.065 5.618 13.146 12.796.085 7.232-5.777 13.094-12.984 13.065l-9.726-.052c-.028 0-.028 0-.028-.029z"/>
  <path stroke="#282839" stroke-linecap="round" stroke-linejoin="round" d="M254.832 234.251q0-.043 0 0m0 0 9.564-.195c7.174-.11 13.065 5.618 13.146 12.796.085 7.232-5.777 13.094-12.984 13.065l-9.726-.052c-.028 0-.028 0-.028-.029z"/>
  <path fill="#fff" stroke="#282839" stroke-linecap="round" stroke-linejoin="round" d="M200.18 285.34c-.029.029-.029.029 0 .053l4.001 5.59h.025s.028 0 .028-.028l2.438-6.435v-.029h-.025l-3.043-.357zM211.083 214.141h-.056l-9.698-15.836v-.024l.029-.029h19.37s.024 0 .024.029v.024z"/>
  <path fill="#3c3c56" stroke="#282839" stroke-linecap="round" stroke-linejoin="round" d="M207.001 223.156a1.097 1.097 0 1 1 0-2.195 1.097 1.097 0 0 1 0 2.195M207.001 228.059a1.097 1.097 0 1 1 0-2.194 1.097 1.097 0 0 1 0 2.194"/>
  <path fill="#3c3c56" d="M219.245 200.141q0 .044 0 0c2.275.029 7.097.029 7.507.029.029 0 .029 0 .029-.029v-8.08c0-.028 0-.028-.029-.028-2.738-.358-6.382.109-6.654.138 0 0-.028 0-.028.028-.11.272-2.218 5.257-.825 7.942"/>
  <path stroke="#282839" stroke-linecap="round" stroke-linejoin="round" d="M219.245 200.141q0 .044 0 0m0 0c2.275.029 7.097.029 7.507.029.029 0 .029 0 .029-.029v-8.08c0-.028 0-.028-.029-.028-2.738-.358-6.382.109-6.654.138 0 0-.028 0-.028.028-.11.272-2.218 5.257-.825 7.942"/>
  <path fill="#fff" stroke="#282839" stroke-linecap="round" stroke-linejoin="round" d="M226.781 176.006a18.75 18.75 0 0 1 1.808 8.028 19.2 19.2 0 0 1-.906 5.781c-2.438 7.45-9.449 12.845-17.725 12.845-7.751 0-14.381-4.737-17.2-11.476.024-.358 1.397-14.191 4.793-17.887 3.449-3.73 12.874-3.754 18.765-3.754 5.834 0 10.384 6.325 10.465 6.463"/>
  <path fill="#3c3c56" stroke="#282839" stroke-linecap="round" stroke-linejoin="round" d="M191.332 184.005c0-2.876.658-5.586 1.807-8.027 2.986-6.273 9.397-10.628 16.819-10.628a18.55 18.55 0 0 1 16.794 10.603v.025h-5.585a4.92 4.92 0 0 1-4.713-3.506c-.057-.191-.329-.191-.386 0a4.9 4.9 0 0 1-4.712 3.506h-10.327c-.029 0-.029 0-.029.028v24.107c0 .028 0 .028-.024.028h-9.592c-.024 0-.024 0-.024-.028v-15.559c-.028-.163-.028-.358-.028-.549"/>
  <path fill="#fff" stroke="#282839" stroke-linecap="round" stroke-linejoin="round" d="m196.125 255.014-.792-6.11s0-.025.024-.025l3.124-1.535h.029l3.339.686s.029 0 .029.025l.605 4.659.301 2.247 3.916 29.502v.028h-.029l-6.463.849c-.028 0-.028 0-.028-.028l-1.341-10.189s0-.028.024-.028l6.11-3.068.029-.028v-.028z"/>
  <path fill="#3c3c56" stroke="#282839" stroke-linecap="round" stroke-linejoin="round" d="m194.809 244.987.524 3.864c0 .028.024.028.024.028l6.468-.849h.024v-.028l-.52-3.864a3.28 3.28 0 0 0-3.697-2.823 3.243 3.243 0 0 0-2.823 3.672"/>
  <path stroke="#282839" stroke-linecap="round" stroke-linejoin="round" d="M230.067 220.003v-4.465M230.067 249.099v-26.138M211.055 393.907V291.012M211.055 214.169v50.818M219.55 185.13v3.559M214.561 188.689a2.5 2.5 0 0 0 2.494 2.494 2.503 2.503 0 0 0 2.495-2.494M196.125 255.014l-9.287-17.888h.029c4.875-.715 8.247-5.289 7.507-10.164M168.374 256.001l4.851 8.986"/>
</svg>
