<svg xmlns="http://www.w3.org/2000/svg" width="101" height="78" viewBox="0 0 101 78" fill="none">
  <mask id="path-1-inside-1_4549_4263" fill="white">
    <path d="M18.2656 60.2783V71.8843C18.2656 73.1383 18.7656 74.3423 19.6516 75.2303C20.5396 76.1183 21.7436 76.6163 22.9996 76.6163H74.3897C74.3937 76.6163 74.3977 76.6143 74.4017 76.6143C74.4037 76.6103 74.4037 76.6063 74.4037 76.6023V66.7123C74.4037 66.7043 74.4037 66.6943 74.4017 66.6843L69.7257 49.2903C69.7217 49.2803 69.7217 49.2703 69.7217 49.2603V4.96028C69.7217 4.95828 69.7197 4.95429 69.7157 4.95029C69.7137 4.94829 69.7097 4.94629 69.7057 4.94629H18.2816C18.2756 4.94629 18.2736 4.94829 18.2716 4.95029C18.2676 4.95429 18.2656 4.95828 18.2656 4.96028V58.0023"/>
  </mask>
  <path d="M18.2656 60.2783V71.8843C18.2656 73.1383 18.7656 74.3423 19.6516 75.2303C20.5396 76.1183 21.7436 76.6163 22.9996 76.6163H74.3897C74.3937 76.6163 74.3977 76.6143 74.4017 76.6143C74.4037 76.6103 74.4037 76.6063 74.4037 76.6023V66.7123C74.4037 66.7043 74.4037 66.6943 74.4017 66.6843L69.7257 49.2903C69.7217 49.2803 69.7217 49.2703 69.7217 49.2603V4.96028C69.7217 4.95828 69.7197 4.95429 69.7157 4.95029C69.7137 4.94829 69.7097 4.94629 69.7057 4.94629H18.2816C18.2756 4.94629 18.2736 4.94829 18.2716 4.95029C18.2676 4.95429 18.2656 4.95828 18.2656 4.96028V58.0023" fill="#E7E7EE"/>
  <path d="M19.6516 75.2303L18.9437 75.9366L18.9445 75.9374L19.6516 75.2303ZM74.4017 76.6143V77.6143H75.0197L75.2961 77.0615L74.4017 76.6143ZM74.4017 66.6843L75.3823 66.4882L75.3759 66.4562L75.3674 66.4247L74.4017 66.6843ZM69.7257 49.2903L70.6914 49.0307L70.6761 48.9737L70.6542 48.9189L69.7257 49.2903ZM18.2656 60.2783H17.2656V71.8843H18.2656H19.2656V60.2783H18.2656ZM18.2656 71.8843H17.2656C17.2656 73.4043 17.8715 74.862 18.9437 75.9366L19.6516 75.2303L20.3595 74.524C19.6598 73.8226 19.2656 72.8723 19.2656 71.8843H18.2656ZM19.6516 75.2303L18.9445 75.9374C20.0204 77.0132 21.4788 77.6163 22.9996 77.6163V76.6163V75.6163C22.0084 75.6163 21.0589 75.2234 20.3587 74.5232L19.6516 75.2303ZM22.9996 76.6163V77.6163H74.3897V76.6163V75.6163H22.9996V76.6163ZM74.3897 76.6163V77.6163C74.4318 77.6163 74.469 77.6137 74.5 77.6103C74.531 77.6069 74.5572 77.6026 74.5772 77.5988C74.597 77.5951 74.613 77.5915 74.6226 77.5892C74.6276 77.5881 74.6316 77.5871 74.6342 77.5864C74.6354 77.5861 74.6365 77.5859 74.6372 77.5857C74.6379 77.5855 74.6384 77.5854 74.6385 77.5854C74.639 77.5852 74.6375 77.5856 74.6357 77.5861C74.6336 77.5866 74.6301 77.5874 74.6256 77.5885C74.617 77.5905 74.602 77.5939 74.5832 77.5974C74.5642 77.601 74.539 77.6052 74.509 77.6084C74.479 77.6117 74.4428 77.6143 74.4017 77.6143V76.6143V75.6143C74.3596 75.6143 74.3224 75.6169 74.2914 75.6203C74.2604 75.6237 74.2342 75.628 74.2142 75.6318C74.1944 75.6355 74.1784 75.6391 74.1688 75.6413C74.1638 75.6425 74.1598 75.6435 74.1573 75.6441C74.156 75.6444 74.1549 75.6447 74.1542 75.6449C74.1536 75.645 74.153 75.6452 74.1529 75.6452C74.1524 75.6453 74.1539 75.645 74.1558 75.6445C74.1578 75.644 74.1613 75.6431 74.1658 75.6421C74.1744 75.6401 74.1894 75.6367 74.2082 75.6331C74.2272 75.6296 74.2524 75.6254 74.2824 75.6221C74.3124 75.6189 74.3486 75.6163 74.3897 75.6163V76.6163ZM74.4017 76.6143L75.2961 77.0615C75.3591 76.9356 75.3849 76.8189 75.3957 76.7326C75.4008 76.6915 75.4025 76.6578 75.4032 76.6367C75.4035 76.626 75.4036 76.6172 75.4037 76.6117C75.4037 76.6089 75.4037 76.6066 75.4037 76.605C75.4037 76.6036 75.4037 76.6024 75.4037 76.6023H74.4037H73.4037C73.4037 76.631 73.3892 76.4033 73.5073 76.1671L74.4017 76.6143ZM74.4037 76.6023H75.4037V66.7123H74.4037H73.4037V76.6023H74.4037ZM74.4037 66.7123H75.4037C75.4037 66.7107 75.4039 66.6811 75.4021 66.6464C75.4002 66.6101 75.3955 66.5544 75.3823 66.4882L74.4017 66.6843L73.4211 66.8804C73.4099 66.8242 73.4063 66.7785 73.4048 66.7517C73.4035 66.7264 73.4037 66.7059 73.4037 66.7123H74.4037ZM74.4017 66.6843L75.3674 66.4247L70.6914 49.0307L69.7257 49.2903L68.76 49.5499L73.436 66.9439L74.4017 66.6843ZM69.7257 49.2903L70.6542 48.9189C70.6957 49.0227 70.711 49.114 70.7172 49.1756C70.7225 49.2285 70.7217 49.2733 70.7217 49.2603H69.7217H68.7217C68.7217 49.2608 68.7216 49.2758 68.7221 49.2929C68.7225 49.3115 68.7237 49.3403 68.7272 49.375C68.7344 49.4465 68.7517 49.5479 68.7972 49.6617L69.7257 49.2903ZM69.7217 49.2603H70.7217V4.96028H69.7217H68.7217V49.2603H69.7217ZM69.7217 4.96028H70.7217C70.7217 4.6969 70.6176 4.51095 70.5887 4.46036C70.5393 4.37382 70.4814 4.30179 70.4228 4.24318L69.7157 4.95029L69.0086 5.65739C68.954 5.60278 68.8991 5.53476 68.8517 5.45171C68.828 5.41026 68.8004 5.35475 68.7766 5.28636C68.7559 5.2268 68.7217 5.11087 68.7217 4.96028H69.7217ZM69.7157 4.95029L70.4228 4.24318C70.2458 4.06612 69.9921 3.94629 69.7057 3.94629V4.94629V5.94629C69.547 5.94629 69.4147 5.90832 69.3177 5.86674C69.2249 5.827 69.1134 5.76219 69.0086 5.65739L69.7157 4.95029ZM69.7057 4.94629V3.94629H18.2816V4.94629V5.94629H69.7057V4.94629ZM18.2816 4.94629V3.94629C18.1654 3.94629 18.0017 3.96632 17.8284 4.05287C17.7455 4.09428 17.6807 4.14088 17.6334 4.18027C17.6109 4.19899 17.5933 4.21528 17.5821 4.22597C17.5765 4.23133 17.572 4.23577 17.5692 4.23856C17.5677 4.23998 17.5666 4.24115 17.5658 4.2419C17.5651 4.24259 17.5645 4.24318 17.5645 4.24318L18.2716 4.95029L18.9787 5.65739C18.9848 5.65137 18.883 5.76175 18.7219 5.84221C18.5515 5.92725 18.3919 5.94629 18.2816 5.94629V4.94629ZM18.2716 4.95029L17.5645 4.24318C17.5061 4.30159 17.4483 4.37342 17.3989 4.45979C17.3703 4.50998 17.2656 4.69627 17.2656 4.96028H18.2656H19.2656C19.2656 5.1113 19.2312 5.2275 19.2105 5.28703C19.1867 5.35544 19.159 5.41092 19.1353 5.45228C19.0879 5.53515 19.0331 5.60298 18.9787 5.65739L18.2716 4.95029ZM18.2656 4.96028H17.2656V58.0023H18.2656H19.2656V4.96028H18.2656Z" fill="#282839" mask="url(#path-1-inside-1_4549_4263)"/>
  <path d="M18.2656 60.2783V71.8843C18.2656 73.1383 18.7656 74.3423 19.6516 75.2303C20.5396 76.1183 21.7436 76.6163 22.9996 76.6163H74.3897C74.3937 76.6163 74.3977 76.6143 74.4017 76.6143C74.4037 76.6103 74.4037 76.6063 74.4037 76.6023V66.7123C74.4037 66.7043 74.4037 66.6943 74.4017 66.6843L69.7257 49.2903C69.7217 49.2803 69.7217 49.2703 69.7217 49.2603V4.96028C69.7217 4.95828 69.7197 4.95429 69.7157 4.95029C69.7137 4.94829 69.7097 4.94629 69.7057 4.94629H18.2816C18.2756 4.94629 18.2736 4.94829 18.2716 4.95029C18.2676 4.95429 18.2656 4.95828 18.2656 4.96028V58.0023" stroke="#282839" stroke-linecap="round" stroke-linejoin="round"/>
  <path d="M79.0866 49.2754H69.7406C69.7366 49.2754 69.7326 49.2754 69.7306 49.2794C69.7266 49.2814 69.7266 49.2854 69.7266 49.2894V71.9354C69.7266 73.1774 70.2186 74.3674 71.0966 75.2454C71.9746 76.1234 73.1646 76.6154 74.4046 76.6154C75.6466 76.6154 76.8366 76.1234 77.7146 75.2454C78.5926 74.3674 79.0866 73.1774 79.0866 71.9354V69.4794C79.0866 69.4714 79.0866 69.4614 79.0906 69.4534L83.7586 57.2494C83.7626 57.2414 83.7646 57.2314 83.7646 57.2214V49.2894C83.7646 49.2854 83.7626 49.2814 83.7606 49.2794C83.7566 49.2754 83.7546 49.2754 83.7506 49.2754H79.0866Z" fill="#E7E7EE" stroke="#282839" stroke-linecap="round" stroke-linejoin="round"/>
  <path d="M88.458 62.6174C88.454 62.6154 88.45 62.6134 88.448 62.6114C88.444 62.6074 88.444 62.6034 88.444 62.5994V53.9534C88.444 52.7114 87.95 51.5214 87.074 50.6454C86.196 49.7674 85.006 49.2754 83.764 49.2754C82.524 49.2754 81.332 49.7674 80.456 50.6454C79.576 51.5214 79.084 52.7114 79.084 53.9534V69.4514C79.084 69.4554 79.086 69.4594 79.088 69.4614C79.09 69.4634 79.096 69.4654 79.098 69.4654H93.648C93.652 69.4654 93.656 69.4634 93.658 69.4614C93.66 69.4594 93.662 69.4554 93.662 69.4514V64.1334C93.662 64.1294 93.66 64.1254 93.658 64.1214C93.656 64.1194 93.652 64.1174 93.648 64.1154L88.458 62.6174Z" fill="#3C3C56" stroke="#282839" stroke-linecap="round" stroke-linejoin="round"/>
  <path d="M88.4434 62.6718C88.4434 62.6678 88.4454 62.6638 88.4474 62.6618C88.4494 62.6598 88.4534 62.6578 88.4594 62.6578H100.485C100.489 62.6578 100.491 62.6598 100.495 62.6618C100.497 62.6638 100.499 62.6678 100.499 62.6718C100.491 67.8198 96.6574 69.4658 93.7634 69.4658C90.8634 69.4658 88.4434 67.1138 88.4434 64.2318V62.6718Z" fill="#E7E7EE" stroke="#282839" stroke-linecap="round" stroke-linejoin="round"/>
  <path d="M52.8789 20.2759H59.3869" stroke="#282839" stroke-linecap="round" stroke-linejoin="round"/>
  <path d="M34.0215 20.2759H49.1235" stroke="#282839" stroke-linecap="round" stroke-linejoin="round"/>
  <path d="M28.5645 30.5782H59.3865" stroke="#282839" stroke-linecap="round" stroke-linejoin="round"/>
  <path d="M28.5645 40.8783H59.3865" stroke="#282839" stroke-linecap="round" stroke-linejoin="round"/>
  <path d="M55.9668 51.1783H59.3868" stroke="#282839" stroke-linecap="round" stroke-linejoin="round"/>
  <path d="M28.5645 51.1783H52.5485" stroke="#282839" stroke-linecap="round" stroke-linejoin="round"/>
  <path d="M44.2347 41.1203C44.2347 41.1183 44.2367 41.1183 44.2387 41.1163C44.2387 41.1163 44.2427 41.1163 44.2447 41.1163C44.2447 41.1163 44.2487 41.1163 44.2507 41.1163C44.2507 41.1183 44.2527 41.1183 44.2547 41.1203L53.4187 50.2863C53.4207 50.2883 53.4227 50.2883 53.4227 50.2923C53.4247 50.2923 53.4247 50.2943 53.4247 50.2963C53.4247 50.2983 53.4247 50.3003 53.4227 50.3023C53.4227 50.3043 53.4207 50.3063 53.4187 50.3063L52.5587 51.1683C52.5567 51.1703 52.5547 51.1723 52.5547 51.1723C52.5507 51.1743 52.5487 51.1743 52.5487 51.1743C52.5447 51.1743 52.5447 51.1743 52.5427 51.1723C52.5407 51.1723 52.5387 51.1703 52.5387 51.1683C50.2667 48.9063 47.1447 48.6523 45.6847 48.6743C45.4387 48.6843 45.1967 48.6263 44.9827 48.5063C44.7707 48.3843 44.5947 48.2063 44.4787 47.9923L42.0087 43.3663C42.0067 43.3623 42.0047 43.3583 42.0067 43.3543C42.0067 43.3503 42.0087 43.3463 42.0107 43.3443L44.2347 41.1203Z" fill="#3C3C56" stroke="#282839" stroke-linecap="round" stroke-linejoin="round"/>
  <mask id="path-14-inside-2_4549_4263" fill="white">
    <path d="M12.68 7.09L30.14 24.548C29.434 27.852 27.922 28.966 24.55 30.14L1.658 7.25C0.915999 6.51 0.5 5.502 0.5 4.454C0.5 3.406 0.915999 2.4 1.658 1.658C2.4 0.918002 3.406 0.5 4.454 0.5C5.502 0.5 6.50801 0.918002 7.25001 1.658L11.244 5.654"/>
  </mask>
  <path d="M12.68 7.09L30.14 24.548C29.434 27.852 27.922 28.966 24.55 30.14L1.658 7.25C0.915999 6.51 0.5 5.502 0.5 4.454C0.5 3.406 0.915999 2.4 1.658 1.658C2.4 0.918002 3.406 0.5 4.454 0.5C5.502 0.5 6.50801 0.918002 7.25001 1.658L11.244 5.654" fill="#3C3C56"/>
  <path d="M30.14 24.548L31.118 24.757L31.2316 24.2253L30.8471 23.8409L30.14 24.548ZM24.55 30.14L23.843 30.8471L24.2865 31.2906L24.8788 31.0844L24.55 30.14ZM1.658 7.25L2.36508 6.54286L2.36415 6.54194L1.658 7.25ZM1.658 1.658L0.951848 0.94994L0.950894 0.950895L1.658 1.658ZM7.25001 1.658L7.95729 0.95107L7.95616 0.949941L7.25001 1.658ZM12.68 7.09L11.9729 7.79715L29.433 25.2551L30.14 24.548L30.8471 23.8409L13.3871 6.38285L12.68 7.09ZM30.14 24.548L29.1621 24.339C28.8362 25.8643 28.3531 26.7596 27.6582 27.4157C26.9327 28.1007 25.8831 28.617 24.2212 29.1956L24.55 30.14L24.8788 31.0844C26.589 30.489 27.9814 29.8613 29.0313 28.8698C30.112 27.8495 30.7379 26.5357 31.118 24.757L30.14 24.548ZM24.55 30.14L25.2571 29.4329L2.36508 6.54286L1.658 7.25L0.950925 7.95714L23.843 30.8471L24.55 30.14ZM1.658 7.25L2.36415 6.54194C1.81134 5.99062 1.5 5.23783 1.5 4.454H0.5H-0.5C-0.5 5.76616 0.0206551 7.02938 0.951849 7.95806L1.658 7.25ZM0.5 4.454H1.5C1.5 3.67094 1.81083 2.91938 2.36511 2.36511L1.658 1.658L0.950894 0.950895C0.0211641 1.88062 -0.5 3.14105 -0.5 4.454H0.5ZM1.658 1.658L2.36415 2.36606C2.91965 1.81206 3.6721 1.5 4.454 1.5V0.5V-0.5C3.1399 -0.5 1.88035 0.0239429 0.951849 0.949941L1.658 1.658ZM4.454 0.5V1.5C5.23591 1.5 5.98836 1.81206 6.54386 2.36606L7.25001 1.658L7.95616 0.949941C7.02766 0.0239423 5.7681 -0.5 4.454 -0.5V0.5ZM7.25001 1.658L6.54273 2.36493L10.5367 6.36093L11.244 5.654L11.9513 4.94707L7.95729 0.951071L7.25001 1.658Z" fill="#282839" mask="url(#path-14-inside-2_4549_4263)"/>
  <path d="M12.68 7.09L30.14 24.548C29.434 27.852 27.922 28.966 24.55 30.14L1.658 7.25C0.915999 6.51 0.5 5.502 0.5 4.454C0.5 3.406 0.915999 2.4 1.658 1.658C2.4 0.918002 3.406 0.5 4.454 0.5C5.502 0.5 6.50801 0.918002 7.25001 1.658L11.244 5.654" fill="#3C3C56"/>
  <path d="M12.68 7.09L30.14 24.548C29.434 27.852 27.922 28.966 24.55 30.14L1.658 7.25C0.915999 6.51 0.5 5.502 0.5 4.454C0.5 3.406 0.915999 2.4 1.658 1.658C2.4 0.918002 3.406 0.5 4.454 0.5C5.502 0.5 6.50801 0.918002 7.25001 1.658L11.244 5.654" stroke="#282839" stroke-linecap="round" stroke-linejoin="round"/>
  <path d="M45.118 39.526C45.546 39.954 45.784 40.534 45.784 41.138C45.784 41.74 45.546 42.32 45.118 42.748L42.748 45.118C42.322 45.544 41.742 45.784 41.138 45.784C40.532 45.784 39.952 45.544 39.526 45.118L27.25 32.842C28.426 29.29 29.68 27.916 32.842 27.25L45.118 39.526Z" fill="#3C3C56" stroke="#282839" stroke-linecap="round" stroke-linejoin="round"/>
  <path d="M30.1389 24.55L24.5469 30.1401L25.8969 31.4901L31.4889 25.9L30.1389 24.55Z" fill="#E7E7EE" stroke="#282839" stroke-linecap="round" stroke-linejoin="round"/>
  <path d="M31.4904 25.9L25.9004 31.49L27.2504 32.842L32.8404 27.252L31.4904 25.9Z" fill="#E7E7EE" stroke="#282839" stroke-linecap="round" stroke-linejoin="round"/>
</svg>