<svg width="500" height="500" viewBox="-110 -110 500 500" fill="none" xmlns="http://www.w3.org/2000/svg">
<path d="M53.4776 42.9999H215.048H226.61C229.792 42.9999 232.37 45.5787 232.37 48.7599V172.81H47.7177V48.7599C47.7177 45.5787 50.2965 42.9999 53.4776 42.9999Z" fill="#E9F9F9" stroke="#3C3C56" stroke-width="5.6" stroke-linecap="round" stroke-linejoin="round"/>
<path d="M232.37 172.78H47.7177V184.863C47.7177 188.044 50.2965 190.623 53.4777 190.623H226.61C229.792 190.623 232.37 188.044 232.37 184.863V172.78Z" fill="#3C3C56" stroke="#3C3C56" stroke-width="5.6" stroke-linecap="round" stroke-linejoin="round"/>
<path d="M221.058 183.513C222.015 183.513 222.791 182.737 222.791 181.78C222.791 180.823 222.015 180.047 221.058 180.047C220.101 180.047 219.325 180.823 219.325 181.78C219.325 182.737 220.101 183.513 221.058 183.513Z" fill="#E9F9F9"/>
<path d="M221.058 183.513C222.015 183.513 222.791 182.737 222.791 181.78C222.791 180.823 222.015 180.047 221.058 180.047C220.101 180.047 219.325 180.823 219.325 181.78C219.325 182.737 220.101 183.513 221.058 183.513Z" fill="#E9F9F9"/>
<path d="M222.27 181.78C222.27 182.449 221.727 182.992 221.058 182.992C220.388 182.992 219.846 182.449 219.846 181.78C219.846 181.11 220.388 180.568 221.058 180.568C221.727 180.568 222.27 181.11 222.27 181.78Z" stroke="#E9F9F9" stroke-width="5.6" stroke-linecap="round" stroke-linejoin="round"/>
<path d="M171.07 234.58H107.528C98.7927 234.58 91.6218 242.731 91.6218 252.856H186.898C186.973 242.731 179.88 234.58 171.07 234.58Z" fill="#3C3C56" stroke="#3C3C56" stroke-width="5.6" stroke-linecap="round" stroke-linejoin="round"/>
<path d="M140.081 234.58V190.652" stroke="#3C3C56" stroke-width="5.6" stroke-linecap="round" stroke-linejoin="round"/>
<path d="M209.15 66.6654L181.638 92.86L153.918 79.63L126.198 113.56L98.4778 118.51L70.883 151.944" stroke="#3C3C56" stroke-width="5.6" stroke-linecap="round" stroke-linejoin="round"/>
<path d="M209.37 70.2778C207.376 70.2778 205.758 68.6595 205.758 66.6657C205.758 64.6719 207.376 63.0536 209.37 63.0536C211.364 63.0536 212.982 64.6719 212.982 66.6657C212.982 68.6595 211.364 70.2778 209.37 70.2778Z" stroke="#3C3C56" stroke-width="5.6" stroke-linecap="round" stroke-linejoin="round"/>
<path d="M181.65 96.3209C179.656 96.3209 178.038 94.7026 178.038 92.7088C178.038 90.7112 179.656 89.0967 181.65 89.0967C183.644 89.0967 185.262 90.7112 185.262 92.7088C185.262 94.7026 183.644 96.3209 181.65 96.3209Z" stroke="#3C3C56" stroke-width="5.6" stroke-linecap="round" stroke-linejoin="round"/>
<path d="M153.93 83.2246C151.936 83.2246 150.318 81.6063 150.318 79.6125C150.318 77.6187 151.936 76.0004 153.93 76.0004C155.928 76.0004 157.546 77.6187 157.546 79.6125C157.546 81.6063 155.928 83.2246 153.93 83.2246Z" stroke="#3C3C56" stroke-width="5.6" stroke-linecap="round" stroke-linejoin="round"/>
<path d="M126.21 117.172C124.216 117.172 122.598 115.554 122.598 113.556C122.598 111.562 124.216 109.944 126.21 109.944C128.204 109.944 129.822 111.562 129.822 113.556C129.822 115.554 128.204 117.172 126.21 117.172Z" stroke="#3C3C56" stroke-width="5.6" stroke-linecap="round" stroke-linejoin="round"/>
<path d="M98.4899 122.214C96.4961 122.214 94.8778 120.596 94.8778 118.599C94.8778 116.605 96.4961 114.986 98.4899 114.986C100.484 114.986 102.102 116.605 102.102 118.599C102.102 120.596 100.484 122.214 98.4899 122.214Z" stroke="#3C3C56" stroke-width="5.6" stroke-linecap="round" stroke-linejoin="round"/>
<path d="M70.8832 155.557C68.8894 155.557 67.2711 153.938 67.2711 151.945C67.2711 149.951 68.8894 148.332 70.8832 148.332C72.877 148.332 74.4953 149.951 74.4953 151.945C74.4953 153.938 72.877 155.557 70.8832 155.557Z" stroke="#3C3C56" stroke-width="5.6" stroke-linecap="round" stroke-linejoin="round"/>
</svg>
