<svg width="650" height="487" viewBox="0 0 650 487" fill="none" xmlns="http://www.w3.org/2000/svg">
	<path
		d="M448.847 130.738C422.521 109.352 387.405 106.732 353.839 106.943C321.413 107.154 288.761 111.19 257.249 118.841C235.252 124.169 211.201 130.797 195.302 147.181C179.184 163.685 170.112 185.733 167.709 207.962C165.026 232.388 169.921 257.206 178.647 280.249C186.389 300.667 197.514 320.486 213.857 335.906C235.283 356.207 262.117 362.02 291.133 364.038C322.012 366.146 353.998 365.875 383.232 354.973C423.12 340.153 448.026 307.836 466.104 272.206C477.326 250.037 484.216 225.489 482.855 200.914C481.498 176.366 471.637 151.76 453.178 134.503C451.755 133.238 450.27 131.972 448.847 130.738Z"
		fill="#E9F9F9" />
	<path
		d="M414.378 308.031V283.48C414.378 271.551 403.987 261.889 391.092 261.889H251.581C238.69 261.889 228.296 271.551 228.296 283.48V328.234H414.478V312.191"
		fill="#E7E7EE" />
	<path
		d="M414.378 308.031V283.48C414.378 271.551 403.987 261.889 391.092 261.889H251.581C238.69 261.889 228.296 271.551 228.296 283.48V328.234H414.478V312.191"
		stroke="#282839" stroke-linecap="round" stroke-linejoin="round" />
	<path d="M421.074 321.301H221.603V329.205H421.074V321.301Z" fill="#E7E7EE" stroke="#282839"
		stroke-linecap="round" stroke-linejoin="round" />
	<path d="M242.288 329.205L221.603 378.906" stroke="#282839" stroke-linecap="round"
		stroke-linejoin="round" />
	<path d="M400.289 329.205L421.074 378.906" stroke="#282839" stroke-linecap="round"
		stroke-linejoin="round" />
	<path d="M289.007 261.934V314.642" stroke="#282839" stroke-linecap="round" stroke-linejoin="round" />
	<path d="M353.666 272.615V321.301" stroke="#282839" stroke-linecap="round" stroke-linejoin="round" />
	<path d="M353.666 261.934V269.148" stroke="#282839" stroke-linecap="round" stroke-linejoin="round" />
	<path d="M203.179 379.52H86.2539" stroke="#282839" stroke-linecap="round" stroke-linejoin="round" />
	<path d="M563.747 379.52H228.424" stroke="#282839" stroke-linecap="round" stroke-linejoin="round" />
	<path d="M555.429 198.432V252.217H428.221V174.564L432.23 167.589H549.256L555.429 174.564V191.225"
		fill="#D2F4F3" />
	<path d="M555.429 198.432V252.217H428.221V174.564L432.23 167.589H549.256L555.429 174.564V191.225"
		stroke="#282839" stroke-linecap="round" stroke-linejoin="round" />
	<path d="M539.398 160.555H428.221V174.564H539.398V160.555Z" fill="#00B5C0" stroke="#282839"
		stroke-linecap="round" stroke-linejoin="round" />
	<path d="M555.429 160.555H539.464V174.564H555.429V160.555Z" fill="#00B5C0" stroke="#282839"
		stroke-linecap="round" stroke-linejoin="round" />
	<path d="M437.026 181.251H450.235" stroke="#282839" stroke-linecap="round" stroke-linejoin="round" />
	<path d="M437.026 187.65H450.235" stroke="#282839" stroke-linecap="round" stroke-linejoin="round" />
	<path d="M437.026 194.05H450.235" stroke="#282839" stroke-linecap="round" stroke-linejoin="round" />
	<path d="M491.827 252.217V292.919" stroke="#282839" stroke-linecap="round" stroke-linejoin="round" />
	<path
		d="M347.645 325.09H302.144C294.977 325.09 289.146 319.311 289.146 312.073V286.589H360.525V312.073C360.588 319.311 354.753 325.09 347.645 325.09Z"
		fill="#3C3C56" stroke="#282839" stroke-linecap="round" stroke-linejoin="round" />
	<path
		d="M306.033 226.009H305.122C290.784 226.009 279.243 237.626 279.243 251.919V281.725C279.243 286.468 283.01 290.24 287.747 290.24H361.862C366.661 290.24 370.549 286.346 370.549 281.601V251.739C370.549 237.505 359.005 225.95 344.792 225.95H343.698"
		fill="white" />
	<path
		d="M306.033 226.009H305.122C290.784 226.009 279.243 237.626 279.243 251.919V281.725C279.243 286.468 283.01 290.24 287.747 290.24H361.862C366.661 290.24 370.549 286.346 370.549 281.601V251.739C370.549 237.505 359.005 225.95 344.792 225.95H343.698"
		stroke="#282839" stroke-linecap="round" stroke-linejoin="round" />
	<path
		d="M306.216 308.973L307.31 310.065C307.431 310.19 343.881 346.684 344.366 347.169C336.894 354.65 329.359 362.194 321.887 369.675L270.251 317.973C263.994 311.771 263.994 301.614 270.251 295.471C276.449 289.265 286.594 289.265 292.73 295.471C292.972 295.713 293.277 296.018 293.519 296.261"
		fill="#3C3C56" />
	<path
		d="M306.216 308.973L307.31 310.065C307.431 310.19 343.881 346.684 344.366 347.169C336.894 354.65 329.359 362.194 321.887 369.675L270.251 317.973C263.994 311.771 263.994 301.614 270.251 295.471C276.449 289.265 286.594 289.265 292.73 295.471C292.972 295.713 293.277 296.018 293.519 296.261"
		stroke="#282839" stroke-linecap="round" stroke-linejoin="round" />
	<path d="M297.224 256.665V246.871" stroke="#282839" stroke-linecap="round" stroke-linejoin="round" />
	<path d="M352.569 256.665V246.871" stroke="#282839" stroke-linecap="round" stroke-linejoin="round" />
	<path
		d="M339.02 228.928L339.809 222.362L324.259 220.476L308.827 222.178L310.226 228.869C310.226 231.24 308.706 233.248 306.58 233.979C308.768 242.129 316.24 248.029 324.986 248.029C333.736 248.029 341.087 242.188 343.334 234.1C340.841 233.674 339.02 231.483 339.02 228.928Z"
		fill="white" stroke="#282839" stroke-linecap="round" stroke-linejoin="round" />
	<path
		d="M343.092 223.211C337.378 205.573 312.41 205.573 306.763 223.211C305.607 226.619 305.548 230.571 306.521 233.979C308.647 233.247 310.163 231.24 310.163 228.869V223.153H339.02V228.869C339.02 231.424 340.841 233.674 343.272 234.222C344.245 230.693 344.182 226.619 343.092 223.211Z"
		fill="#3C3C56" stroke="#282839" stroke-linecap="round" stroke-linejoin="round" />
	<path d="M320.977 229.538V237.747" stroke="#282839" stroke-linecap="round" stroke-linejoin="round" />
	<path
		d="M326.143 237.747C326.143 239.21 324.986 240.302 323.528 240.302C322.071 240.302 320.977 239.148 320.977 237.747"
		stroke="#282839" stroke-linecap="round" stroke-linejoin="round" />
	<path
		d="M353.6 315.785C353.6 316.149 353.6 316.513 353.6 316.818C353.6 337.802 353.6 358.786 353.6 379.77C349.954 379.77 346.371 379.77 342.725 379.77H321.766V306.661C321.766 301.492 324.259 296.868 328.148 293.949C329.484 292.853 331.122 292.125 332.763 291.515"
		fill="#3C3C56" />
	<path
		d="M353.6 315.785C353.6 316.149 353.6 316.513 353.6 316.818C353.6 337.802 353.6 358.786 353.6 379.77C349.954 379.77 346.371 379.77 342.725 379.77H321.766V306.661C321.766 301.492 324.259 296.868 328.148 293.949C329.484 292.853 331.122 292.125 332.763 291.515"
		stroke="#282839" stroke-linecap="round" stroke-linejoin="round" />
	<path
		d="M340.782 291.03C344.428 291.758 347.645 293.706 349.954 296.504C350.443 297.11 353.116 300.397 353.6 305.26C353.659 305.871 353.659 306.356 353.659 306.72"
		fill="#3C3C56" />
	<path
		d="M340.782 291.03C344.428 291.758 347.645 293.706 349.954 296.504C350.443 297.11 353.116 300.397 353.6 305.26C353.659 305.871 353.659 306.356 353.659 306.72"
		stroke="#282839" stroke-linecap="round" stroke-linejoin="round" />
	<path d="M297.224 246.871V271.079H352.569V246.871" stroke="#282839" stroke-linecap="round"
		stroke-linejoin="round" />
	<path d="M323.529 271.079V290.239" stroke="#282839" stroke-linecap="round" stroke-linejoin="round" />
	<path d="M353.601 290.361H296.13L289.326 256.665H360.463L353.601 290.361Z" fill="#7D7D9B"
		stroke="#282839" stroke-linecap="round" stroke-linejoin="round" />
	<path
		d="M324.928 278.682C327.812 278.682 330.152 276.342 330.152 273.45C330.152 270.563 327.812 268.223 324.928 268.223C322.04 268.223 319.703 270.563 319.703 273.45C319.703 276.342 322.04 278.682 324.928 278.682Z"
		fill="#3C3C56" stroke="#282839" stroke-linecap="round" stroke-linejoin="round" />
	<path d="M516.029 357.781L525.049 378.948" stroke="#282839" stroke-linecap="round"
		stroke-linejoin="round" />
	<path d="M499.922 320.434L513.128 351.138" stroke="#282839" stroke-linecap="round"
		stroke-linejoin="round" />
	<path d="M469.396 320.434L444.269 378.948" stroke="#282839" stroke-linecap="round"
		stroke-linejoin="round" />
	<path d="M522.148 312.007H447.008V320.434H522.148V312.007Z" fill="#3C3C56" stroke="#282839"
		stroke-linecap="round" stroke-linejoin="round" />
	<path d="M484.701 320.434V378.948" stroke="#282839" stroke-linecap="round" stroke-linejoin="round" />
	<path d="M483.825 275.451H532.885L516.147 310.242H467.125L483.825 275.451Z" fill="#7D7D9B"
		stroke="#282839" stroke-linecap="round" stroke-linejoin="round" />
	<path d="M517.698 307.056H451.855V311.833H517.698V307.056Z" fill="#7D7D9B" stroke="#282839"
		stroke-linecap="round" stroke-linejoin="round" />
	<path
		d="M500.76 294.16C502.363 294.16 503.662 292.86 503.662 291.255C503.662 289.65 502.363 288.35 500.76 288.35C499.157 288.35 497.858 289.65 497.858 291.255C497.858 292.86 499.157 294.16 500.76 294.16Z"
		fill="#3C3C56" stroke="#282839" stroke-linecap="round" stroke-linejoin="round" />
	<path d="M137.333 369.026H142.028L165.503 367.591L183.959 369.026V379.669H137.333V369.026Z"
		fill="#3C3C56" stroke="#282839" stroke-linecap="round" stroke-linejoin="round" />
	<path d="M141.373 358.321L163.547 356.754L185.066 358.321H188.003V369.026H141.373V358.321Z"
		fill="#3C3C56" stroke="#282839" stroke-linecap="round" stroke-linejoin="round" />
	<path d="M145.026 347.679H139.289V358.321H185.981V347.679H151.155" fill="#E7E7EE" />
	<path d="M145.026 347.679H139.289V358.321H185.981V347.679H151.155" stroke="#282839"
		stroke-linecap="round" stroke-linejoin="round" />
	<path d="M485.033 219.731L481.872 223.021L478.791 219.731V203.899H485.033V219.731Z" fill="#00B5C0"
		stroke="#282839" stroke-linecap="round" stroke-linejoin="round" />
	<path d="M470.598 223.021H493.146" stroke="#282839" stroke-linecap="round" stroke-linejoin="round" />
	<path
		d="M482.724 225.416C482.724 226.39 481.1 226.39 481.1 227.448C481.1 228.502 482.724 228.422 482.724 229.476C482.724 230.45 481.1 230.45 481.1 231.507C481.1 232.481 482.724 232.481 482.724 233.535C482.724 234.509 481.1 234.509 481.1 235.567"
		stroke="#282839" stroke-linecap="round" stroke-linejoin="round" />
	<path
		d="M482.724 225.416C482.724 226.39 481.1 226.39 481.1 227.448C481.1 228.502 482.724 228.422 482.724 229.476C482.724 230.45 481.1 230.45 481.1 231.507C481.1 232.481 482.724 232.481 482.724 233.535C482.724 234.509 481.1 234.509 481.1 235.567"
		stroke="#282839" stroke-linecap="round" stroke-linejoin="round" />
	<path
		d="M502.754 193.994C504.077 193.994 505.147 192.923 505.147 191.599C505.147 190.275 504.077 189.203 502.754 189.203C501.432 189.203 500.362 190.275 500.362 191.599C500.362 192.923 501.432 193.994 502.754 193.994Z"
		fill="#00B5C0" stroke="#282839" stroke-linecap="round" stroke-linejoin="round" />
	<path d="M513.055 189.203H508.35V193.911H513.055V189.203Z" fill="#00B5C0" stroke="#282839"
		stroke-linecap="round" stroke-linejoin="round" />
	<path d="M508.717 204.387H513.055" stroke="#282839" stroke-linecap="round" stroke-linejoin="round" />
	<path d="M501.172 204.387H506.404" stroke="#282839" stroke-linecap="round" stroke-linejoin="round" />
	<path d="M501.172 209.095H513.055" stroke="#282839" stroke-linecap="round" stroke-linejoin="round" />
	<path d="M501.172 213.723H513.055" stroke="#282839" stroke-linecap="round" stroke-linejoin="round" />
	<path d="M510.947 218.393H513.055" stroke="#282839" stroke-linecap="round" stroke-linejoin="round" />
	<path d="M506.283 218.393H508.997" stroke="#282839" stroke-linecap="round" stroke-linejoin="round" />
	<path d="M501.172 218.393H503.97" stroke="#282839" stroke-linecap="round" stroke-linejoin="round" />
	<path d="M501.172 223.021H513.055" stroke="#282839" stroke-linecap="round" stroke-linejoin="round" />
	<path d="M478.465 194.521L475.504 191.599L478.465 188.593" stroke="#282839" stroke-linecap="round"
		stroke-linejoin="round" />
	<path d="M485.359 188.593L488.319 191.599L485.359 194.521" stroke="#282839" stroke-linecap="round"
		stroke-linejoin="round" />
	<path d="M483.209 188.593L480.532 194.521" stroke="#282839" stroke-linecap="round"
		stroke-linejoin="round" />
</svg>
	