<svg xmlns="http://www.w3.org/2000/svg" width="101" height="65" viewBox="0 0 101 65" fill="none">
  <path d="M59.768 64.164H100.5L54.772 2.63C52.67 -0.21 48.438 -0.21 46.392 2.63L0.5 64.164H32.932H45.928" fill="#7D7D9B"/>
  <path d="M59.768 64.164H100.5L54.772 2.63C52.67 -0.21 48.438 -0.21 46.392 2.63L0.5 64.164H32.932H45.928" stroke="#282839" stroke-linecap="round" stroke-linejoin="round"/>
  <path d="M70.7159 24.0601L54.7459 2.65609C52.6439 -0.181912 48.4119 -0.181912 46.3639 2.65609L30.3379 24.1961L30.3659 26.2161V32.4961C30.3659 34.6521 32.0859 36.3721 34.2419 36.3721C36.3999 36.3721 38.1199 34.6521 38.1199 32.4961V29.3281V28.0461V24.7161C38.1199 22.4501 39.9479 20.5921 42.2419 20.5921C44.5079 20.5921 46.3639 22.4221 46.3639 24.7161V27.0641V29.6021C46.3639 31.8961 48.2199 33.7781 50.5399 33.7781C52.8339 33.7781 54.7179 31.9221 54.7179 29.6021V29.5481C54.7179 28.0181 55.9739 26.8181 57.4479 26.8181C58.9219 26.8181 60.1779 28.0741 60.1779 29.5481V31.3221V37.7381C60.1779 40.6041 62.5259 42.9521 65.3919 42.9521C68.2579 42.9521 70.6059 40.6041 70.6059 37.7381L70.7159 24.4701V24.0601Z" fill="white" stroke="#282839" stroke-linecap="round" stroke-linejoin="round"/>
</svg>