<svg
  xmlns="http://www.w3.org/2000/svg"
  fill="none"
  viewBox="0 0 650 487"
  aria-hidden="true"
>
  <path
    fill="#e9f9f9"
    d="M142.731 261.847c5.802 15.026 15.901 27.51 26.822 39.146 4.098 4.418 8.746 8.22 13.72 11.699-.983 11.468-.648 23.006 1.961 34.384 3.683 15.984 13.319 31.349 25.956 41.801 25.886 21.332 59.298 27.468 91.931 23.147 31.463-4.135 63.669-11.765 93.05-23.997 15.417-6.383 30.531-13.671 44.039-23.733 13.712-10.278 24.874-21.607 34.757-35.501 5.139-7.253 9.495-14.968 12.972-23.227 18.404-32.357 24.584-70.589 16.75-107.73-9.558-45.077-43.018-86.338-85.451-104.395-42.925-18.18-91.572-18.1-135.181-2.084-23.387 8.584-45.371 20.573-65.361 35.494-19.536 14.526-39.016 30.94-54.525 49.752-19.403 23.258-33.149 55.255-21.44 85.244"
  />
  <path
    stroke="#282839"
    stroke-linecap="round"
    stroke-linejoin="round"
    d="m68 386.213 514-.392"
  />
  <path
    fill="#e7e7ee"
    d="M492.739 337.387h43.739c.035 0 .035 0 .035-.038v-56.571c0-.039 0-.038-.035-.038h-69.302c-.038 0-.038-.001-.038.038v56.571c0 .038 0 .038.038.038h6.325"
  />
  <path
    stroke="#282839"
    stroke-linecap="round"
    stroke-linejoin="round"
    d="M492.739 337.387h43.739c.035 0 .035 0 .035-.038v-56.571c0-.039 0-.038-.035-.038h-69.302c-.038 0-.038-.001-.038.038v56.571c0 .038 0 .038.038.038h6.325M467.103 309.028h69.375M536.479 366.891v19.298"
  />
  <path
    stroke="#282839"
    stroke-linecap="round"
    stroke-linejoin="round"
    d="M467.103 386.188V280.704h69.375v82.5M487.519 337.387h-9.53"
  />
  <path
    fill="#fff"
    stroke="#282839"
    stroke-linecap="round"
    stroke-linejoin="round"
    d="M501.789 297.352a2.465 2.465 0 0 0 2.464-2.468 2.465 2.465 0 1 0-4.929 0 2.467 2.467 0 0 0 2.465 2.468M501.789 325.676a2.465 2.465 0 0 0 2.464-2.468 2.465 2.465 0 1 0-4.929 0 2.467 2.467 0 0 0 2.465 2.468"
  />
  <path
    fill="#a5a4bc"
    stroke="#282839"
    stroke-linecap="round"
    stroke-linejoin="round"
    d="m512.051 244.573 5.593-1.77 7.983 26.225-4.93 1.509-.476-1.509c-4.414-9.282-7.468-15.103-8.17-24.455"
  />
  <path
    fill="#3c3c56"
    stroke="#282839"
    stroke-linecap="round"
    stroke-linejoin="round"
    d="M504.253 270.646h33.291v4.017h-3.531c-11.696 1.843-19.055 2.064-29.76 0z"
  />
  <path
    fill="#3c3c56"
    stroke="#282839"
    stroke-linecap="round"
    stroke-linejoin="round"
    d="M534.014 274.663h-33.291v6.042h33.291z"
  />
  <path
    fill="#a5a4bc"
    stroke="#282839"
    stroke-linecap="round"
    stroke-linejoin="round"
    d="M472.289 268.694c9.196-2.871 20.857-4.676 30.678 0h4.674v5.969l-2.872.073-32.48 2.985z"
  />
  <path
    fill="#3c3c56"
    stroke="#282839"
    stroke-linecap="round"
    stroke-linejoin="round"
    d="M470.928 258.124c13.022-2.577 22.032-2.872 33.326 0h2.023v4.606h-3.345c-9.712 3.5-19.827 2.837-32.004 0z"
  />
  <path
    fill="#e7e7ee"
    stroke="#282839"
    stroke-linecap="round"
    stroke-linejoin="round"
    d="M468.905 252.159h.663c13.537-1.436 24.683-1.475 34.686 0v5.964h-35.349z"
  />
  <path
    fill="#e7e7ee"
    d="M475.966 242.912h-5.038v7.295h35.349v-7.295h-27.365"
  />
  <path
    stroke="#282839"
    stroke-linecap="round"
    stroke-linejoin="round"
    d="M475.966 242.912h-5.038v7.295h35.349v-7.295h-27.365"
  />
  <path
    fill="#3c3c56"
    stroke="#282839"
    stroke-linecap="round"
    stroke-linejoin="round"
    d="M504.734 274.736h-35.313v5.968h35.313z"
  />
  <path
    fill="#a5a4bc"
    stroke="#282839"
    stroke-linecap="round"
    stroke-linejoin="round"
    d="M502.932 262.73H467.58v5.964h35.352z"
  />
  <path
    fill="#e7e7ee"
    stroke="#282839"
    stroke-linecap="round"
    stroke-linejoin="round"
    d="M508.633 248.88h-39.03v3.279h39.03z"
  />
  <path
    fill="#a5a4bc"
    stroke="#282839"
    stroke-linecap="round"
    stroke-linejoin="round"
    d="m507.272 244.352 4.926-1.513 8.023 26.189-4.969 1.51z"
  />
  <path
    fill="#e7e7ee"
    stroke="#282839"
    stroke-linecap="round"
    stroke-linejoin="round"
    d="M450.224 194c25.973 0 47.036-21.09 47.036-47.097s-21.063-47.096-47.036-47.096-47.036 21.089-47.036 47.096S424.251 194 450.224 194"
  />
  <path fill="#e7e7ee" d="M450.224 99.807v47.096h-47.036" />
  <path
    stroke="#282839"
    stroke-linecap="round"
    stroke-linejoin="round"
    d="M450.224 99.807v47.096h-47.036"
  />
  <path fill="#e7e7ee" d="m467.374 103.02-17.15 43.883 33.195-33.338" />
  <path
    stroke="#282839"
    stroke-linecap="round"
    stroke-linejoin="round"
    d="m467.374 103.02-17.15 43.883 33.195-33.338"
  />
  <path
    fill="#0090a3"
    d="M423.709 145.208H239.774v149.063l105.925 2.266 105.84-2.266V145.208h-19.866"
  />
  <path
    stroke="#282839"
    stroke-linecap="round"
    stroke-linejoin="round"
    d="M423.709 145.208H239.774v149.063l105.925 2.266 105.84-2.266V145.208h-19.866"
  />
  <path
    fill="#3c3c56"
    stroke="#282839"
    stroke-linecap="round"
    stroke-linejoin="round"
    d="M451.539 294.271H239.774v20.489h211.765zM381.238 365.204h-72.872c-10.018 0-18.241 9.359-18.241 20.986H399.39c.086-11.627-8.049-20.986-18.152-20.986"
  />
  <path
    stroke="#282839"
    stroke-linecap="round"
    stroke-linejoin="round"
    d="M345.699 365.203V314.76M425.158 183.949v88.134M399.522 210.942v61.141M376.525 197.018v75.065M340.401 232.409v39.674M310.18 237.464v34.619M425.158 183.949l-25.559 26.993-22.997-13.924-36.123 35.468-30.222 4.979-27.81 34.618"
  />
  <path
    fill="#e7e7ee"
    stroke="#282839"
    stroke-linecap="round"
    stroke-linejoin="round"
    d="M425.158 187.681a3.733 3.733 0 0 1 0-7.466 3.733 3.733 0 0 1 0 7.466M399.522 214.597a3.73 3.73 0 0 1-3.728-3.734 3.73 3.73 0 0 1 3.728-3.733 3.73 3.73 0 0 1 3.728 3.733 3.73 3.73 0 0 1-3.728 3.734M376.525 201.061a3.732 3.732 0 0 1 0-7.466 3.734 3.734 0 0 1 0 7.466M340.402 236.146a3.734 3.734 0 0 1-3.729-3.737 3.73 3.73 0 0 1 3.729-3.733 3.73 3.73 0 0 1 3.728 3.733 3.734 3.734 0 0 1-3.728 3.737M310.18 241.356a3.73 3.73 0 0 1-3.728-3.737c0-2.06 1.67-3.733 3.728-3.733a3.73 3.73 0 0 1 3.728 3.733 3.73 3.73 0 0 1-3.728 3.737M282.447 275.816a3.73 3.73 0 0 1-3.728-3.733 3.73 3.73 0 0 1 3.728-3.733 3.73 3.73 0 0 1 3.728 3.733c0 2.06-1.67 3.733-3.728 3.733"
  />
  <path
    stroke="#282839"
    stroke-linecap="round"
    stroke-linejoin="round"
    d="M270.638 272.083h-6.061M270.638 262.281h-6.061M270.638 252.478h-6.061M270.638 242.676h-6.061M270.638 232.956h-6.061M270.638 223.154h-6.061M270.638 213.351h-6.061M270.638 203.549h-6.061M270.638 193.75h-6.061M270.638 183.949h-6.061"
  />
  <path
    fill="#3c3c56"
    d="M165.259 265.14q0-.065 0 0l32.322-13.299h.046l28.671 13.256.047 121.049c0 .043 0 .043-.047.043h-60.95c-.046 0-.046 0-.046-.043z"
  />
  <path
    stroke="#282839"
    stroke-linecap="round"
    stroke-linejoin="round"
    d="M165.259 265.14q0-.065 0 0m0 0 32.322-13.299h.046l28.671 13.256.047 121.049c0 .043 0 .043-.047.043h-60.95c-.046 0-.046 0-.046-.043z"
  />
  <path
    fill="#fff"
    stroke="#282839"
    stroke-linecap="round"
    stroke-linejoin="round"
    d="M280.435 202.218c0-.043-.046-.043-.046-.043l-36.938 11.886h-.046l-10.247-15.805c-3.166-4.847-8.53-7.796-14.335-7.796h-39.05c-5.585 0-10.599 3.302-12.843 8.413l-10.86 25.01c-3.739 8.63.923 18.141 9.147 21.001l.042.047v20.167c0 .042 0 .042.043.042h60.907c.047 0 .047 0 .047-.042V229.96s0-.047.042-.047h.047c3.43 6.43 10.991 9.426 17.94 7.09l43.231-14.265.042-.047v-.042z"
  />
  <path
    stroke="#282839"
    stroke-linecap="round"
    stroke-linejoin="round"
    d="M226.256 229.912v-13.869"
  />
  <path
    fill="#e7e7ee"
    d="M200.837 226.524c-.043.043 0 .043 0 0-.043.043-.09 0-.09 0l-10.727-28.006v-.046h21.501v.046z"
  />
  <path
    stroke="#282839"
    stroke-linecap="round"
    stroke-linejoin="round"
    d="M200.837 226.524c-.043.043 0 .043 0 0m0 0c-.043.043-.09 0-.09 0l-10.727-28.006v-.046h21.501v.046z"
  />
  <path
    fill="#fff"
    stroke="#282839"
    stroke-linecap="round"
    d="m215.261 181.608-1.934-3.434-.046-.043h-20.932l-4.837 7.09v.042c0 4.009-2.243 9.69-2.243 9.69 2.464 5.941 8.312 10.124 15.13 10.124 7.297 0 13.455-4.753 15.61-11.315.527-1.584.791-3.303.791-5.107.046-2.511-.527-4.89-1.539-7.047Z"
  />
  <path
    stroke="#282839"
    stroke-linecap="round"
    d="M208.886 186.63v6.166M204.487 192.796c0 1.23.969 2.2 2.198 2.2a2.18 2.18 0 0 0 2.201-2.2"
  />
  <path
    fill="#3c3c56"
    stroke="#282839"
    stroke-linecap="round"
    stroke-linejoin="round"
    d="M221.768 174.739c0-3.787-3.077-6.868-6.86-6.868-2.902 0-5.406 1.804-6.375 4.357l-.042.047h-8.05c-6.553 0-12.181 3.83-14.82 9.333a16.54 16.54 0 0 0-1.585 7.047c0 1.761.268 3.477.795 5.106.131.396.306.792.438 1.192l.042.042c4.004 0 7.212-3.259 7.212-7.264v-6.077c0-.046 0-.046.047-.046h22.691c3.604-.175 6.507-3.171 6.507-6.869"
  />
  <path
    stroke="#282839"
    stroke-linecap="round"
    stroke-linejoin="round"
    d="M210.73 219.039h9.809M200.616 300.721v-6.826M200.616 386.189v-79.127M165.259 244.93c1.585.528 3.298.834 5.1.834h45.386v-2.949c0-8.805-7.123-15.984-15.963-15.984l-23.702-.042c4.263 0 7.824-3.481 7.824-7.75"
  />
</svg>
