<svg width="650" height="487" viewBox="0 0 650 487" fill="none" xmlns="http://www.w3.org/2000/svg">
	<path d="M508.822 302.982C507.172 293.89 503.705 285.169 499.361 277.057C497.509 273.608 495.355 270.06 494.68 266.173C493.502 259.65 496.398 253.294 498.354 246.974C517.949 183.153 448.721 146.512 395.995 144.147C362.392 142.625 329.262 153.003 302.054 172.847C249.633 155.608 175.287 160.677 151.717 219.763C149.734 224.697 148.183 229.938 144.95 234.095C141.145 239.097 135.421 242.14 130.407 245.859C117.781 255.222 109.094 269.689 106.67 285.205C100.609 324.55 136.635 367.24 175.323 371.028C188.152 372.278 201.079 370.486 213.535 367.412C216.431 366.735 243.976 355.716 243.706 355.409C289.733 388.267 350.472 392.05 404.984 390.8C420.438 390.461 436.535 389.279 451.01 383.6C480.202 372.175 509.397 350.543 510 316.131C510 311.838 509.663 307.41 508.822 302.982Z" fill="#E9F9F9"/>
	<path d="M282.004 397.248L253.089 283.757L480.521 222.83L282.004 397.248Z" fill="#00B5C0" stroke="#333333" stroke-linecap="round" stroke-linejoin="round"/>
	<path d="M223.515 321.599L229.041 290.272L339.727 252.601L480.487 222.912L209.469 399.65L219.537 342.979" fill="#9AE4E3"/>
	<path d="M223.515 321.599L229.041 290.272L339.727 252.601L480.487 222.912L209.469 399.65L219.537 342.979" stroke="#333333" stroke-linecap="round" stroke-linejoin="round"/>
	<path d="M176.116 270.843L228.619 291.372L479.624 223.627L176.116 270.843Z" fill="#9AE4E3" stroke="#333333" stroke-linecap="round" stroke-linejoin="round"/>
	<path d="M311.229 187.822L331.813 179.167L354.939 176.397L381.407 188.55C385.577 190.469 388.826 193.958 390.419 198.231L410.171 250.509L386.472 256.704L369.323 211.225L336.447 195.17L317.655 223.183L333.146 270.642L309.447 276.837L292.54 225.632C290.812 220.327 291.695 214.524 294.999 210.029L311.229 187.822Z" fill="#3C3C56" stroke="#333333" stroke-linecap="round" stroke-linejoin="round"/>
	<path d="M273.733 119.187L276.495 141.612C277.347 148.648 283.971 153.557 290.944 152.308L304.742 149.897L310.581 188.294L354.285 176.867L348.817 142.798L355.483 150.084C359.988 155.016 367.744 155.067 372.373 150.23L392.596 129.448L381.782 118.955L363.322 137.149L356.142 129.598C352.497 125.771 347.186 124.06 341.997 125.018L290.678 134.719L286.771 100.374L271.764 103.059L273.309 115.667" fill="white"/>
	<path d="M273.733 119.187L276.495 141.612C277.347 148.648 283.971 153.557 290.944 152.308L304.742 149.897L310.581 188.294L354.285 176.867L348.817 142.798L355.483 150.084C359.988 155.016 367.744 155.067 372.373 150.23L392.596 129.448L381.782 118.955L363.322 137.149L356.142 129.598C352.497 125.771 347.186 124.06 341.997 125.018L290.678 134.719L286.771 100.374L271.764 103.059L273.309 115.667" stroke="#333333" stroke-linecap="round" stroke-linejoin="round"/>
	<path d="M315.34 132.278L314.383 128.59L318.406 127.539L316.395 119.79L327.544 116.878L335.14 118.523C336.294 119.901 337.16 121.535 337.633 123.357C337.966 124.641 338.084 125.938 338.022 127.236C337.692 132.456 334.078 137.115 328.774 138.5C323.8 139.8 318.733 137.849 315.791 134.015L315.599 133.273L315.34 132.278Z" fill="white" stroke="#333333" stroke-linecap="round" stroke-linejoin="round"/>
	<path d="M332.012 125.544L332.63 127.851" stroke="#333333" stroke-linecap="round" stroke-linejoin="round"/>
	<path d="M329.417 128.696C329.643 129.569 330.536 130.131 331.449 129.891C332.314 129.664 332.878 128.764 332.643 127.85" stroke="#333333" stroke-linecap="round" stroke-linejoin="round"/>
	<path d="M334.355 135.234C335.847 134.846 339.207 133.97 339.207 133.97C339.207 133.97 338.185 130.04 337.852 128.756C337.391 130.731 336.23 133.598 334.355 135.234Z" fill="#3C3C56" stroke="#333333" stroke-linecap="round" stroke-linejoin="round"/>
	<path d="M313.66 129.633C313.176 127.772 313.138 125.923 313.487 124.196C314.392 119.672 317.766 115.784 322.538 114.539C327.306 113.295 332.172 114.985 335.134 118.547L331.527 119.488C329.784 119.943 328.008 118.903 327.556 117.162C328.008 118.903 326.964 120.679 325.224 121.133L318.548 122.875L319.441 126.313L319.71 127.348L322.581 138.403L316.359 140.027L313.756 130.006C313.724 129.882 313.692 129.758 313.66 129.633Z" fill="#3C3C56" stroke="#333333" stroke-linecap="round" stroke-linejoin="round"/>
	<path d="M317.809 223.394L315.758 226.76" stroke="#333333" stroke-linecap="round" stroke-linejoin="round"/>
	<path d="M369.171 211.156L372.869 213.112" stroke="#333333" stroke-linecap="round" stroke-linejoin="round"/>
	</svg>
	