<svg width="189" height="323" viewBox="0 0 189 323" fill="none" xmlns="http://www.w3.org/2000/svg">
	<path d="M147.998 150.593V109.723C147.998 124.401 135.997 136.402 121.32 136.402L121.156 184.406C134.779 184.406 146.212 194.785 147.671 208.081V211.812L147.835 211.085C147.835 210.031 147.835 209.135 147.671 208.004V177.19C147.671 175.568 147.998 174.109 148.377 172.707C148.403 172.569 148.561 172.159 148.623 172.001C150.348 166.97 155.373 163.403 161.131 163.403C164.861 163.403 168.106 164.867 170.619 167.38C172.973 169.729 174.59 173.137 174.59 176.863V211.976C174.59 226.653 162.594 238.654 147.917 238.654V286.899H40.8789V54.3438C40.8789 46.964 46.8001 40.8841 54.3386 40.8841C57.9108 40.8841 61.3141 42.3427 63.8269 44.8555C66.3397 47.2097 67.8034 50.613 67.8034 54.3438V34.0724C67.8034 26.6926 73.7195 20.6128 81.263 20.6128C84.8301 20.6128 88.2334 22.0713 90.7513 24.5841C93.2641 26.9332 94.7227 30.3416 94.7227 34.0724V13.9597C94.7227 6.58501 100.644 0.5 108.182 0.5C111.749 0.5 115.158 1.95857 117.671 4.4765C120.184 6.82555 121.642 10.234 121.642 13.9597V108.751C121.642 94.078 133.643 82.0769 148.321 82.0769C162.999 82.0769 175 94.078 175 108.751V149.457C175 157.001 168.915 162.917 161.54 162.917C157.809 162.917 154.401 161.458 152.052 158.945C150.266 157.159 148.971 154.81 148.183 152.533C147.998 151.888 147.998 151.161 147.998 150.593Z" fill="white" stroke="#282839" stroke-linecap="round" stroke-linejoin="round"/>
	<path d="M147.67 208.163C147.834 209.058 147.834 210.113 147.834 211.244L147.67 211.975V208.163Z" fill="#F3F4F7" stroke="#282839" stroke-linecap="round" stroke-linejoin="round"/>
	<path d="M155.211 264.118H32.9326V282.035H155.211V264.118Z" fill="#A5A4BC" stroke="#282839" stroke-linecap="round" stroke-linejoin="round"/>
	<path d="M117.91 279.117H160.239V322.5H28.0684V279.117H106.395H117.91Z" fill="#3C3C56" stroke="#282839" stroke-linecap="round" stroke-linejoin="round"/>
	<path d="M139.401 307.66C143.162 307.66 146.212 304.61 146.212 300.849C146.212 297.087 143.162 294.037 139.401 294.037C135.639 294.037 132.589 297.087 132.589 300.849C132.589 304.61 135.639 307.66 139.401 307.66Z" fill="#F3F4F7" stroke="#282839" stroke-linecap="round" stroke-linejoin="round"/>
	<path d="M67.9189 161.254V142.037" stroke="#282839" stroke-linecap="round" stroke-linejoin="round"/>
	<path d="M67.8027 54.266V129.512" stroke="#282839" stroke-linecap="round" stroke-linejoin="round"/>
	<path d="M94.714 33.9377L93.9873 123.539" stroke="#282839" stroke-linecap="round" stroke-linejoin="round"/>
	<path d="M0.5 322.499H187.81" stroke="#282839" stroke-linecap="round" stroke-linejoin="round"/>
	<path d="M148.156 152.458C147.998 151.567 147.834 150.677 147.834 149.622V119.863C147.834 119.131 147.834 118.404 147.998 117.672V150.677C147.998 151.163 147.998 151.89 148.156 152.458Z" fill="#F3F4F7" stroke="#282839" stroke-linecap="round" stroke-linejoin="round"/>
	</svg>
	