<svg width="100" height="101" viewBox="0 0 100 101" fill="none" xmlns="http://www.w3.org/2000/svg">
<path d="M73.2738 71.9322L70.9438 52.4082L68.9358 51.2062L47.6037 51.4462L46.1057 52.4082L39.2097 74.1642C38.5317 76.4682 38.1797 78.7002 38.1797 80.9462V100.486H51.8137V79.6602L57.7177 61.0262L59.3857 71.5222C59.9377 74.9982 61.1937 78.3322 63.0737 81.3142L75.1958 100.5L86.8518 93.4502L73.2738 71.9322Z" fill="#3C3C56" stroke="#282839" stroke-linecap="round" stroke-linejoin="round"/>
<path d="M74.8282 38.4901L73.7262 25.8601L57.9601 23.6141C54.9921 23.1901 52.2081 25.1261 51.5441 28.0361L49.3981 37.6301L35.5801 47.5621L44.0561 49.8081L47.2921 47.0101L46.0921 52.3941H70.9282V45.0741C73.5142 43.9441 75.0682 41.2881 74.8282 38.4901Z" fill="white" stroke="#282839" stroke-linecap="round" stroke-linejoin="round"/>
<path d="M57.7176 61.0121L57.2236 58.1161" stroke="#282839" stroke-linecap="round" stroke-linejoin="round"/>
<path d="M47.3057 47.0242L48.7197 40.8362" stroke="#282839" stroke-linecap="round" stroke-linejoin="round"/>
<path d="M41.7538 51.0522L41.1038 51.1922C38.5898 51.7161 36.1158 50.0902 35.5938 47.5762L45.3838 45.5562C45.8938 48.0702 44.2678 50.5282 41.7538 51.0522Z" fill="white" stroke="#282839" stroke-linecap="round" stroke-linejoin="round"/>
<path d="M64.6275 39.4941L56.5595 0.500122L18.7094 8.32812L22.3414 25.8881C21.0694 24.9141 19.4034 24.4621 17.7074 24.8141C14.6134 25.4501 12.6214 28.4741 13.2714 31.5681C13.9074 34.6621 16.9294 36.6541 20.0234 36.0041C21.7194 35.6521 23.0754 34.5781 23.8674 33.1781L27.4834 50.7401L52.8875 45.4841L52.5055 44.2561L64.6275 39.4941Z" fill="#A5A4BC" stroke="#282839" stroke-linecap="round" stroke-linejoin="round"/>
<path d="M52.8877 45.4981L54.7377 51.6021L70.9437 45.0741" stroke="#282839" stroke-linecap="round" stroke-linejoin="round"/>
<path d="M64.6279 39.4941L68.0599 38.1381C66.5059 38.1381 65.2359 36.8661 65.2359 35.3121" stroke="#282839" stroke-linecap="round" stroke-linejoin="round"/>
<path d="M59.2153 16.4641C59.2153 16.4641 61.0953 14.1901 63.3133 14.4581C69.5853 15.2501 70.2073 17.8361 70.2073 17.8361C70.2073 17.8361 71.0273 23.5001 67.5233 26.3681C66.4773 26.8061 65.2913 26.9901 64.0753 26.8361C59.1313 26.2141 56.5313 20.6461 59.2153 16.4641Z" fill="white" stroke="#282839" stroke-linecap="round" stroke-linejoin="round"/>
<path d="M68.5112 17.6381L64.7832 17.1721C63.8072 17.0441 63.1152 16.1541 63.2292 15.1801C63.1012 16.1541 62.2112 16.8461 61.2352 16.7341L59.2012 16.4801C62.2672 11.6901 69.5432 12.5941 71.3372 18.0041C71.6632 19.0081 71.7752 20.0541 71.5912 21.1701H71.6072L71.4372 22.5261C73.3572 22.7661 74.7292 24.5181 74.4752 26.4401C74.2332 28.3601 72.4832 29.7321 70.5612 29.4781C68.6252 29.2361 67.2832 27.4561 67.5232 25.5641C67.7492 23.7261 68.3012 19.3901 68.5112 17.6381Z" fill="#3C3C56" stroke="#282839" stroke-linecap="round" stroke-linejoin="round"/>
<path d="M61.3914 20.0822L61.2354 21.3682" stroke="#282839" stroke-linecap="round" stroke-linejoin="round"/>
<path d="M63.0453 21.5942C62.9873 22.0882 62.5213 22.4422 62.0273 22.3842C61.5333 22.3282 61.1793 21.8622 61.2353 21.3682" stroke="#282839" stroke-linecap="round" stroke-linejoin="round"/>
</svg>
