<svg width="650" height="487" viewBox="0 0 650 487" fill="none" xmlns="http://www.w3.org/2000/svg">
	<path d="M118.055 263.428C124.531 280.186 135.802 294.109 147.99 307.087C152.563 312.015 157.751 316.256 163.302 320.135C162.205 332.926 162.578 345.794 165.49 358.484C169.6 376.311 180.355 393.448 194.458 405.105C223.347 428.896 260.636 435.74 297.056 430.921C332.169 426.309 368.112 417.8 400.902 404.157C418.108 397.037 434.976 388.909 450.051 377.687C465.354 366.225 477.811 353.589 488.84 338.093C494.576 330.004 499.437 321.399 503.317 312.187C523.858 276.1 530.754 233.459 522.012 192.035C511.345 141.761 474.002 95.7422 426.645 75.603C378.74 55.326 324.448 55.4172 275.779 73.2793C249.679 82.8529 225.144 96.2246 202.835 112.865C181.032 129.067 159.292 147.374 141.983 168.354C120.329 194.294 104.988 229.98 118.055 263.428Z" fill="#E9F9F9"/>
	<path d="M223.495 139.622L230.313 150.002L219.95 156.827" stroke="#282839" stroke-linecap="round" stroke-linejoin="round"/>
	<path d="M230.289 149.866C230.289 149.866 198.035 141.501 176.149 158.464" stroke="#282839" stroke-linecap="round" stroke-linejoin="round"/>
	<path d="M391.205 139.376L384.394 149.762L394.768 156.581" stroke="#282839" stroke-linecap="round" stroke-linejoin="round"/>
	<path d="M384.422 149.627C384.422 149.627 416.665 141.227 438.572 158.169" stroke="#282839" stroke-linecap="round" stroke-linejoin="round"/>
	<path d="M265.862 108.252C273.4 108.252 273.4 123.412 280.872 123.412C288.41 123.412 288.41 108.252 295.878 108.252C303.35 108.252 303.416 123.412 311.02 123.412C318.558 123.412 318.558 108.252 326.03 108.252C333.498 108.252 333.568 123.412 341.168 123.412C348.771 123.412 348.706 108.252 356.309 108.252" stroke="#282839" stroke-linecap="round" stroke-linejoin="round"/>
	<path d="M251.119 108.252H265.862" stroke="#282839" stroke-linecap="round" stroke-linejoin="round"/>
	<path d="M356.375 108.252H371.253" stroke="#282839" stroke-linecap="round" stroke-linejoin="round"/>
	<path d="M245.499 155.649L254.159 140.226L262.953 155.649H245.499Z" fill="#00778F" stroke="#282839" stroke-linecap="round" stroke-linejoin="round"/>
	<path d="M307.779 156.179C312.343 156.179 316.044 152.473 316.044 147.904C316.044 143.338 312.343 139.629 307.779 139.629C303.219 139.629 299.518 143.338 299.518 147.904C299.518 152.473 303.219 156.179 307.779 156.179Z" fill="#00778F" stroke="#282839" stroke-linecap="round" stroke-linejoin="round"/>
	<path d="M281.135 141.883V153.995" stroke="#282839" stroke-linecap="round" stroke-linejoin="round"/>
	<path d="M287.218 147.904H275.051" stroke="#282839" stroke-linecap="round" stroke-linejoin="round"/>
	<path d="M336.275 139.498H367.684" stroke="#282839" stroke-linecap="round" stroke-linejoin="round"/>
	<path d="M336.275 146.514H367.684" stroke="#282839" stroke-linecap="round" stroke-linejoin="round"/>
	<path d="M336.275 153.399H348.772" stroke="#282839" stroke-linecap="round" stroke-linejoin="round"/>
	<path d="M355.118 153.399H367.684" stroke="#282839" stroke-linecap="round" stroke-linejoin="round"/>
	<path d="M315.518 176.965H286.225V206.29H315.518V176.965Z" fill="#00B5C0" stroke="#282839" stroke-linecap="round" stroke-linejoin="round"/>
	<path d="M367.75 176.965H338.46V206.29H367.75V176.965Z" fill="#00B5C0" stroke="#282839" stroke-linecap="round" stroke-linejoin="round"/>
	<path d="M300.906 196.028C303.351 196.028 305.335 194.045 305.335 191.595C305.335 189.147 303.351 187.161 300.906 187.161C298.458 187.161 296.474 189.147 296.474 191.595C296.474 194.045 298.458 196.028 300.906 196.028Z" fill="white" stroke="#282839" stroke-linecap="round" stroke-linejoin="round"/>
	<path d="M353.072 196.028C355.517 196.028 357.501 194.045 357.501 191.595C357.501 189.147 355.517 187.161 353.072 187.161C350.624 187.161 348.64 189.147 348.64 191.595C348.64 194.045 350.624 196.028 353.072 196.028Z" fill="white" stroke="#282839" stroke-linecap="round" stroke-linejoin="round"/>
	<path d="M305.334 191.594H348.64" stroke="#282839" stroke-linecap="round" stroke-linejoin="round"/>
	<path d="M457.633 138.659C462.902 142.489 466.344 148.75 466.344 155.784C466.344 167.491 456.86 176.951 445.202 176.951C433.54 176.951 424.057 167.456 424.057 155.784C424.057 144.108 433.54 134.613 445.202 134.613C448.221 134.613 451.068 135.247 453.664 136.371" fill="#F3F4F7"/>
	<path d="M457.633 138.659C462.902 142.489 466.344 148.75 466.344 155.784C466.344 167.491 456.86 176.951 445.202 176.951C433.54 176.951 424.057 167.456 424.057 155.784C424.057 144.108 433.54 134.613 445.202 134.613C448.221 134.613 451.068 135.247 453.664 136.371" stroke="#282839" stroke-linecap="round" stroke-linejoin="round"/>
	<path d="M437.159 160.953L431.996 155.784L437.159 150.65" stroke="#282839" stroke-linecap="round" stroke-linejoin="round"/>
	<path d="M453.242 150.65L458.408 155.784L453.242 160.953" stroke="#282839" stroke-linecap="round" stroke-linejoin="round"/>
	<path d="M448.571 150.65L441.83 160.953" stroke="#282839" stroke-linecap="round" stroke-linejoin="round"/>
	<path d="M445.202 176.951V205.083" stroke="#282839" stroke-linecap="round" stroke-linejoin="round"/>
	<path d="M394.719 260.824H456.234L429.095 331.294H367.615L394.719 260.824Z" fill="#F3F4F7" stroke="#282839" stroke-linecap="round" stroke-linejoin="round"/>
	<path d="M430.4 327.713H361.053C359.08 327.713 357.477 329.318 357.477 331.294C357.477 333.274 359.08 334.879 361.053 334.879H430.4V327.713Z" fill="#F3F4F7" stroke="#282839" stroke-linecap="round" stroke-linejoin="round"/>
	<path d="M421.786 334.917L429.729 384.559" stroke="#282839" stroke-linecap="round" stroke-linejoin="round"/>
	<path d="M366.05 334.917L358.11 384.559" stroke="#282839" stroke-linecap="round" stroke-linejoin="round"/>
	<path d="M338.471 300.961H338.523H342.93H415.84C415.84 315.59 403.981 327.425 389.491 327.425H347.743L358.179 384.625H331.781L321.397 327.377L320.788 323.869L320.583 322.6C320.331 321.532 320.282 320.468 320.282 319.452C320.078 309.496 328.135 300.961 338.471 300.961Z" fill="#282839" stroke="#282839" stroke-linecap="round" stroke-linejoin="round"/>
	<path d="M430.127 261.084L368.009 278.306V300.961H430.127V261.084Z" fill="white" stroke="#282839" stroke-linecap="round" stroke-linejoin="round"/>
	<path d="M368.11 274.749V252.195C368.11 241.528 376.673 232.941 387.313 232.941H410.214C423.742 232.941 434.739 243.913 434.739 257.527V279.474C434.739 286.685 428.911 292.478 421.768 292.478H371.659H368.162H345.108C345.108 282.674 353.013 274.749 362.84 274.749H368.11Z" fill="white" stroke="#282839" stroke-linecap="round" stroke-linejoin="round"/>
	<path d="M415.13 292.478H383.31C383.31 282.674 391.215 274.749 400.993 274.749H415.13V261.184" stroke="#282839" stroke-linecap="round" stroke-linejoin="round"/>
	<path d="M376.066 266.367V261.084" stroke="#282839" stroke-linecap="round" stroke-linejoin="round"/>
	<path d="M376.066 292.478V270.329" stroke="#282839" stroke-linecap="round" stroke-linejoin="round"/>
	<path d="M404.795 226.032L405.048 234.11C405.048 237.209 405.958 240.613 408.999 240.967C406.516 245.439 401.703 248.586 396.18 248.586C388.023 248.586 381.437 241.934 381.437 233.804C381.437 231.367 382.247 228.473 383.362 226.49L404.795 226.032Z" fill="white" stroke="#282839" stroke-linecap="round" stroke-linejoin="round"/>
	<path d="M403.68 234.82V226.948H383.057C385.488 222.222 390.453 219.023 396.128 219.023C404.237 219.023 410.875 225.679 410.875 233.805C410.875 236.398 410.214 238.835 409.05 240.967C405.958 240.513 403.68 237.92 403.68 234.82Z" fill="#282839" stroke="#282839" stroke-linecap="round" stroke-linejoin="round"/>
	<path d="M389.594 231.062V237.157" stroke="#282839" stroke-linecap="round" stroke-linejoin="round"/>
	<path d="M389.594 237.157C389.594 238.377 390.605 239.292 391.72 239.292C392.936 239.292 393.85 238.325 393.85 237.157" stroke="#282839" stroke-linecap="round" stroke-linejoin="round"/>
	<path d="M338.623 307.818C341.968 303.703 346.982 300.961 352.861 300.961H352.909H357.317H430.179C430.179 315.59 418.323 327.425 403.832 327.425H362.082L372.469 384.625H346.123L334.821 322.6C333.81 317.012 335.431 311.78 338.623 307.818Z" fill="#282839" stroke="#282839" stroke-linecap="round" stroke-linejoin="round"/>
	<path d="M406.464 244.323L396.128 261.084" stroke="#282839" stroke-linecap="round" stroke-linejoin="round"/>
	<path d="M385.744 244.323L396.128 261.084" stroke="#282839" stroke-linecap="round" stroke-linejoin="round"/>
	<path d="M396.128 261.084V270.988" stroke="#282839" stroke-linecap="round" stroke-linejoin="round"/>
	<path d="M246.372 323.973H222.459V296.503H376.991V323.973H253.546" fill="#7D7D9B"/>
	<path d="M246.372 323.973H222.459V296.503H376.991V323.973H253.546" stroke="#282839" stroke-linecap="round" stroke-linejoin="round"/>
	<path d="M345.583 292.627H387.936V300.427H211.511V292.627H326.612" fill="#7D7D9B"/>
	<path d="M345.583 292.627H387.936V300.427H211.511V292.627H326.612" stroke="#282839" stroke-linecap="round" stroke-linejoin="round"/>
	<path d="M376.991 323.973V384.161" stroke="#282839" stroke-linecap="round" stroke-linejoin="round"/>
	<path d="M222.459 323.973V384.161" stroke="#282839" stroke-linecap="round" stroke-linejoin="round"/>
	<path d="M332.353 292.627H340.271" stroke="#282839" stroke-linecap="round" stroke-linejoin="round"/>
	<path d="M160.789 138.412C163.971 136.402 167.728 135.251 171.744 135.251C183.118 135.251 192.325 144.472 192.325 155.86C192.325 167.248 183.118 176.466 171.744 176.466C160.37 176.466 151.163 167.248 151.163 155.86C151.163 149.565 153.978 143.924 158.441 140.135" fill="#F3F4F7"/>
	<path d="M160.789 138.412C163.971 136.402 167.728 135.251 171.744 135.251C183.118 135.251 192.325 144.472 192.325 155.86C192.325 167.248 183.118 176.466 171.744 176.466C160.37 176.466 151.163 167.248 151.163 155.86C151.163 149.565 153.978 143.924 158.441 140.135" stroke="#282839" stroke-linecap="round" stroke-linejoin="round"/>
	<path d="M182.883 152.255C181.841 152.255 180.927 152.698 180.276 153.378V147.266H174.172C174.874 147.921 175.293 148.861 175.293 149.88C175.293 151.863 173.676 153.482 171.692 153.482C169.708 153.482 168.091 151.863 168.091 149.88C168.091 148.833 168.535 147.921 169.213 147.266H163.109V164.478H180.3V158.366C180.955 159.074 181.893 159.49 182.911 159.49C184.891 159.49 186.508 157.871 186.508 155.884C186.508 153.901 184.891 152.255 182.883 152.255Z" fill="#00B5C0" stroke="#282839" stroke-linecap="round" stroke-linejoin="round"/>
	<path d="M342.83 247.63H282.347L302.984 290.519H363.418L342.83 247.63Z" fill="#4B4B66" stroke="#282839" stroke-linecap="round" stroke-linejoin="round"/>
	<path d="M301.072 286.595H382.237V292.481H301.072V286.595Z" fill="#4B4B66" stroke="#282839" stroke-linecap="round" stroke-linejoin="round"/>
	<path d="M321.951 270.693C319.978 270.693 318.375 269.088 318.375 267.112C318.375 265.133 319.978 263.528 321.951 263.528C323.925 263.528 325.528 265.133 325.528 267.112C325.528 269.088 323.925 270.693 321.951 270.693Z" fill="white" stroke="#282839" stroke-linecap="round" stroke-linejoin="round"/>
	<path d="M299.532 238.186H275.651V215.39C275.651 204.158 266.575 195.072 255.357 195.072H251.604V195.113H228.876H227.228C208.707 195.113 193.735 210.145 193.735 228.646C193.735 239.178 198.6 248.593 206.189 254.747V274.444L251.604 284.564V303.519H275.651V262.262H299.532V238.186Z" fill="white" stroke="#282839" stroke-linecap="round" stroke-linejoin="round"/>
	<path d="M267.237 274.486H206.148V384.625H267.237V274.486Z" fill="#282839" stroke="#282839" stroke-linecap="round" stroke-linejoin="round"/>
	<path d="M243.644 317.105V293.275" stroke="#282839" stroke-linecap="round" stroke-linejoin="round"/>
	<path d="M243.644 384.667V322.846" stroke="#282839" stroke-linecap="round" stroke-linejoin="round"/>
	<path d="M267.237 238.121V224.847" stroke="#282839" stroke-linecap="round" stroke-linejoin="round"/>
	<path d="M267.237 274.486V262.262" stroke="#282839" stroke-linecap="round" stroke-linejoin="round"/>
	<path d="M227.186 262.262C219.264 262.262 211.965 259.496 206.231 254.913" stroke="#282839" stroke-linecap="round" stroke-linejoin="round"/>
	<path d="M275.651 262.262H232.546" stroke="#282839" stroke-linecap="round" stroke-linejoin="round"/>
	<path d="M256.306 186.194L256.514 183.715H231.518C230.649 183.715 229.949 184.419 229.908 185.285L229.7 191.685C229.7 195.859 229.288 200.15 225.123 200.15C227.681 206.345 232.217 210.682 242.033 210.682C253.335 210.682 261.711 197.509 256.306 186.194Z" fill="white" stroke="#282839" stroke-linecap="round"/>
	<path d="M249.751 191.411V197.81" stroke="#282839" stroke-linecap="round"/>
	<path d="M245.129 197.838C245.129 199.121 246.161 200.15 247.438 200.15C248.716 200.15 249.748 199.121 249.748 197.838" stroke="#282839" stroke-linecap="round"/>
	<path d="M263.113 179.049C263.113 175.083 259.893 171.904 255.977 171.904C252.923 171.904 250.367 173.804 249.336 176.449C249.211 176.449 240.797 176.449 240.922 176.449C228.709 176.449 220.462 188.918 225.091 200.171C229.329 200.112 232.712 196.725 232.712 192.555V186.152H256.347C260.1 186.027 263.113 182.89 263.113 179.049Z" fill="#282839" stroke="#282839" stroke-linecap="round" stroke-linejoin="round"/>
	<path d="M233.786 225.179C233.786 232.362 227.969 238.145 220.833 238.145H275.651" stroke="#282839" stroke-linecap="round" stroke-linejoin="round"/>
	<path d="M429.34 384.737H494.34" stroke="#282839" stroke-linecap="round" stroke-linejoin="round"/>
	<path d="M112.34 384.737L404.34 384.737" stroke="#282839" stroke-linecap="round" stroke-linejoin="round"/>
	</svg>
	