<svg width="650" height="487" viewBox="0 0 650 487" fill="none" xmlns="http://www.w3.org/2000/svg">
	<path d="M527.354 230.289C524.011 217.825 519.416 205.568 513.672 193.832C477.073 120.008 394.649 94.6945 317.347 96.0514C306.517 96.1895 295.792 96.8192 285.067 97.7252C258.011 99.9189 229.943 103.99 205.742 117.083C181.473 130.176 163.399 153.613 151.662 178.195C145.918 190.281 143.586 202.92 144.419 216.326C145.256 228.513 154.624 239.482 153.336 251.637C152.812 256.337 150.549 260.619 148.043 264.657C137.074 282.35 123.387 297.113 118.236 317.831C113.706 336.149 115.449 355.405 129.136 369.401C141.218 381.8 158.244 386.707 174.961 388.381C189.411 389.807 204.069 387.231 218.381 385.281C251.811 380.686 286.529 370.762 320.236 370.831C340.886 370.9 361.604 375.6 381.941 378.562C405.097 381.905 427.904 385.594 450.991 389.218C467.916 391.931 486.754 391.338 500.298 380.755C508.48 374.312 513.773 364.944 517.986 355.507C535.573 315.881 538.323 271.588 527.354 230.289Z" fill="#E9F9F9"/>
	<mask id="path-2-inside-1_27_8212" fill="white">
	<path d="M243.811 312.849V342.081C243.811 345.24 245.07 348.272 247.302 350.509C249.538 352.746 252.571 354 255.734 354H385.173C385.183 354 385.194 353.995 385.204 353.995C385.209 353.985 385.209 353.975 385.209 353.965V329.054C385.209 329.034 385.209 329.009 385.204 328.984L373.426 285.172C373.416 285.147 373.416 285.122 373.416 285.097V173.516C373.416 173.511 373.411 173.501 373.401 173.491C373.396 173.486 373.386 173.481 373.376 173.481H243.851C243.836 173.481 243.831 173.486 243.826 173.491C243.816 173.501 243.811 173.511 243.811 173.516V307.116"/>
	</mask>
	<path d="M243.811 312.849V342.081C243.811 345.24 245.07 348.272 247.302 350.509C249.538 352.746 252.571 354 255.734 354H385.173C385.183 354 385.194 353.995 385.204 353.995C385.209 353.985 385.209 353.975 385.209 353.965V329.054C385.209 329.034 385.209 329.009 385.204 328.984L373.426 285.172C373.416 285.147 373.416 285.122 373.416 285.097V173.516C373.416 173.511 373.411 173.501 373.401 173.491C373.396 173.486 373.386 173.481 373.376 173.481H243.851C243.836 173.481 243.831 173.486 243.826 173.491C243.816 173.501 243.811 173.511 243.811 173.516V307.116" fill="white"/>
	<path d="M247.302 350.509L246.594 351.215L246.594 351.216L247.302 350.509ZM385.204 353.995V354.995H385.822L386.098 354.442L385.204 353.995ZM385.204 328.984L386.184 328.788L386.178 328.756L386.169 328.724L385.204 328.984ZM373.426 285.172L374.392 284.913L374.376 284.856L374.354 284.801L373.426 285.172ZM373.401 173.491L372.694 174.198L373.401 173.491ZM242.811 312.849V342.081H244.811V312.849H242.811ZM242.811 342.081C242.811 345.506 244.176 348.792 246.594 351.215L248.009 349.803C245.964 347.753 244.811 344.974 244.811 342.081H242.811ZM246.594 351.216C249.019 353.641 252.306 355 255.734 355V353C252.836 353 250.057 351.851 248.009 349.802L246.594 351.216ZM255.734 355H385.173V353H255.734V355ZM385.173 355C385.216 355 385.254 354.997 385.286 354.994C385.318 354.99 385.345 354.986 385.365 354.982C385.386 354.978 385.403 354.974 385.413 354.972C385.418 354.971 385.423 354.97 385.426 354.969C385.429 354.968 385.431 354.968 385.431 354.968C385.432 354.967 385.431 354.968 385.43 354.968C385.428 354.968 385.425 354.969 385.421 354.97C385.413 354.972 385.399 354.975 385.381 354.979C385.362 354.982 385.338 354.986 385.309 354.989C385.279 354.992 385.244 354.995 385.204 354.995V352.995C385.161 352.995 385.123 352.998 385.091 353.001C385.059 353.005 385.032 353.009 385.012 353.013C384.991 353.017 384.974 353.021 384.964 353.023C384.959 353.024 384.954 353.025 384.951 353.026C384.948 353.027 384.946 353.027 384.946 353.027C384.945 353.028 384.946 353.027 384.947 353.027C384.949 353.027 384.952 353.026 384.956 353.025C384.964 353.023 384.978 353.02 384.996 353.016C385.015 353.013 385.039 353.009 385.068 353.006C385.098 353.003 385.133 353 385.173 353V355ZM386.098 354.442C386.162 354.313 386.189 354.194 386.2 354.104C386.206 354.062 386.207 354.026 386.208 354.004C386.209 353.983 386.209 353.965 386.209 353.965H384.209C384.209 354 384.194 353.778 384.309 353.548L386.098 354.442ZM386.209 353.965V329.054H384.209V353.965H386.209ZM386.209 329.054C386.209 329.044 386.211 328.924 386.184 328.788L384.223 329.18C384.213 329.131 384.21 329.093 384.209 329.074C384.208 329.055 384.209 329.042 384.209 329.054H386.209ZM386.169 328.724L374.392 284.913L372.46 285.432L384.238 329.243L386.169 328.724ZM374.354 284.801C374.393 284.897 374.407 284.981 374.412 285.035C374.417 285.08 374.416 285.117 374.416 285.097H372.416C372.416 285.098 372.405 285.313 372.497 285.544L374.354 284.801ZM374.416 285.097V173.516H372.416V285.097H374.416ZM374.416 173.516C374.416 173.251 374.311 173.063 374.281 173.009C374.23 172.92 374.169 172.845 374.108 172.784L372.694 174.198C372.642 174.146 372.589 174.081 372.544 174.001C372.521 173.961 372.494 173.906 372.47 173.839C372.45 173.781 372.416 173.666 372.416 173.516H374.416ZM374.108 172.784C373.928 172.603 373.668 172.481 373.376 172.481V174.481C373.22 174.481 373.091 174.443 372.996 174.403C372.906 174.364 372.797 174.301 372.694 174.198L374.108 172.784ZM373.376 172.481H243.851V174.481H373.376V172.481ZM243.851 172.481C243.73 172.481 243.563 172.501 243.388 172.589C243.304 172.631 243.238 172.678 243.19 172.718C243.167 172.737 243.149 172.754 243.137 172.765C243.132 172.771 243.127 172.775 243.124 172.778C243.121 172.781 243.119 172.784 243.119 172.784L244.533 174.198C244.54 174.19 244.44 174.299 244.281 174.378C244.113 174.462 243.957 174.481 243.851 174.481V172.481ZM243.119 172.784C243.057 172.845 242.997 172.92 242.946 173.009C242.916 173.062 242.811 173.25 242.811 173.516H244.811C244.811 173.666 244.776 173.781 244.756 173.84C244.733 173.907 244.705 173.961 244.683 174.001C244.637 174.082 244.584 174.146 244.533 174.198L243.119 172.784ZM242.811 173.516V307.116H244.811V173.516H242.811Z" fill="#282839" mask="url(#path-2-inside-1_27_8212)"/>
	<path d="M243.811 312.849V342.081C243.811 345.24 245.07 348.272 247.302 350.509C249.538 352.746 252.571 354 255.734 354H385.173C385.183 354 385.194 353.995 385.204 353.995C385.209 353.985 385.209 353.975 385.209 353.965V329.054C385.209 329.034 385.209 329.009 385.204 328.984L373.426 285.172C373.416 285.147 373.416 285.122 373.416 285.097V173.516C373.416 173.511 373.411 173.501 373.401 173.491C373.396 173.486 373.386 173.481 373.376 173.481H243.851C243.836 173.481 243.831 173.486 243.826 173.491C243.816 173.501 243.811 173.511 243.811 173.516V307.116" stroke="#282839" stroke-linecap="round" stroke-linejoin="round"/>
	<path d="M397.001 285.136H373.461C373.451 285.136 373.441 285.136 373.436 285.146C373.426 285.151 373.426 285.162 373.426 285.172V342.211C373.426 345.34 374.665 348.337 376.876 350.549C379.088 352.76 382.085 353.999 385.209 353.999C388.337 353.999 391.334 352.76 393.546 350.549C395.757 348.337 397.001 345.34 397.001 342.211V336.025C397.001 336.005 397.001 335.98 397.011 335.96L408.769 305.221C408.779 305.201 408.784 305.176 408.784 305.15V285.172C408.784 285.162 408.779 285.151 408.774 285.146C408.764 285.136 408.759 285.136 408.749 285.136H397.001Z" fill="white" stroke="#282839" stroke-linecap="round" stroke-linejoin="round"/>
	<path d="M420.607 318.742C420.597 318.737 420.587 318.732 420.582 318.727C420.572 318.716 420.572 318.706 420.572 318.696V296.919C420.572 293.791 419.327 290.794 417.121 288.587C414.91 286.376 411.912 285.136 408.784 285.136C405.661 285.136 402.658 286.376 400.452 288.587C398.235 290.794 396.996 293.791 396.996 296.919V335.955C396.996 335.965 397.001 335.975 397.006 335.98C397.011 335.985 397.026 335.99 397.031 335.99H433.679C433.689 335.99 433.699 335.985 433.704 335.98C433.71 335.975 433.715 335.965 433.715 335.955V322.56C433.715 322.55 433.71 322.54 433.704 322.53C433.699 322.525 433.689 322.52 433.679 322.515L420.607 318.742Z" fill="#3C3C56" stroke="#282839" stroke-linecap="round" stroke-linejoin="round"/>
	<path d="M420.572 318.878C420.572 318.868 420.577 318.858 420.582 318.853C420.587 318.848 420.597 318.842 420.613 318.842H450.903C450.913 318.842 450.918 318.848 450.928 318.853C450.933 318.858 450.938 318.868 450.938 318.878C450.918 331.844 441.261 335.99 433.972 335.99C426.668 335.99 420.572 330.066 420.572 322.807V318.878Z" fill="white" stroke="#282839" stroke-linecap="round" stroke-linejoin="round"/>
	<path d="M330.99 212.092H347.382" stroke="#282839" stroke-linecap="round" stroke-linejoin="round"/>
	<path d="M283.496 212.092H321.534" stroke="#282839" stroke-linecap="round" stroke-linejoin="round"/>
	<path d="M269.749 238.041H347.382" stroke="#282839" stroke-linecap="round" stroke-linejoin="round"/>
	<path d="M269.749 263.985H347.382" stroke="#282839" stroke-linecap="round" stroke-linejoin="round"/>
	<path d="M338.768 289.928H347.382" stroke="#282839" stroke-linecap="round" stroke-linejoin="round"/>
	<path d="M269.749 289.928H330.159" stroke="#282839" stroke-linecap="round" stroke-linejoin="round"/>
	<path d="M309.218 264.594C309.218 264.589 309.223 264.589 309.228 264.584C309.228 264.584 309.239 264.584 309.244 264.584C309.244 264.584 309.254 264.584 309.259 264.584C309.259 264.589 309.264 264.589 309.269 264.594L332.351 287.681C332.356 287.686 332.361 287.686 332.361 287.696C332.366 287.696 332.366 287.701 332.366 287.706C332.366 287.711 332.366 287.716 332.361 287.721C332.361 287.726 332.356 287.731 332.351 287.731L330.185 289.902C330.179 289.907 330.174 289.913 330.174 289.913C330.164 289.918 330.159 289.918 330.159 289.918C330.149 289.918 330.149 289.918 330.144 289.913C330.139 289.913 330.134 289.907 330.134 289.902C324.412 284.205 316.548 283.565 312.871 283.621C312.251 283.646 311.641 283.5 311.102 283.197C310.568 282.89 310.125 282.442 309.833 281.903L303.612 270.251C303.607 270.241 303.602 270.231 303.607 270.221C303.607 270.211 303.612 270.201 303.617 270.196L309.218 264.594Z" fill="#3C3C56" stroke="#282839" stroke-linecap="round" stroke-linejoin="round"/>
	<mask id="path-15-inside-2_27_8212" fill="white">
	<path d="M229.741 178.881L273.719 222.853C271.94 231.175 268.132 233.981 259.639 236.938L201.979 179.284C200.11 177.42 199.062 174.881 199.062 172.241C199.062 169.601 200.11 167.068 201.979 165.199C203.848 163.335 206.382 162.282 209.022 162.282C211.661 162.282 214.195 163.335 216.064 165.199L226.124 175.264"/>
	</mask>
	<path d="M229.741 178.881L273.719 222.853C271.94 231.175 268.132 233.981 259.639 236.938L201.979 179.284C200.11 177.42 199.062 174.881 199.062 172.241C199.062 169.601 200.11 167.068 201.979 165.199C203.848 163.335 206.382 162.282 209.022 162.282C211.661 162.282 214.195 163.335 216.064 165.199L226.124 175.264" fill="#04C6CD"/>
	<path d="M273.719 222.853L274.696 223.062L274.81 222.53L274.426 222.146L273.719 222.853ZM259.639 236.938L258.932 237.645L259.375 238.089L259.967 237.882L259.639 236.938ZM201.979 179.284L202.686 178.576L202.685 178.575L201.979 179.284ZM201.979 165.199L201.273 164.491L201.272 164.492L201.979 165.199ZM216.064 165.199L216.771 164.492L216.77 164.491L216.064 165.199ZM229.034 179.588L273.011 223.56L274.426 222.146L230.448 178.173L229.034 179.588ZM272.741 222.644C271.879 226.678 270.553 229.251 268.51 231.18C266.436 233.138 263.532 234.523 259.31 235.994L259.967 237.882C264.238 236.395 267.485 234.899 269.883 232.634C272.312 230.341 273.78 227.35 274.696 223.062L272.741 222.644ZM260.346 236.231L202.686 178.576L201.272 179.991L258.932 237.645L260.346 236.231ZM202.685 178.575C201.006 176.9 200.062 174.617 200.062 172.241H198.062C198.062 175.145 199.215 177.939 201.273 179.992L202.685 178.575ZM200.062 172.241C200.062 169.866 201.005 167.587 202.686 165.906L201.272 164.492C199.215 166.548 198.062 169.336 198.062 172.241H200.062ZM202.685 165.907C204.368 164.229 206.648 163.282 209.022 163.282V161.282C206.116 161.282 203.328 162.441 201.273 164.491L202.685 165.907ZM209.022 163.282C211.395 163.282 213.676 164.229 215.358 165.907L216.77 164.491C214.715 162.441 211.927 161.282 209.022 161.282V163.282ZM215.357 165.906L225.417 175.971L226.831 174.557L216.771 164.492L215.357 165.906Z" fill="#282839" mask="url(#path-15-inside-2_27_8212)"/>
	<path d="M229.741 178.881L273.719 222.853C271.94 231.175 268.132 233.981 259.639 236.938L201.979 179.284C200.11 177.42 199.062 174.881 199.062 172.241C199.062 169.601 200.11 167.068 201.979 165.199C203.848 163.335 206.382 162.282 209.022 162.282C211.661 162.282 214.195 163.335 216.064 165.199L226.124 175.264" fill="#3C3C56"/>
	<path d="M229.741 178.881L273.719 222.853C271.94 231.175 268.132 233.981 259.639 236.938L201.979 179.284C200.11 177.42 199.062 174.881 199.062 172.241C199.062 169.601 200.11 167.068 201.979 165.199C203.848 163.335 206.382 162.282 209.022 162.282C211.661 162.282 214.195 163.335 216.064 165.199L226.124 175.264" stroke="#282839" stroke-linecap="round" stroke-linejoin="round"/>
	<path d="M311.445 260.579C312.523 261.657 313.122 263.118 313.122 264.639C313.122 266.155 312.523 267.616 311.445 268.694L305.475 274.664C304.402 275.737 302.941 276.341 301.42 276.341C299.894 276.341 298.433 275.737 297.36 274.664L266.439 243.744C269.402 234.797 272.56 231.336 280.524 229.659L311.445 260.579Z" fill="#3C3C56" stroke="#282839" stroke-linecap="round" stroke-linejoin="round"/>
	<path d="M273.719 222.858L259.634 236.938L263.034 240.338L277.119 226.258L273.719 222.858Z" fill="white" stroke="#282839" stroke-linecap="round" stroke-linejoin="round"/>
	<path d="M277.119 226.258L263.039 240.338L266.439 243.744L280.519 229.664L277.119 226.258Z" fill="white" stroke="#282839" stroke-linecap="round" stroke-linejoin="round"/>
	<path d="M330.401 151.93C336.182 151.93 340.866 147.247 340.866 141.465C340.866 135.687 336.182 131 330.401 131C324.623 131 319.936 135.687 319.936 141.465C319.936 147.247 324.623 151.93 330.401 151.93Z" fill="#3C3C56" stroke="#282839" stroke-linecap="round" stroke-linejoin="round"/>
	<path d="M359.856 138.776H337.403C336.323 138.776 335.286 139.204 334.523 139.968C333.76 140.731 333.331 141.768 333.331 142.844C333.331 143.924 333.76 144.961 334.523 145.72C335.286 146.484 336.323 146.916 337.403 146.916H327.136C325.937 146.916 324.785 147.391 323.939 148.237C323.089 149.086 322.614 150.235 322.614 151.434C322.614 152.632 323.089 153.784 323.939 154.63C324.785 155.48 325.937 155.955 327.136 155.955H363.078C365.353 155.955 367.539 155.052 369.151 153.439C370.761 151.826 371.668 149.644 371.668 147.366C371.668 145.087 370.761 142.898 369.151 141.289C367.539 139.676 365.353 138.772 363.078 138.772" fill="#E7E7EE"/>
	<path d="M359.856 138.776H337.403C336.323 138.776 335.286 139.204 334.523 139.968C333.76 140.731 333.331 141.768 333.331 142.844C333.331 143.924 333.76 144.961 334.523 145.72C335.286 146.484 336.323 146.916 337.403 146.916H327.136C325.937 146.916 324.785 147.391 323.939 148.237C323.089 149.086 322.614 150.235 322.614 151.434C322.614 152.632 323.089 153.784 323.939 154.63C324.785 155.48 325.937 155.955 327.136 155.955H363.078C365.353 155.955 367.539 155.052 369.151 153.439C370.761 151.826 371.668 149.644 371.668 147.366C371.668 145.087 370.761 142.898 369.151 141.289C367.539 139.676 365.353 138.772 363.078 138.772" stroke="#282839" stroke-linecap="round" stroke-linejoin="round"/>
	<path d="M343.379 146.916H346.5" stroke="#282839" stroke-linecap="round" stroke-linejoin="round"/>
	<path d="M337.403 146.916H342.094" stroke="#282839" stroke-linecap="round" stroke-linejoin="round"/>
	<path d="M399.565 188.369C395.767 195.267 389.416 200.408 381.878 202.687C374.336 204.962 366.204 204.199 359.216 200.559C352.236 196.912 346.954 190.681 344.506 183.196C342.058 175.708 342.638 167.561 346.123 160.495C349.608 153.428 355.717 148.01 363.147 145.393C370.574 142.779 378.735 143.171 385.878 146.498C393.02 149.821 398.578 155.807 401.361 163.177C404.144 170.546 403.932 178.711 400.771 185.925" fill="#00778F"/>
	<path d="M399.565 188.369C395.767 195.267 389.416 200.408 381.878 202.687C374.336 204.962 366.204 204.199 359.216 200.559C352.236 196.912 346.954 190.681 344.506 183.196C342.058 175.708 342.638 167.561 346.123 160.495C349.608 153.428 355.717 148.01 363.147 145.393C370.574 142.779 378.735 143.171 385.878 146.498C393.02 149.821 398.578 155.807 401.361 163.177C404.144 170.546 403.932 178.711 400.771 185.925" stroke="#282839" stroke-linecap="round" stroke-linejoin="round"/>
	<path d="M373 143.471V204.08" stroke="#282839" stroke-linecap="round" stroke-linejoin="round"/>
	<path d="M360.094 173.775H342.695" stroke="#282839" stroke-linecap="round" stroke-linejoin="round"/>
	<path d="M403.305 173.775H363.564" stroke="#282839" stroke-linecap="round" stroke-linejoin="round"/>
	<path d="M373 204.08C381.845 204.08 389.013 190.512 389.013 173.775C389.013 157.039 381.845 143.471 373 143.471C364.155 143.471 356.987 157.039 356.987 173.775C356.987 190.512 364.155 204.08 373 204.08Z" stroke="#282839" stroke-linecap="round" stroke-linejoin="round"/>
	<path d="M392.458 150.588C388.606 155.588 381.334 158.958 373 158.958C364.648 158.958 357.365 155.574 353.521 150.562" stroke="#282839" stroke-linecap="round" stroke-linejoin="round"/>
	<path d="M353.521 196.992C353.942 196.445 354.395 195.919 354.881 195.429C358.949 191.286 365.552 188.593 373 188.593C381.352 188.593 388.635 191.977 392.48 196.992" stroke="#282839" stroke-linecap="round" stroke-linejoin="round"/>
	<path d="M403.913 173.775H437.188" stroke="#282839" stroke-linecap="round" stroke-linejoin="round"/>
	<path d="M308.895 173.775H342.087" stroke="#282839" stroke-linecap="round" stroke-linejoin="round"/>
	<path d="M296.792 187.57C304.409 187.57 310.583 181.393 310.583 173.775C310.583 166.158 304.409 159.984 296.792 159.984C289.174 159.984 283 166.158 283 173.775C283 181.393 289.174 187.57 296.792 187.57Z" fill="white" stroke="#282839" stroke-linecap="round" stroke-linejoin="round"/>
	<path d="M291.723 173.775L300.456 169.016" stroke="#282839" stroke-linecap="round" stroke-linejoin="round"/>
	<path d="M291.723 173.775L300.456 178.535" stroke="#282839" stroke-linecap="round" stroke-linejoin="round"/>
	<path d="M291.722 175.845C292.864 175.845 293.789 174.917 293.789 173.775C293.789 172.631 292.864 171.705 291.722 171.705C290.578 171.705 289.652 172.631 289.652 173.775C289.652 174.917 290.578 175.845 291.722 175.845Z" fill="#00778F" stroke="#282839" stroke-linecap="round" stroke-linejoin="round"/>
	<path d="M300.456 171.086C301.601 171.086 302.526 170.161 302.526 169.016C302.526 167.875 301.601 166.946 300.456 166.946C299.315 166.946 298.39 167.875 298.39 169.016C298.39 170.161 299.315 171.086 300.456 171.086Z" fill="#00778F" stroke="#282839" stroke-linecap="round" stroke-linejoin="round"/>
	<path d="M300.456 180.604C301.601 180.604 302.526 179.679 302.526 178.534C302.526 177.393 301.601 176.464 300.456 176.464C299.315 176.464 298.39 177.393 298.39 178.534C298.39 179.679 299.315 180.604 300.456 180.604Z" fill="#00778F" stroke="#282839" stroke-linecap="round" stroke-linejoin="round"/>
	<path d="M449.208 187.57C456.826 187.57 463 181.393 463 173.775C463 166.158 456.826 159.984 449.208 159.984C441.591 159.984 435.413 166.158 435.413 173.775C435.413 181.393 441.591 187.57 449.208 187.57Z" fill="white" stroke="#282839" stroke-linecap="round" stroke-linejoin="round"/>
	<path d="M449.208 172.306C450.745 172.306 451.991 171.061 451.991 169.52C451.991 167.983 450.745 166.737 449.208 166.737C447.667 166.737 446.422 167.983 446.422 169.52C446.422 171.061 447.667 172.306 449.208 172.306Z" fill="#00778F" stroke="#282839" stroke-linecap="round" stroke-linejoin="round"/>
	<path d="M454.468 180.817H443.971C443.964 180.817 443.964 180.817 443.96 180.813C443.96 180.813 443.956 180.813 443.956 180.81C443.953 180.81 443.949 180.806 443.949 180.802C443.949 180.802 443.949 180.799 443.949 180.795V179.582C443.949 178.891 444.082 178.207 444.349 177.57C444.612 176.932 445 176.353 445.486 175.863C445.976 175.377 446.556 174.988 447.196 174.726C447.834 174.459 448.518 174.322 449.209 174.322C450.602 174.322 451.941 174.877 452.928 175.863C453.914 176.85 454.468 178.189 454.468 179.582V180.817Z" fill="#00778F" stroke="#282839" stroke-linecap="round" stroke-linejoin="round"/>
	<path d="M420.963 190.645H392.613C392.026 190.645 391.439 190.76 390.895 190.987C390.355 191.21 389.859 191.541 389.445 191.959C389.027 192.376 388.696 192.87 388.469 193.413C388.246 193.957 388.127 194.54 388.127 195.127C388.127 195.717 388.246 196.3 388.469 196.844C388.696 197.391 389.027 197.884 389.445 198.298C389.859 198.716 390.355 199.047 390.895 199.27C391.439 199.497 392.026 199.612 392.613 199.612H398.002C397.725 199.612 397.451 199.666 397.192 199.774C396.936 199.879 396.702 200.037 396.508 200.232C396.31 200.43 396.155 200.66 396.047 200.919C395.943 201.175 395.889 201.448 395.889 201.729C395.889 202.287 396.112 202.827 396.508 203.223C396.904 203.619 397.444 203.842 398.002 203.842H411.534C412.096 203.842 412.636 203.619 413.032 203.223C413.428 202.827 413.651 202.287 413.651 201.729C413.651 201.168 413.428 200.628 413.032 200.232C412.636 199.836 412.096 199.612 411.534 199.612H423.292C423.882 199.612 424.465 199.497 425.009 199.27C425.553 199.047 426.046 198.716 426.463 198.298C426.881 197.884 427.212 197.391 427.435 196.844C427.662 196.3 427.777 195.717 427.777 195.127C427.777 194.54 427.662 193.957 427.435 193.413C427.212 192.87 426.881 192.376 426.463 191.959C426.046 191.541 425.553 191.21 425.009 190.987C424.465 190.76 423.882 190.645 423.292 190.645" fill="#E7E7EE"/>
	<path d="M420.963 190.645H392.613C392.026 190.645 391.439 190.76 390.895 190.987C390.355 191.21 389.859 191.541 389.445 191.959C389.027 192.376 388.696 192.87 388.469 193.413C388.246 193.957 388.127 194.54 388.127 195.127C388.127 195.717 388.246 196.3 388.469 196.844C388.696 197.391 389.027 197.884 389.445 198.298C389.859 198.716 390.355 199.047 390.895 199.27C391.439 199.497 392.026 199.612 392.613 199.612H398.002C397.725 199.612 397.451 199.666 397.192 199.774C396.936 199.879 396.702 200.037 396.508 200.232C396.31 200.43 396.155 200.66 396.047 200.919C395.943 201.175 395.889 201.448 395.889 201.729C395.889 202.287 396.112 202.827 396.508 203.223C396.904 203.619 397.444 203.842 398.002 203.842H411.534C412.096 203.842 412.636 203.619 413.032 203.223C413.428 202.827 413.651 202.287 413.651 201.729C413.651 201.168 413.428 200.628 413.032 200.232C412.636 199.836 412.096 199.612 411.534 199.612H423.292C423.882 199.612 424.465 199.497 425.009 199.27C425.553 199.047 426.046 198.716 426.463 198.298C426.881 197.884 427.212 197.391 427.435 196.844C427.662 196.3 427.777 195.717 427.777 195.127C427.777 194.54 427.662 193.957 427.435 193.413C427.212 192.87 426.881 192.376 426.463 191.959C426.046 191.541 425.553 191.21 425.009 190.987C424.465 190.76 423.882 190.645 423.292 190.645" stroke="#282839" stroke-linecap="round" stroke-linejoin="round"/>
	<path d="M397.908 199.612H400.443" stroke="#282839" stroke-linecap="round" stroke-linejoin="round"/>
	<path d="M408.367 199.612H407.1" stroke="#282839" stroke-linecap="round" stroke-linejoin="round"/>
	<path d="M411.534 199.612H409.579" stroke="#282839" stroke-linecap="round" stroke-linejoin="round"/>
	<path d="M411.314 143.384C411.311 143.387 411.307 143.395 411.307 143.402C411.304 143.405 411.307 143.409 411.307 143.416L414.662 150.541C414.67 150.551 414.677 150.551 414.68 150.541L424.519 131.018C424.523 131.007 424.519 131.007 424.512 131.014L411.314 143.384Z" fill="white" stroke="#282839" stroke-linecap="round" stroke-linejoin="round"/>
	<path d="M413.511 143.946C413.507 143.946 413.507 143.946 413.503 143.946C413.5 143.946 413.5 143.942 413.5 143.939C413.496 143.935 413.496 143.935 413.5 143.931C413.5 143.931 413.5 143.928 413.503 143.928L424.512 131.015C424.519 131.007 424.527 131.007 424.523 131.022L421.776 145.868C421.776 145.872 421.776 145.872 421.776 145.875C421.773 145.875 421.773 145.879 421.769 145.879C421.765 145.883 421.765 145.883 421.762 145.883C421.758 145.883 421.758 145.883 421.755 145.883L413.511 143.946Z" fill="white" stroke="#282839" stroke-linecap="round" stroke-linejoin="round"/>
	<path d="M424.509 131.011C424.52 131.004 424.52 131.007 424.512 131.015L412.154 143.478C412.146 143.481 412.143 143.485 412.136 143.485C412.128 143.489 412.125 143.489 412.118 143.489L404.853 142.686C404.842 142.682 404.842 142.679 404.853 142.671L424.509 131.011Z" fill="white" stroke="#282839" stroke-linecap="round" stroke-linejoin="round"/>
	<path d="M413.503 143.928C413.496 143.935 413.492 143.949 413.492 143.964L414.67 150.537C414.67 150.548 414.67 150.552 414.662 150.541L411.307 143.416C411.307 143.409 411.304 143.406 411.307 143.398C411.307 143.391 411.311 143.388 411.314 143.384L424.512 131.011C424.519 131.007 424.519 131.007 424.512 131.014L413.503 143.928Z" fill="white" stroke="#282839" stroke-linecap="round" stroke-linejoin="round"/>
	<path d="M342.53 184.078C342.53 184.078 332.27 194.734 338.721 201.351C350.511 213.443 392.318 179.092 411.3 150.483" stroke="#282839" stroke-linecap="round" stroke-linejoin="round"/>
	</svg>
	