<svg width="650" height="488" viewBox="0 0 650 488" fill="none" xmlns="http://www.w3.org/2000/svg">
	<path d="M565.16 210.843C560.389 197.361 552.818 185.013 542.234 175.091C504.627 139.756 445.853 137.2 398.455 150.181C382.934 154.449 368.041 160.939 353.777 168.266C341.77 174.422 330.1 181.159 317.801 186.602C303.828 192.129 289.397 196.063 274.588 198.368C259.402 200.084 244.091 200.168 228.905 198.452C215.266 196.23 202.048 191.794 188.409 189.744C172.387 187.355 156.281 187.86 141.014 194.012C126.456 199.834 113.068 208.247 102.484 220.013C91.3158 232.445 83.2428 247.058 78.6396 263.092C69.6874 294.489 74.04 329.616 88.6817 358.628C96.1697 373.408 108.05 386.763 122.438 395.05C139.299 404.849 158.918 407.485 177.742 402.627C195.73 397.94 212.675 387.767 229.239 379.52C247.561 370.478 269.233 354.443 290.189 353.937C306.546 353.519 322.819 362.562 337.922 367.838C355.91 374.161 374.821 376.797 393.855 376.546C410.713 376.295 427.527 374.412 444.222 372.445C486.221 367.587 529.1 358.712 555.539 322.457C578.882 290.428 582.479 246.345 565.16 210.843Z" fill="#E9F9F9"/>
	<path d="M72.2227 409.594H452.038" stroke="#282839" stroke-linecap="round" stroke-linejoin="round"/>
	<path d="M505.688 409.594H564.777" stroke="#282839" stroke-linecap="round" stroke-linejoin="round"/>
	<path d="M72.2227 416.248H255.714" stroke="#282839" stroke-linecap="round" stroke-linejoin="round"/>
	<path d="M386.222 271.984H344.175C342.225 271.984 340.641 270.4 340.641 268.45V265.728C340.641 263.778 342.225 262.194 344.175 262.194H386.222V271.984Z" fill="#A5A4BC" stroke="#282839" stroke-linecap="round" stroke-linejoin="round"/>
	<path d="M362.253 252.566L324.756 271.619C323.009 272.513 320.856 271.822 319.962 270.075L318.743 267.678C317.85 265.931 318.54 263.778 320.287 262.884L357.784 243.831L362.253 252.566Z" fill="#A5A4BC" stroke="#282839" stroke-linecap="round" stroke-linejoin="round"/>
	<path d="M534.99 197.112L551.809 195.447L561.356 187.484L559.731 181.391L568.79 171.803L563.428 165.872L570.821 156.65L563.265 152.953L564.2 144.178" stroke="#282839" stroke-linecap="round" stroke-linejoin="round"/>
	<path d="M551.809 195.447L567.693 208.447L576.427 206.538L576.346 217.181L584.877 222.259V232.781" stroke="#282839" stroke-linecap="round" stroke-linejoin="round"/>
	<path d="M282.709 178.1V218.481" stroke="#282839" stroke-linecap="round" stroke-linejoin="round"/>
	<path d="M276.412 187.809V204.384" stroke="#282839" stroke-linecap="round" stroke-linejoin="round"/>
	<path d="M264.834 184.316V198.291" stroke="#282839" stroke-linecap="round" stroke-linejoin="round"/>
	<path d="M264.834 173.753V180.05" stroke="#282839" stroke-linecap="round" stroke-linejoin="round"/>
	<path d="M302.639 213.176L254.633 219.659L261.693 271.927L309.7 265.44L302.639 213.176Z" fill="#00778F" stroke="#282839" stroke-linecap="round" stroke-linejoin="round"/>
	<path d="M253.955 214.646L258.431 247.792C259.731 257.396 253.341 266.22 244.192 267.459L260.788 265.216L292.199 260.971C301.348 259.732 307.738 250.908 306.438 241.304L301.961 208.158L253.955 214.646Z" fill="white" stroke="#282839" stroke-linecap="round" stroke-linejoin="round"/>
	<path d="M272.963 230.25C271.968 229.608 289.879 243.803 289.879 243.803L272.963 230.25Z" fill="white"/>
	<path d="M272.963 230.25C271.968 229.608 289.879 243.803 289.879 243.803" stroke="#282839" stroke-linecap="round" stroke-linejoin="round"/>
	<path d="M287.698 228.26C288.299 227.228 274.982 245.814 274.982 245.814L287.698 228.26Z" fill="white"/>
	<path d="M287.698 228.26C288.299 227.228 274.982 245.814 274.982 245.814" stroke="#282839" stroke-linecap="round" stroke-linejoin="round"/>
	<path d="M306.072 201.374L248.189 209.194L249.693 220.33L307.575 212.505L306.072 201.374Z" fill="#00778F" stroke="#282839" stroke-linecap="round" stroke-linejoin="round"/>
	<path d="M180.294 209.422L167.05 185.778L178.506 170.787H190.165L208.569 179.806V203.45L180.294 209.422Z" fill="#7D7D9B" stroke="#282839" stroke-linecap="round" stroke-linejoin="round"/>
	<path d="M174.443 198.981H208.568" stroke="#282839" stroke-linecap="round" stroke-linejoin="round"/>
	<path d="M175.865 189.475H208.568" stroke="#282839" stroke-linecap="round" stroke-linejoin="round"/>
	<path d="M171.519 179.928H208.569" stroke="#282839" stroke-linecap="round" stroke-linejoin="round"/>
	<path d="M182.894 198.981V204.506" stroke="#282839" stroke-linecap="round" stroke-linejoin="round"/>
	<path d="M182.894 183.909V189.475" stroke="#282839" stroke-linecap="round" stroke-linejoin="round"/>
	<path d="M196.625 198.981V205.969" stroke="#282839" stroke-linecap="round" stroke-linejoin="round"/>
	<path d="M196.625 179.928V185.616" stroke="#282839" stroke-linecap="round" stroke-linejoin="round"/>
	<path d="M190.044 192.806V198.981" stroke="#282839" stroke-linecap="round" stroke-linejoin="round"/>
	<path d="M190.044 175.866V179.928" stroke="#282839" stroke-linecap="round" stroke-linejoin="round"/>
	<path d="M190.044 170.787V173.469" stroke="#282839" stroke-linecap="round" stroke-linejoin="round"/>
	<path d="M203.815 189.475V198.981" stroke="#282839" stroke-linecap="round" stroke-linejoin="round"/>
	<path d="M208.568 203.45L220.959 211.616L216.328 215.516L223.275 219.091L219.578 221.894V226.525" stroke="#282839" stroke-linecap="round" stroke-linejoin="round"/>
	<path d="M142.106 123.866L139.019 133.575L144.869 146.169L140.115 159.981L143.894 166.806L135.565 181.472L140.197 185.534L135.565 192.969L141.172 198.778L131.503 213.2L142.594 218.156L138.815 229.816L145.762 235.178L142.106 251.712L130.04 256.466L129.309 268.328L119.112 272.269" stroke="#282839" stroke-linecap="round" stroke-linejoin="round"/>
	<path d="M154.049 283.441L144.584 275.925L144.015 265.525L130.04 256.466" stroke="#282839" stroke-linecap="round" stroke-linejoin="round"/>
	<path d="M126.169 157.369L118.235 196.194L180.643 208.951L191.308 156.776L128.899 144.02L127.047 153.087" fill="white"/>
	<path d="M126.169 157.369L118.235 196.194L180.643 208.951L191.308 156.776L128.899 144.02L127.047 153.087" stroke="#282839" stroke-linecap="round" stroke-linejoin="round"/>
	<path d="M161.911 177.791L159.539 174.245L147.607 182.126L146.836 182.573L146.425 181.996L135.802 165.916L139.816 163.296L148.18 176.008L160.896 167.606L171.41 183.475L174.952 181.139L173.067 190.352L163.886 188.476L167.392 186.131L163.098 179.583" fill="#00778F"/>
	<path d="M161.911 177.791L159.539 174.245L147.607 182.126L146.836 182.573L146.425 181.996L135.802 165.916L139.816 163.296L148.18 176.008L160.896 167.606L171.41 183.475L174.952 181.139L173.067 190.352L163.886 188.476L167.392 186.131L163.098 179.583" stroke="#282839" stroke-linecap="round" stroke-linejoin="round"/>
	<path d="M125.625 191.656L132.775 193.119" stroke="#282839" stroke-linecap="round" stroke-linejoin="round"/>
	<path d="M126.287 188.427L133.433 189.889" stroke="#282839" stroke-linecap="round" stroke-linejoin="round"/>
	<path d="M126.938 185.234L134.088 186.696" stroke="#282839" stroke-linecap="round" stroke-linejoin="round"/>
	<path d="M426.278 190.409V288.316H523.941V190.409C523.941 163.434 502.085 141.578 475.11 141.578C462.638 141.578 451.263 146.25 442.65 153.928C432.616 162.866 426.278 175.906 426.278 190.409Z" fill="white"/>
	<path d="M450.735 148.078C447.85 149.744 445.128 151.694 442.65 153.928C432.616 162.866 426.278 175.906 426.278 190.409V288.316H523.941V190.409C523.941 172.331 514.11 156.528 499.485 148.078" fill="white"/>
	<path d="M450.735 148.078C447.85 149.744 445.128 151.694 442.65 153.928C432.616 162.866 426.278 175.906 426.278 190.409V288.316H523.941V190.409C523.941 172.331 514.11 156.528 499.485 148.078" stroke="#282839" stroke-linecap="round" stroke-linejoin="round"/>
	<path d="M487.622 143.203C483.641 142.147 479.416 141.578 475.109 141.578C466.213 141.578 457.925 143.934 450.734 148.078" fill="white"/>
	<path d="M487.622 143.203C483.641 142.147 479.416 141.578 475.109 141.578C466.213 141.578 457.925 143.934 450.734 148.078" stroke="#282839" stroke-linecap="round" stroke-linejoin="round"/>
	<path d="M426.278 214.947H523.941H426.278Z" fill="white"/>
	<path d="M426.278 214.947H523.941" stroke="#282839" stroke-linecap="round" stroke-linejoin="round"/>
	<path d="M475.109 261.95V288.316V261.95Z" fill="white"/>
	<path d="M475.109 261.95V288.316" stroke="#282839" stroke-linecap="round" stroke-linejoin="round"/>
	<path d="M475.109 141.578V255.166V141.578Z" fill="white"/>
	<path d="M475.109 141.578V255.166" stroke="#282839" stroke-linecap="round" stroke-linejoin="round"/>
	<path d="M422.094 288.316H528.125H422.094Z" fill="white"/>
	<path d="M422.094 288.316H528.125" stroke="#282839" stroke-linecap="round" stroke-linejoin="round"/>
	<path d="M323.27 90.216C323.27 90.1876 323.298 90.1876 323.298 90.1876L343.927 86.6125C343.952 86.6125 343.952 86.6126 343.952 86.641L348.737 111.804C348.737 111.833 348.737 111.833 348.713 111.833L328.331 115.737C328.303 115.737 328.303 115.737 328.303 115.708L323.27 90.216Z" fill="#F3F4F7" stroke="#282839" stroke-linecap="round" stroke-linejoin="round"/>
	<path d="M222.309 161.586L240.817 154.708H240.846V154.737C240.817 155.508 240.517 166.619 253.249 171.405L253.277 171.429C253.277 171.429 253.277 171.458 253.249 171.458C247.858 173.574 234.659 179.79 234.273 179.985C234.273 179.985 234.273 179.985 234.244 179.985C233.887 179.904 222.914 176.958 222.309 161.586Z" fill="#F3F4F7" stroke="#282839" stroke-linecap="round" stroke-linejoin="round"/>
	<path d="M279.431 134.164C279.431 134.136 279.46 134.136 279.46 134.136L299.122 137.3C299.122 137.3 299.15 137.3 299.15 137.329C299.232 137.987 301.267 153.993 292.029 160.704H292C288.235 159.989 273.63 157.211 272.695 157.02C272.695 157.02 272.667 157.02 272.667 156.991V156.963C273.272 156.276 282.51 145.356 279.431 134.164Z" fill="#E7E7EE" stroke="#282839" stroke-linecap="round" stroke-linejoin="round"/>
	<path d="M302.702 169.175C307.459 167.416 313.837 163.979 317.497 157.625L317.526 157.597C317.526 157.597 317.55 157.597 317.55 157.625C319.228 161.2 325.886 172.144 326.13 172.53V172.559C325.996 172.998 321.84 184.714 304.103 186.062C304.103 186.062 304.075 186.062 304.075 186.034C301.434 180.342 296.868 171.515 296.567 170.881V170.852C296.567 170.852 296.567 170.852 296.596 170.824C296.844 170.8 298.245 170.552 300.252 169.947" fill="#CCCCDB"/>
	<path d="M302.702 169.175C307.459 167.416 313.837 163.979 317.497 157.625L317.526 157.597C317.526 157.597 317.55 157.597 317.55 157.625C319.228 161.2 325.886 172.144 326.13 172.53V172.559C325.996 172.998 321.84 184.714 304.103 186.062C304.103 186.062 304.075 186.062 304.075 186.034C301.434 180.342 296.868 171.515 296.567 170.881V170.852C296.567 170.852 296.567 170.852 296.596 170.824C296.844 170.8 298.245 170.552 300.252 169.947" stroke="#282839" stroke-linecap="round" stroke-linejoin="round"/>
	<path d="M361.059 121.514C359.934 126.933 357.76 133.559 353.58 138.344H353.551C349.838 136.943 334.38 131.828 333.531 131.552C333.531 131.552 333.503 131.552 333.503 131.524V131.495C333.999 130.865 342.111 120.25 341.287 107.514V107.486H341.315L362.217 111.804L362.241 111.833C362.241 112.08 362.188 114.225 361.75 117.333" fill="#E7E7EE"/>
	<path d="M361.059 121.514C359.934 126.933 357.76 133.559 353.58 138.344H353.551C349.838 136.943 334.38 131.828 333.531 131.552C333.531 131.552 333.503 131.552 333.503 131.524V131.495C333.999 130.865 342.111 120.25 341.287 107.514V107.486H341.315L362.217 111.804L362.241 111.833C362.241 112.08 362.188 114.225 361.75 117.333" stroke="#282839" stroke-linecap="round" stroke-linejoin="round"/>
	<path d="M341.291 315.372H335.359L334.181 304.688L308.791 306.597L308.994 308.425L309.562 313.137L309.847 315.372H297.375V366.316V404.097L353.722 403.65C363.472 403.65 372.166 404.828 377.691 397.678C381.631 392.559 383.988 386.181 383.988 379.234V358.028C383.947 334.425 364.853 315.372 341.291 315.372Z" fill="white" stroke="#282839" stroke-linecap="round" stroke-linejoin="round"/>
	<path d="M313.138 363.472L318.175 371.15C313.422 382.038 301.357 387.684 289.941 384.434C278.444 381.144 271.213 369.769 273.122 357.947L281.654 304.769L306.597 309.928L299.204 352.625L313.138 363.472Z" fill="white" stroke="#282839" stroke-linecap="round" stroke-linejoin="round"/>
	<path d="M287.097 319.597C286.284 321.994 286 324.634 286.325 327.316C286.569 329.184 287.097 330.972 287.828 332.597C290.956 339.3 298.147 343.525 305.866 342.591C308.425 342.266 310.781 341.413 312.853 340.153L309.562 313.138C296.644 308.872 287.097 319.597 287.097 319.597Z" fill="white" stroke="#282839" stroke-linecap="round" stroke-linejoin="round"/>
	<path d="M294.653 325.65L295.303 330.606" stroke="#282839" stroke-linecap="round" stroke-linejoin="round"/>
	<path d="M299.975 330.037C300.137 331.337 299.203 332.516 297.943 332.678C296.684 332.841 295.465 331.906 295.303 330.647" stroke="#282839" stroke-linecap="round" stroke-linejoin="round"/>
	<path d="M338.854 348.075C338.854 342.834 343.119 338.569 348.36 338.569L338.854 348.075Z" fill="white"/>
	<path d="M338.854 348.075C338.854 342.834 343.119 338.569 348.36 338.569" stroke="#282839" stroke-linecap="round" stroke-linejoin="round"/>
	<path d="M292.216 345.231C283.847 345.231 276.819 351.569 275.925 359.897L270.766 409.459H303.672L308.506 363.309C309.522 353.641 301.966 345.231 292.216 345.231Z" fill="#3C3C56" stroke="#282839" stroke-linecap="round" stroke-linejoin="round"/>
	<path d="M356.687 372.653C352.34 377.691 345.881 380.859 338.772 380.859C326.787 380.859 316.712 371.922 315.29 360.059L313.584 345.881C306.637 347.791 301.519 354.169 301.519 361.725V409.5H334.425H353.681C363.431 409.5 372.125 404.869 377.65 397.678L356.687 372.653Z" fill="#3C3C56" stroke="#282839" stroke-linecap="round" stroke-linejoin="round"/>
	<path d="M309.034 308.384C306.719 307.653 304.2 307.369 301.6 307.694C294.653 308.547 289.169 313.341 287.097 319.556L310.05 316.713L309.603 313.097L309.034 308.384Z" fill="#3C3C56" stroke="#282839" stroke-linecap="round" stroke-linejoin="round"/>
	<path d="M334.385 380.575V409.256" stroke="#282839" stroke-linecap="round" stroke-linejoin="round"/>
	<path d="M338.894 347.709L335.197 313.828" stroke="#282839" stroke-linecap="round" stroke-linejoin="round"/>
	<path d="M356.688 372.653C359.612 369.281 361.603 365.016 362.253 360.303L363.188 353.234" stroke="#282839" stroke-linecap="round" stroke-linejoin="round"/>
	<path d="M312.854 340.153L313.544 345.841" stroke="#282839" stroke-linecap="round" stroke-linejoin="round"/>
	<path d="M106.921 343.517L82.1031 346.385C82.0828 346.389 82.0828 346.389 82.0828 346.369L81.4002 340.486C81.4002 340.47 81.4003 340.47 81.3799 340.47L77.7684 340.888C77.7481 340.892 77.7481 340.892 77.7521 340.909L85.6781 409.423C85.6781 409.443 85.6781 409.443 85.6984 409.439L89.3099 409.025C89.3302 409.021 89.3303 409.021 89.3262 409L88.6478 403.118C88.6437 403.102 88.6437 403.102 88.664 403.097L122.752 399.153C123.017 399.124 123.281 399.076 123.545 399.043C123.601 399.055 123.658 399.047 123.715 399.043C132.247 398.056 136.082 387.623 145.352 380.283C152.063 374.985 158.535 374.233 166.274 377.861C176.979 382.895 183.093 392.173 191.624 391.186C191.681 391.178 191.738 391.174 191.795 391.146C192.059 391.117 192.327 391.105 192.591 391.073L217.429 388.2L221.191 387.766L226.679 387.132C226.696 387.128 226.696 387.128 226.7 387.148L227.378 393.031C227.382 393.047 227.382 393.047 227.398 393.047L231.014 392.628C231.03 392.628 231.03 392.628 231.03 392.608L223.104 324.094C223.1 324.074 223.1 324.074 223.08 324.078L219.468 324.492C219.448 324.496 219.448 324.496 219.452 324.517L220.135 330.399C220.135 330.415 220.135 330.415 220.114 330.419L186.046 334.36C186.046 334.36 186.16 334.348 185.063 334.474C176.532 335.461 172.697 345.893 163.426 353.234C156.715 358.536 150.247 359.283 142.504 355.656C131.8 350.622 125.686 341.343 117.154 342.331C117.097 342.339 117.041 342.343 116.988 342.371C116.724 342.4 116.456 342.412 116.192 342.444L109.683 343.196" fill="white"/>
	<path d="M106.921 343.517L82.1031 346.385C82.0828 346.389 82.0828 346.389 82.0828 346.369L81.4002 340.486C81.4002 340.47 81.4003 340.47 81.3799 340.47L77.7684 340.888C77.7481 340.892 77.7481 340.892 77.7521 340.909L85.6781 409.423C85.6781 409.443 85.6781 409.443 85.6984 409.439L89.3099 409.025C89.3302 409.021 89.3303 409.021 89.3262 409L88.6478 403.118C88.6437 403.102 88.6437 403.102 88.664 403.097L122.752 399.153C123.017 399.124 123.281 399.076 123.545 399.043C123.601 399.055 123.658 399.047 123.715 399.043C132.247 398.056 136.082 387.623 145.352 380.283C152.063 374.985 158.535 374.233 166.274 377.861C176.979 382.895 183.093 392.173 191.624 391.186C191.681 391.178 191.738 391.174 191.795 391.146C192.059 391.117 192.327 391.105 192.591 391.073L217.429 388.2L221.191 387.766L226.679 387.132C226.696 387.128 226.696 387.128 226.7 387.148L227.378 393.031C227.382 393.047 227.382 393.047 227.398 393.047L231.014 392.628C231.03 392.628 231.03 392.628 231.03 392.608L223.104 324.094C223.1 324.074 223.1 324.074 223.08 324.078L219.468 324.492C219.448 324.496 219.448 324.496 219.452 324.517L220.135 330.399C220.135 330.415 220.135 330.415 220.114 330.419L186.046 334.36C186.046 334.36 186.16 334.348 185.063 334.474C176.532 335.461 172.697 345.893 163.426 353.234C156.715 358.536 150.247 359.283 142.504 355.656C131.8 350.622 125.686 341.343 117.154 342.331C117.097 342.339 117.041 342.343 116.988 342.371C116.724 342.4 116.456 342.412 116.192 342.444L109.683 343.196" stroke="#282839" stroke-linecap="round" stroke-linejoin="round"/>
	<path d="M158.266 366.312L138.555 368.591L137.515 368.712L128.135 369.797" stroke="#282839" stroke-linecap="round" stroke-linejoin="round"/>
	<path d="M132.283 385.458C125.121 382.184 128.725 367.429 129.103 360.1C129.594 350.919 122.261 348.026 122.221 348.014C122.221 348.014 120.234 346.747 113.177 347.563C106.125 348.38 87.1328 350.578 87.1328 350.578L92.6009 397.869L120.336 394.66C128.656 393.697 132.283 385.458 132.283 385.458Z" fill="#00778F" stroke="#282839" stroke-linecap="round" stroke-linejoin="round"/>
	<path d="M188.386 364.012L190.048 378.389C190.491 382.192 186.672 384.82 183.568 382.858C183.568 382.858 161.2 365.97 153.766 366.832C161.277 365.962 179.124 344.423 179.124 344.423C181.695 341.803 186.01 343.488 186.452 347.291L186.956 351.642" fill="#00778F"/>
	<path d="M188.386 364.012L190.048 378.389C190.491 382.192 186.672 384.82 183.568 382.858C183.568 382.858 161.2 365.97 153.766 366.832C161.277 365.962 179.124 344.423 179.124 344.423C181.695 341.803 186.01 343.488 186.452 347.291L186.956 351.642" stroke="#282839" stroke-linecap="round" stroke-linejoin="round"/>
	<path d="M187.326 354.859L188.094 361.498" stroke="#282839" stroke-linecap="round" stroke-linejoin="round"/>
	<path d="M129.013 361.319C129.013 361.319 137.463 371.707 132.267 385.458" stroke="#282839" stroke-linecap="round" stroke-linejoin="round"/>
	<path d="M220.155 330.415L226.716 387.128" stroke="#282839" stroke-linecap="round" stroke-linejoin="round"/>
	<path d="M82.1035 346.385L88.6645 403.097" stroke="#282839" stroke-linecap="round" stroke-linejoin="round"/>
	<path d="M194.419 397.077H199.509L224.965 397.922L244.973 397.077V390.8H194.419V397.077Z" fill="#CCCCDB" stroke="#282839" stroke-linecap="round" stroke-linejoin="round"/>
	<path d="M198.803 403.394L222.845 404.316L246.176 403.394H249.356V397.077H198.803V403.394Z" fill="#3C3C56" stroke="#282839" stroke-linecap="round" stroke-linejoin="round"/>
	<path d="M202.764 409.671H196.54V403.394H247.163V409.671H209.41" fill="#7D7D9B"/>
	<path d="M202.764 409.671H196.54V403.394H247.163V409.671H209.41" stroke="#282839" stroke-linecap="round" stroke-linejoin="round"/>
	<path d="M342.274 281.816H170.442V271.984H396.642V281.816H349.347" fill="#CCCCDB"/>
	<path d="M342.274 281.816H170.442V271.984H396.642V281.816H349.347" stroke="#282839" stroke-linecap="round" stroke-linejoin="round"/>
	<path d="M190.04 281.816L170.442 409.825" stroke="#282839" stroke-linecap="round" stroke-linejoin="round"/>
	<path d="M377.041 281.816L396.643 409.825" stroke="#282839" stroke-linecap="round" stroke-linejoin="round"/>
	<path d="M353.937 223.328L398.897 186.664L424.097 217.539L372.036 260.028L346.836 229.117L350.504 226.143" fill="#3C3C56"/>
	<path d="M353.937 223.328L398.897 186.664L424.097 217.539L372.036 260.028L346.836 229.117L350.504 226.143" stroke="#282839" stroke-linecap="round" stroke-linejoin="round"/>
	<path d="M435.277 215.841L383.216 258.314L408.42 289.205L460.481 246.724L435.277 215.841Z" fill="#3C3C56" stroke="#282839" stroke-linecap="round" stroke-linejoin="round"/>
	<path d="M460.436 254.044L408.375 296.522L433.583 327.413L485.64 284.931L460.436 254.044Z" fill="#3C3C56" stroke="#282839" stroke-linecap="round" stroke-linejoin="round"/>
	<path d="M553.268 292.87L568.01 310.895L489.088 375.306L356.289 212.599L435.211 148.188L535.823 271.452" fill="#3C3C56"/>
	<path d="M553.267 292.87L568.01 310.895L489.088 375.306L356.289 212.599L435.211 148.188L535.823 271.452" stroke="#282839" stroke-linecap="round" stroke-linejoin="round"/>
	<path d="M489.089 375.306L516.604 409.033" stroke="#282839" stroke-linecap="round" stroke-linejoin="round"/>
	<path d="M568.011 310.895L595.526 344.663" stroke="#282839" stroke-linecap="round" stroke-linejoin="round"/>
	<path d="M538.643 274.926L550.026 288.856" stroke="#282839" stroke-linecap="round" stroke-linejoin="round"/>
	<path d="M440.614 211.477L443.547 215.105C445.168 217.112 444.859 220.045 442.893 221.666L426.72 234.865C424.714 236.486 421.78 236.177 420.16 234.211L417.23 230.62" stroke="#282839" stroke-linecap="round" stroke-linejoin="round"/>
	<path d="M472.205 345.158L453.924 346.657C453.879 346.657 453.879 346.702 453.879 346.702L456.154 373.348C456.154 373.392 456.199 373.392 456.199 373.392L492.623 370.435C492.668 370.435 492.668 370.39 492.668 370.39L490.393 343.748C490.393 343.704 490.348 343.704 490.348 343.704L475.207 344.939" fill="#F3F4F7"/>
	<path d="M472.205 345.158L453.924 346.657C453.879 346.657 453.879 346.702 453.879 346.702L456.154 373.348C456.154 373.392 456.199 373.392 456.199 373.392L492.623 370.435C492.668 370.435 492.668 370.39 492.668 370.39L490.393 343.748C490.393 343.704 490.348 343.704 490.348 343.704L475.207 344.939" stroke="#282839" stroke-linecap="round" stroke-linejoin="round"/>
	<path d="M481.3 364.658L480.118 351.203" stroke="#282839" stroke-linecap="round" stroke-linejoin="round"/>
	<path d="M473.886 365.276L472.704 351.776" stroke="#282839" stroke-linecap="round" stroke-linejoin="round"/>
	<path d="M466.476 365.848L465.339 352.393" stroke="#282839" stroke-linecap="round" stroke-linejoin="round"/>
	<path d="M475.89 383.403C475.935 383.403 475.935 383.403 475.935 383.358L482.256 357.333C482.256 357.289 482.256 357.289 482.211 357.289L446.652 349.172C446.603 349.172 446.603 349.172 446.603 349.217L440.286 375.245C440.286 375.286 440.286 375.286 440.331 375.286L475.89 383.403Z" fill="white" stroke="#282839" stroke-linecap="round" stroke-linejoin="round"/>
	<path d="M466.932 374.449L470.113 361.302" stroke="#282839" stroke-linecap="round" stroke-linejoin="round"/>
	<path d="M459.7 372.816L462.885 359.629" stroke="#282839" stroke-linecap="round" stroke-linejoin="round"/>
	<path d="M452.425 371.142L455.654 357.996" stroke="#282839" stroke-linecap="round" stroke-linejoin="round"/>
	<path d="M491.169 403.033C491.214 403.033 491.214 402.988 491.214 402.988L488.211 376.391C488.211 376.346 488.167 376.346 488.167 376.346L451.836 380.185C451.787 380.185 451.787 380.23 451.787 380.23L454.789 406.827C454.789 406.872 454.834 406.872 454.834 406.872L491.169 403.033Z" fill="#CCCCDB" stroke="#282839" stroke-linecap="round" stroke-linejoin="round"/>
	<path d="M478.388 386.799L478.071 384.109" stroke="#282839" stroke-linecap="round" stroke-linejoin="round"/>
	<path d="M479.619 397.564L478.664 389.269" stroke="#282839" stroke-linecap="round" stroke-linejoin="round"/>
	<path d="M472.205 398.357L470.706 384.906" stroke="#282839" stroke-linecap="round" stroke-linejoin="round"/>
	<path d="M464.84 399.108L463.292 385.698" stroke="#282839" stroke-linecap="round" stroke-linejoin="round"/>
	<path d="M467.11 409.472C467.159 409.431 467.159 409.472 467.11 409.472L467.159 342.822C467.159 342.777 467.159 342.777 467.11 342.777H422.598C422.549 342.777 422.549 342.777 422.549 342.822V409.431C422.549 409.472 422.549 409.472 422.598 409.472H467.11Z" fill="#7D7D9B"/>
	<path d="M467.11 409.472C467.159 409.431 467.159 409.472 467.11 409.472ZM467.11 409.472L467.159 342.822C467.159 342.777 467.159 342.777 467.11 342.777H422.598C422.549 342.777 422.549 342.777 422.549 342.822V409.431C422.549 409.472 422.549 409.472 422.598 409.472H467.11Z" stroke="#282839" stroke-linecap="round" stroke-linejoin="round"/>
	<path d="M452.652 366.376V385.917C452.652 387.376 453.879 388.566 455.382 388.566C456.881 388.566 458.108 387.376 458.108 385.917V366.376C458.108 364.922 456.881 363.732 455.382 363.732C453.879 363.687 452.652 364.877 452.652 366.376Z" stroke="#282839" stroke-linecap="round" stroke-linejoin="round"/>
	<path d="M204.1 271.984L201.744 252.281L177.206 258.253L178.872 271.984H204.1Z" fill="#48466D" stroke="#282839" stroke-linecap="round" stroke-linejoin="round"/>
	<path d="M218.481 269.262H203.409C200.646 269.262 197.925 268.816 195.325 267.922L193.7 267.394C191.1 266.5 188.378 266.053 185.615 266.053H178.1L178.831 271.984H204.059V287.909C204.059 290.509 206.171 292.622 208.771 292.622C211.371 292.622 213.484 290.509 213.484 287.909V280.15C213.484 282.262 215.19 283.969 217.303 283.969C219.415 283.969 221.121 282.262 221.121 280.15V271.984C221.203 270.481 219.984 269.262 218.481 269.262Z" fill="#F3F4F7" stroke="#282839" stroke-linecap="round" stroke-linejoin="round"/>
	<path d="M203.774 269.262L204.099 271.984" stroke="#282839" stroke-linecap="round" stroke-linejoin="round"/>
	</svg>
	