<svg
  xmlns="http://www.w3.org/2000/svg"
  fill="none"
  viewBox="0 0 650 487"
  aria-hidden="true"
>
  <path
    fill="#e9f9f9"
    d="M123.915 262.878c6.287 16.315 17.228 29.87 29.061 42.504 4.439 4.797 9.476 8.926 14.864 12.702-1.065 12.453-.702 24.98 2.125 37.334 3.99 17.355 14.431 34.039 28.122 45.387 28.045 23.162 64.246 29.824 99.602 25.132 34.088-4.489 68.981-12.773 100.813-26.055 16.703-6.931 33.079-14.844 47.714-25.769 14.856-11.159 26.95-23.46 37.657-38.546 5.568-7.875 10.287-16.252 14.054-25.22 19.941-35.132 26.636-76.644 18.149-116.971-10.356-48.944-46.608-93.745-92.582-113.35-46.506-19.741-99.213-19.652-146.461-2.263-25.338 9.32-49.156 22.338-70.814 38.538-21.166 15.773-42.272 33.595-59.075 54.02-21.021 25.254-35.914 59.995-23.229 92.557"
  />
  <path
    stroke="#282839"
    stroke-linecap="round"
    stroke-linejoin="round"
    d="M90.21 408.311h197.163M365.751 408.311h99.193M90.21 392.456h459.848"
  />
  <path
    fill="#3c3c56"
    stroke="#282839"
    stroke-linecap="round"
    stroke-linejoin="round"
    d="m284.163 202.559-7.592 4.398 1.574 2.731 7.592-4.393z"
  />
  <path
    fill="#e7e7ee"
    stroke="#282839"
    stroke-linecap="round"
    stroke-linejoin="round"
    d="m259.879 257.76-.193 3.149 8.749.536.193-3.149z"
  />
  <path
    fill="#fff"
    stroke="#282839"
    stroke-linecap="round"
    stroke-linejoin="round"
    d="m311.679 255.979-2.728 1.578 4.385 7.614 2.724-1.579z"
  />
  <path
    fill="#3c3c56"
    stroke="#282839"
    stroke-linecap="round"
    stroke-linejoin="round"
    d="m293.785 299.339-1.079 2.969 8.241 3.008 1.074-2.964z"
  />
  <path
    fill="#e7e7ee"
    stroke="#282839"
    stroke-linecap="round"
    stroke-linejoin="round"
    d="m304.96 184.716-3.329 8.132 2.912 1.201 3.329-8.137z"
  />
  <path
    fill="#7d7d9b"
    stroke="#282839"
    stroke-linecap="round"
    stroke-linejoin="round"
    d="M428.831 242.331h-86.522v52.756h86.522z"
  />
  <path
    fill="#7d7d9b"
    stroke="#282839"
    stroke-linecap="round"
    stroke-linejoin="round"
    d="M433.313 237.159H337.94v10.345h95.373z"
  />
  <path
    fill="#3c3c56"
    stroke="#282839"
    stroke-linecap="round"
    stroke-linejoin="round"
    d="M397.556 262.518h-23.915c-2.184 0-3.908-1.491-3.908-3.382s1.724-3.382 3.908-3.382h23.915c2.184 0 3.908 1.491 3.908 3.382 0 1.839-1.724 3.382-3.908 3.382"
  />
  <path
    fill="#e7e7ee"
    stroke="#282839"
    stroke-linecap="round"
    stroke-linejoin="round"
    d="M428.831 184.404h-86.522v52.755h86.522z"
  />
  <path
    fill="#e7e7ee"
    stroke="#282839"
    stroke-linecap="round"
    stroke-linejoin="round"
    d="M433.313 179.232H337.94v10.34h95.373z"
  />
  <path
    fill="#3c3c56"
    stroke="#282839"
    stroke-linecap="round"
    stroke-linejoin="round"
    d="M397.556 204.591h-23.915c-2.184 0-3.908-1.491-3.908-3.382s1.724-3.382 3.908-3.382h23.915c2.184 0 3.908 1.491 3.908 3.382 0 1.838-1.724 3.382-3.908 3.382"
  />
  <path
    fill="#7d7d9b"
    stroke="#282839"
    stroke-linecap="round"
    stroke-linejoin="round"
    d="M348.344 158.068c0-.057 0-.057.079-.057h3.214c27.999-4.592 45.253-4.416 74.269 0l.079.057v12.534c0 .058 0 .058-.079.058-27.293 2.647-43.603 2.001-70.032-1.474h-7.451c-.079 0-.079 0-.079-.057z"
  />
  <path fill="#7d7d9b" d="M376.733 163.596h20.942z" />
  <path
    stroke="#282839"
    stroke-linecap="round"
    stroke-linejoin="round"
    d="M376.733 163.596h20.942"
  />
  <path
    fill="#7d7d9b"
    stroke="#282839"
    stroke-linecap="round"
    stroke-linejoin="round"
    d="M355.874 169.248c0-.062 0-.062.079-.062h77.479c.079 0 .079 0 .079.062v11.061c0 .057 0 .057-.079.057h-77.479c-.079 0-.079 0-.079-.057z"
  />
  <path fill="#7d7d9b" d="M384.263 174.895h20.938z" />
  <path
    stroke="#282839"
    stroke-linecap="round"
    stroke-linejoin="round"
    d="M384.263 174.895h20.938"
  />
  <path
    fill="#7d7d9b"
    stroke="#282839"
    stroke-linecap="round"
    stroke-linejoin="round"
    d="M351.638 146.945c0-.057 0-.057.079-.057H429.2c.079 0 .079 0 .079.057v11.066c0 .057 0 .057-.079.057h-77.483c-.079 0-.079 0-.079-.057z"
  />
  <path fill="#7d7d9b" d="M380.026 152.421h20.942z" />
  <path
    stroke="#282839"
    stroke-linecap="round"
    stroke-linejoin="round"
    d="M380.026 152.421h20.942"
  /><mask id="a" fill="#fff">
  <path d="M334.34 360.53v31.878h119.626V294.91H334.34v52.571" /></mask>
  <path fill="#e7e7ee" d="M334.34 360.53v31.878h119.626V294.91H334.34v52.571" />
  <path
    fill="#282839"
    d="M334.34 392.408h-1v1h1zm119.626 0v1h1v-1zm0-97.498h1v-1h-1zm-119.626 0v-1h-1v1zm0 65.62h-1v31.878h2V360.53zm0 31.878v1h119.626v-2H334.34zm119.626 0h1v-59.252h-2v59.252zm0-59.252h1v-11.51h-2v11.51zm0-11.51h1V294.91h-2v26.736zm0-26.736v-1H334.34v2h119.626zm-119.626 0h-1v52.571h2V294.91z"
    mask="url(#a)"
  />
  <path
    stroke="#282839"
    stroke-linecap="round"
    stroke-linejoin="round"
    d="M334.34 360.53v31.878h119.626V294.91H334.34v52.571"
  /><mask id="b" fill="#fff">
  <path d="M405.727 301.116v-6.206h-23.148v38.246h23.148v-8.488" /></mask>
  <path
    fill="#3c3c56"
    d="M405.727 301.116v-6.206h-23.148v38.246h23.148v-8.488"
  />
  <path
    fill="#282839"
    d="M405.727 294.91h1v-1h-1zm-23.148 0v-1h-1v1zm0 38.246h-1v1h1zm23.148 0v1h1v-1zm0-32.04h1v-6.206h-2v6.206zm0-6.206v-1h-23.148v2h23.148zm-23.148 0h-1v38.246h2V294.91zm0 38.246v1h23.148v-2h-23.148zm23.148 0h1v-8.488h-2v8.488z"
    mask="url(#b)"
  />
  <path
    stroke="#282839"
    stroke-linecap="round"
    stroke-linejoin="round"
    d="M405.727 301.116v-6.206h-23.148v38.246h23.148v-8.488M405.727 307.111v9.759"
  />
  <path
    fill="#7d7d9b"
    d="M382.202 363.385q0-.04 0 0l-44.402-.027c-.03 0-.03 0-.03.027v12.301c0 .026 0 .026.03.026h44.371c.031 0 .031 0 .031-.026z"
  />
  <path
    stroke="#282839"
    stroke-linecap="round"
    stroke-linejoin="round"
    d="M382.202 363.385q0-.04 0 0m0 0-44.402-.027c-.03 0-.03 0-.03.027v12.301c0 .026 0 .026.03.026h44.371c.031 0 .031 0 .031-.026z"
  />
  <path
    fill="#7d7d9b"
    d="M389.228 373.074h-57.546c-.031 0-.031 0-.031.026v13.181c0 .031 0 .031.031.031h65.273c.027 0 .027 0 .027-.031V373.1c0-.026 0-.026-.027-.026h-3.982"
  />
  <path
    stroke="#282839"
    stroke-linecap="round"
    stroke-linejoin="round"
    d="M389.228 373.074h-57.546c-.031 0-.031 0-.031.026v13.181c0 .031 0 .031.031.031h65.273c.027 0 .027 0 .027-.031V373.1c0-.026 0-.026-.027-.026h-3.982"
  />
  <path
    fill="#7d7d9b"
    stroke="#282839"
    stroke-linecap="round"
    stroke-linejoin="round"
    d="M400.964 382.815c0-.026 0-.026-.031-.026h-11.53l-53.743 3.021c-.026 0-.026 0-.026.031v3.813c0 .031 0 .031.026.031l53.743 2.846h11.53c.031 0 .031 0 .031-.027z"
  />
  <path
    fill="#7d7d9b"
    stroke="#282839"
    stroke-linecap="round"
    stroke-linejoin="round"
    d="M389.403 382.815c0-.026 0-.026-.031-.026h-65.273c-.026 0-.026 0-.026.026v9.659c0 .03 0 .03.026.03h65.273c.031 0 .031 0 .031-.03z"
  />
  <path
    fill="#00778f"
    stroke="#282839"
    stroke-linecap="round"
    stroke-linejoin="round"
    d="m314.551 392.245-44.37.343-15.386-48.48 7.417-2.591 35.59-2.045 30.227-18.96 7.342-2.116 15.381 48.481z"
  />
  <path
    fill="#00778f"
    stroke="#282839"
    stroke-linecap="round"
    stroke-linejoin="round"
    d="m268.168 386.246 44.37-.339-14.736-46.435-35.59 2.045-7.417 2.591z"
  />
  <path
    stroke="#282839"
    stroke-linecap="round"
    stroke-linejoin="round"
    d="m314.551 392.245-16.793-52.909"
  />
  <path
    fill="#00b5c0"
    stroke="#282839"
    stroke-linecap="round"
    stroke-linejoin="round"
    d="M312.539 385.907c-16.171-17.218-36.744.308-36.744.308l-14.579-47.834s20.394-16.194 36.564 1.021z"
  />
  <path
    stroke="#282839"
    stroke-linecap="round"
    stroke-linejoin="round"
    d="M275.777 349.579s9.285-5.665 16.955 1.047M278.088 356.875s9.285-5.669 16.96 1.047M280.382 364.101s9.284-5.664 16.955 1.047"
  />
  <path
    fill="#00778f"
    stroke="#282839"
    stroke-linecap="round"
    stroke-linejoin="round"
    d="m312.538 385.907 36.205-25.372-13.372-42.139-7.342 2.116-30.227 18.96z"
  />
  <path
    fill="#00b5c0"
    stroke="#282839"
    stroke-linecap="round"
    stroke-linejoin="round"
    d="M312.538 385.907c3.277-23.424 30.46-21.287 30.46-21.287l-15.943-47.174s-25.977-1.398-29.253 22.026z"
  />
  <path
    stroke="#282839"
    stroke-linecap="round"
    stroke-linejoin="round"
    d="M321.538 334.977s-10.846.757-13.236 10.679M323.849 342.274s-10.842.756-13.232 10.678M326.143 349.5s-10.842.756-13.232 10.678"
  /><mask id="c" fill="#fff">
  <path
      d="m463.066 251.923-7.021-16.857-.101-.009-17.236-9.091-.097-.013-.109.088-6.044 18.815-.013.101 54.822 130.804.088.11 14.188 2.361.096.009 8.894-12.108.013-.096-44.287-105.973"
    /></mask>
  <path
    fill="#3c3c56"
    d="m463.066 251.923-7.021-16.857-.101-.009-17.236-9.091-.097-.013-.109.088-6.044 18.815-.013.101 54.822 130.804.088.11 14.188 2.361.096.009 8.894-12.108.013-.096-44.287-105.973"
  />
  <path
    fill="#282839"
    d="m456.045 235.066.923-.385-.207-.497-.529-.101zm-.101-.009-.467.884.179.094.201.018zm-17.236-9.091.466-.885-.156-.082-.175-.024zm-.097-.013.136-.991-1.136-.156v1.147zm-.109.088-.626-.78-.235.188-.091.286zm-6.044 18.815.818.575.087-.124.047-.146zm-.013.101-.992-.129-.035.267.105.248zm54.822 130.804-.922.386.257.614h.665zm.088.11-.782.623.239.3.378.063zm14.188 2.361-.165.987.037.006.037.003zm.096.009-.091.996.563.051.334-.455zm8.894-12.108.806.592.151-.205.034-.252zm.013-.096.991.134.037-.269-.105-.251zm-47.48-114.114.923-.384-7.021-16.858-.923.385-.923.384 7.021 16.858zm-7.021-16.857c.187-.983.153-.989.118-.993l-.013-.002-.008-.001h-.008l-.001-.001h-.003l-.011-.001-.088-.008-.087.997-.087.996.088.008.011.001h.001-.001l-.001-.001h-.008l-.008-.001-.013-.002c-.035-.004-.069-.01.119-.992m-.101-.009.466-.885-17.236-9.091-.466.885-.467.884 17.236 9.091zm-17.236-9.091.135-.991-.096-.013-.136.991-.135.99.096.014zm-.097-.013c-1 0-.908-.419-.648-.761l.011-.01.006-.005.003-.002.001-.001.001-.001-.001.001-.012.01-.096.077.626.78.625.78.096-.077.012-.01.002-.001.001-.001v-.001l.002-.001.003-.002.006-.005.011-.009c.259-.342.351-.761-.649-.761m-.109.088-.952-.306-6.044 18.815.952.306.952.305 6.044-18.815zm-6.044 18.815c-.818-.576-.915-.403-.977-.215l-.007.039-.004.022-.002.012-.001.007v.004l-.001.003-.001.011-.012.089.992.129.991.129.012-.088.001-.011v-.001.005l-.001.006-.002.012-.004.022-.007.039c-.062.189-.159.361-.977-.214m-.013.101-.922.386 54.822 130.804.922-.386.922-.387-54.822-130.804zm54.822 130.804c0 1-.362.932-.674.739l-.052-.052-.028-.03-.014-.016-.007-.009-.003-.004-.002-.002q0-.001 0 0l.009.011.077.096.782-.623.781-.624-.077-.096-.01-.013-.002-.003-.002-.002-.003-.004-.007-.009-.014-.016-.028-.031-.052-.051c-.313-.194-.674-.261-.674.739m.088.11-.165.986 14.188 2.362.165-.987.164-.986-14.188-2.362zm14.188 2.361-.091.996.096.009.091-.996.091-.996-.097-.008zm.096.009.806.592 8.894-12.108-.806-.592-.806-.592-8.894 12.108zm8.894-12.108.991.135.013-.097-.991-.134-.99-.135-.014.097zm.013-.096.923-.386-44.287-105.972-.923.385-.923.386 44.288 105.972z"
    mask="url(#c)"
  />
  <path
    stroke="#282839"
    stroke-linecap="round"
    stroke-linejoin="round"
    d="m463.066 251.923-7.021-16.857-.101-.009-17.236-9.091-.097-.013-.109.088-6.044 18.815-.013.101 54.822 130.804.088.11 14.188 2.362.096.008 8.894-12.108.013-.096-44.287-105.973"
  />
  <path
    fill="#3c3c56"
    stroke="#282839"
    stroke-linecap="round"
    stroke-linejoin="round"
    d="M487.574 375.695c-.109.088-.022.198-.022.198l19.574 15.938c.46.352 1.18.132 1.254-.558l2.351-25.118.013-.096-.101-.014zM426.809 230.949l5.846 13.929 23.39-9.812-5.947-13.942c-2.676-6.488-10.118-9.505-16.587-6.817-6.382 2.792-9.491 10.243-6.702 16.642"
  />
  <path
    fill="#3c3c56"
    d="M180.698 285.846q0-.053 0 0l24.323-10.604h.035l29.718 10.569.035.035v106.153c0 .035 0 .035-.035.035h-54.037c-.039 0-.039 0-.039-.035z"
  />
  <path
    stroke="#282839"
    stroke-linecap="round"
    stroke-linejoin="round"
    d="M180.698 285.846q0-.053 0 0m0 0 24.323-10.604h.035l29.718 10.569.035.035v106.153c0 .035 0 .035-.035.035h-54.037c-.039 0-.039 0-.039-.035z"
  />
  <path
    fill="#fff"
    stroke="#282839"
    stroke-linecap="round"
    stroke-linejoin="round"
    d="M215.411 220.064h.035a17.7 17.7 0 0 0 10.065-16.014c0-2.305-.438-4.534-1.241-6.549-.215-.255-8.53-9.249-15.679-2.555-7.144 6.69 6.237 24.387 6.82 25.118"
  />
  <path
    fill="#3c3c56"
    stroke="#282839"
    stroke-linecap="round"
    stroke-linejoin="round"
    d="M215.411 188.032a17.64 17.64 0 0 0-7.583-1.72c-7.473 0-13.854 4.645-16.446 11.189a17.7 17.7 0 0 0-1.237 6.549c0 9.799 7.912 17.733 17.683 17.733a17.2 17.2 0 0 0 7.548-1.719l.035-.036v-22.487c0-.04 0-.04.035-.04h8.825v-.035c-1.711-4.13-4.847-7.494-8.86-9.434"
  />
  <path
    fill="#fff"
    stroke="#282839"
    stroke-linecap="round"
    stroke-linejoin="round"
    d="M187.737 216.374h40.292a15.43 15.43 0 0 1 13.635 8.224l7.004 13.203s.036.035.036 0l26.362-14.008h.035l.04.04 8.75 18.793v.035l-33.657 18.173c-5.394 2.925-12.144.99-15.205-4.315l-.22-.365s-.035-.035-.035 0l-.035.036.07 29.546v.04h-54.072c-.039 0-.039 0-.039-.04v-15.978l-12.653-8.924c-3.864-2.705-5.359-7.714-3.68-12.139l8.605-22.193a15.85 15.85 0 0 1 14.767-10.128"
  />
  <path
    stroke="#282839"
    stroke-linecap="round"
    stroke-linejoin="round"
    d="M180.698 241.126v-5.449M180.698 269.758v-24.282M234.774 256.084v-20.407M248.704 237.871l2.662 5.45M200.899 314.077v-8.778M200.899 391.924v-73.792M197.109 305.299h8.531"
  />
  <path
    fill="#3c3c56"
    stroke="#282839"
    stroke-linecap="round"
    stroke-linejoin="round"
    d="M419.533 117.02h-58.225c-14.276 0-25.859 11.616-25.859 25.927v56.639h29.683v-52.83h24.723c16.38 0 29.678-13.309 29.678-29.736"
  />
  <path
    fill="#3c3c56"
    stroke="#282839"
    stroke-linecap="round"
    stroke-linejoin="round"
    d="m440.006 117.02-7.171-6.799-51.028 6.799c-14.272 0-25.854 11.616-25.854 25.927v56.639h29.652v-52.83h24.718c16.381 0 29.683-13.309 29.683-29.736"
  />
  <path
    fill="#fff"
    stroke="#282839"
    stroke-linecap="round"
    stroke-linejoin="round"
    d="M440.006 101.148c0-23.653-19.109-42.812-42.691-42.812h-39.187l.908 38.972-36.95 14.052 7.201 19.519 27.411-10.538v10.538h41.069c8.596 0 15.797-5.889 17.876-13.859h24.394v-15.872z"
  />
  <path
    stroke="#282839"
    stroke-linecap="round"
    stroke-linejoin="round"
    d="M365.847 110.612V98.188M365.847 94.801V92.07"
  />
  <path
    fill="#fff"
    stroke="#282839"
    stroke-linecap="round"
    stroke-linejoin="round"
    d="M347.585 62.858s12.196-10.705 25.398-2.344c2.728 1.724 8.534 7.42 6.521 16.624-2.627 6.343-8.855 10.802-16.122 10.802-7.754 0-14.337-5.075-16.609-12.103-.552-1.724-.877-3.545-.877-5.432-.031-2.7.583-5.238 1.689-7.547"
  />
  <path
    stroke="#282839"
    stroke-linecap="round"
    stroke-linejoin="round"
    d="M354.33 69.169v5.625M359.036 74.794a2.33 2.33 0 0 1-2.338 2.344 2.33 2.33 0 0 1-2.333-2.344"
  />
  <path
    fill="#3c3c56"
    stroke="#282839"
    stroke-linecap="round"
    stroke-linejoin="round"
    d="M363.352 52.87c6.973 0 12.973 4.068 15.797 9.988 1.101 2.278 1.684 4.846 1.684 7.547 0 1.887-.289 3.707-.872 5.432-.132.457-.294.88-.487 1.301-4.25 0-7.724-3.448-7.724-7.74v-6.54h-24.2c2.824-5.89 8.859-9.988 15.802-9.988"
  />
  <path
    stroke="#282839"
    stroke-linecap="round"
    stroke-linejoin="round"
    d="M385.605 146.756H378.5M397.543 110.612c-5.127 0-9.28-4.165-9.28-9.302M356.667 120.306v-9.694h40.937M416.196 91.81v20.526c0 1.597-.228 3.189-.588 4.653"
  />
  <path
    fill="#f3f4f7"
    d="M169.037 80.185h-16.021v54.888h98.66l19.196 19.217v-19.217h11.467V80.185H180.134"
  />
  <path
    fill="#00778f"
    d="M169.037 80.185h-16.021v54.888h98.66l19.196 19.217v-19.217h11.467V80.185H180.134"
  />
  <path
    stroke="#282839"
    stroke-linecap="round"
    d="M169.037 80.185h-16.021v54.888h98.66l19.196 19.217v-19.217h11.467V80.185H180.134M177.397 80.185h-5.357M168.654 111.655h96.949M168.654 103.939h96.949M193.276 119.371h53.861M168.654 119.371h18.467M237.903 96.223h-69.249M265.603 96.223h-21.544"
  />
</svg>
