<svg xmlns="http://www.w3.org/2000/svg" width="101" height="79" viewBox="0 0 101 79" fill="none">
  <path d="M16.1621 0.5H100.499V28.2735H16.1621V0.5Z" fill="#F3F4F7" stroke="#282839" stroke-linecap="round" stroke-linejoin="round"/>
  <path d="M36.8564 17.9708C37.1474 17.9708 37.2929 18.0898 37.2929 18.3279V18.6585C37.2929 18.8965 37.1474 19.0156 36.8564 19.0156H34.9387C34.6478 19.0156 34.5023 18.8965 34.5023 18.6585V18.3279C34.5023 18.0898 34.6478 17.9708 34.9387 17.9708H35.2826L34.5288 16.0266H30.9976L30.2701 17.9708H30.614C30.905 17.9708 31.0505 18.0898 31.0505 18.3279V18.6585C31.0505 18.8965 30.905 19.0156 30.614 19.0156H28.8021C28.52 19.0156 28.3789 18.8965 28.3789 18.6585V18.3279C28.3789 18.0898 28.52 17.9708 28.8021 17.9708H29.146L32.1614 10.0619C32.1967 9.97376 32.254 9.90322 32.3333 9.85032C32.4127 9.7886 32.5008 9.75774 32.5978 9.75774H32.9946C33.0828 9.75774 33.1665 9.78419 33.2459 9.8371C33.3252 9.89 33.3825 9.96053 33.4178 10.0487L36.5126 17.9708H36.8564ZM34.132 14.9818L32.7433 11.3977L31.3943 14.9818H34.132Z" fill="#282839"/>
  <path d="M46.684 16.4631C46.8339 16.4631 46.9617 16.5071 47.0675 16.5953C47.1733 16.6835 47.2262 16.7937 47.2262 16.926C47.2262 17.1111 47.1601 17.3051 47.0279 17.5079C46.6928 18.0545 46.274 18.4645 45.7714 18.7378C45.2689 19.0112 44.6693 19.1478 43.9728 19.1478C43.1616 19.1478 42.4607 18.9539 41.8699 18.5659C41.288 18.1691 40.8383 17.6137 40.5209 16.8995C40.2123 16.1765 40.058 15.3301 40.058 14.3602C40.058 12.8701 40.4019 11.7107 41.0896 10.8819C41.7862 10.0443 42.756 9.62549 43.9992 9.62549C44.5811 9.62549 45.119 9.73129 45.6127 9.9429C46.1065 10.1545 46.4988 10.4411 46.7898 10.8026C47.0808 11.1552 47.2262 11.5476 47.2262 11.9796C47.2262 12.2618 47.1513 12.4866 47.0014 12.6541C46.8603 12.8216 46.662 12.9054 46.4063 12.9054C46.1858 12.9054 46.0007 12.8349 45.8508 12.6938C45.7097 12.5527 45.6392 12.3764 45.6392 12.1648C45.6392 11.9091 45.7318 11.7019 45.9169 11.5432C45.7582 11.2699 45.5069 11.0582 45.1631 10.9084C44.8192 10.7497 44.4357 10.6703 44.0124 10.6703C42.1785 10.6703 41.2615 11.8959 41.2615 14.347C41.2615 15.5549 41.4908 16.4851 41.9493 17.1376C42.4166 17.7812 43.1043 18.103 44.0124 18.103C44.5062 18.103 44.9294 18.0016 45.2821 17.7988C45.6436 17.596 45.9434 17.283 46.1814 16.8598C46.2608 16.7011 46.3357 16.5953 46.4063 16.5424C46.4768 16.4895 46.5694 16.4631 46.684 16.4631Z" fill="#282839"/>
  <path d="M57.641 9.75774C57.7909 9.75774 57.9143 9.81064 58.0113 9.91645C58.1171 10.0134 58.17 10.1369 58.17 10.2868V11.7019C58.17 11.9928 58.051 12.1383 57.8129 12.1383H57.4823C57.2442 12.1383 57.1252 11.9928 57.1252 11.7019V10.8026H55.1282V17.9708H55.472C55.763 17.9708 55.9085 18.0898 55.9085 18.3279V18.6585C55.9085 18.8965 55.763 19.0156 55.472 19.0156H53.594C53.3118 19.0156 53.1708 18.8965 53.1708 18.6585V18.3279C53.1708 18.0898 53.3118 17.9708 53.594 17.9708H53.9379V10.8026H51.9408V11.7019C51.9408 11.9928 51.8218 12.1383 51.5837 12.1383H51.2531C51.015 12.1383 50.896 11.9928 50.896 11.7019V10.2868C50.896 10.1369 50.9445 10.0134 51.0415 9.91645C51.1385 9.81064 51.2619 9.75774 51.4118 9.75774H57.641Z" fill="#282839"/>
  <path d="M62.1019 19.0156C61.8109 19.0156 61.6655 18.8965 61.6655 18.6585V18.3279C61.6655 18.0898 61.8109 17.9708 62.1019 17.9708H62.4458V10.8026H62.1019C61.8109 10.8026 61.6655 10.6835 61.6655 10.4455V10.1148C61.6655 9.87677 61.8109 9.75774 62.1019 9.75774H63.9799C64.2709 9.75774 64.4164 9.87677 64.4164 10.1148V10.4455C64.4164 10.6835 64.2709 10.8026 63.9799 10.8026H63.6361V17.9708H63.9799C64.2709 17.9708 64.4164 18.0898 64.4164 18.3279V18.6585C64.4164 18.8965 64.2709 19.0156 63.9799 19.0156H62.1019Z" fill="#282839"/>
  <path d="M72.154 19.1478C71.3252 19.1478 70.6066 18.9627 69.9982 18.5924C69.3987 18.2132 68.9358 17.6754 68.6096 16.9789C68.2833 16.2735 68.1202 15.4491 68.1202 14.5057C68.1202 13.527 68.2921 12.6718 68.636 11.9399C68.9799 11.1993 69.4692 10.6306 70.104 10.2339C70.7389 9.82828 71.4795 9.62549 72.3259 9.62549C73.1459 9.62549 73.8601 9.81505 74.4684 10.1942C75.0768 10.5645 75.5441 11.0979 75.8703 11.7945C76.1966 12.491 76.3597 13.311 76.3597 14.2544C76.3597 15.2419 76.1878 16.106 75.8439 16.8466C75.5 17.5784 75.0107 18.1471 74.3759 18.5527C73.741 18.9494 73.0004 19.1478 72.154 19.1478ZM72.1672 18.103C73.1106 18.103 73.8424 17.768 74.3626 17.0979C74.8828 16.4278 75.1429 15.4844 75.1429 14.2676C75.1429 13.1038 74.9005 12.2133 74.4155 11.5961C73.9306 10.9789 73.2297 10.6703 72.3127 10.6703C71.3693 10.6703 70.6375 11.0053 70.1173 11.6754C69.5971 12.3367 69.337 13.2757 69.337 14.4925C69.337 15.6651 69.5794 16.56 70.0644 17.1772C70.5493 17.7944 71.2502 18.103 72.1672 18.103Z" fill="#282839"/>
  <path d="M88.0082 9.75774C88.2904 9.75774 88.4314 9.87677 88.4314 10.1148V10.4455C88.4314 10.6835 88.2904 10.8026 88.0082 10.8026H87.6644V18.5262C87.6644 18.6673 87.6203 18.7863 87.5321 18.8833C87.4439 18.9715 87.3293 19.0156 87.1882 19.0156H86.7386C86.6063 19.0156 86.4917 18.9539 86.3947 18.8304L81.9245 11.8077V17.9708H82.2684C82.5593 17.9708 82.7048 18.0898 82.7048 18.3279V18.6585C82.7048 18.8965 82.5593 19.0156 82.2684 19.0156H80.4962C80.2052 19.0156 80.0597 18.8965 80.0597 18.6585V18.3279C80.0597 18.0898 80.2052 17.9708 80.4962 17.9708H80.84V10.8026H80.4962C80.2052 10.8026 80.0597 10.6835 80.0597 10.4455V10.1148C80.0597 9.87677 80.2052 9.75774 80.4962 9.75774H81.7526C81.8937 9.75774 82.0127 9.81946 82.1097 9.9429L86.5799 16.9656V10.8026H86.2228C85.9406 10.8026 85.7996 10.6835 85.7996 10.4455V10.1148C85.7996 9.87677 85.9406 9.75774 86.2228 9.75774H88.0082Z" fill="#282839"/>
  <path d="M44.0496 73.4867L44.7767 22.5898C44.7767 22.5006 44.6741 22.4412 44.5968 22.4887L0.559613 48.0776C0.464453 48.137 0.488246 48.2796 0.595302 48.2975L18.3012 51.8717C18.3785 51.8896 18.4201 51.9787 18.3785 52.05L7.54055 70.5616C7.51081 70.621 7.52866 70.6924 7.58813 70.728L20.8556 78.4767C20.9092 78.5064 20.9805 78.4886 21.0162 78.4351L31.8541 59.9161C31.8898 59.8448 31.9909 59.8388 32.0445 59.8982L43.8414 73.5639C43.9128 73.6471 44.0496 73.5937 44.0496 73.4867Z" fill="#7D7D9B" stroke="#282839" stroke-linecap="round" stroke-linejoin="round"/>
</svg>