<svg
  width="650"
  height="487"
  viewBox="0 0 650 487"
  fill="none"
  xmlns="http://www.w3.org/2000/svg"
  aria-hidden="true"
>
<path
    d="M529.882 397.141H511"
    stroke="#282839"
    stroke-linecap="round"
    stroke-linejoin="round"
  />
<path
    d="M222.882 397.141H204"
    stroke="#282839"
    stroke-linecap="round"
    stroke-linejoin="round"
  />
<path
    d="M506 397.141H477.413H461"
    stroke="#282839"
    stroke-linecap="round"
    stroke-linejoin="round"
  />
<path
    d="M470.5 397.139H313.59"
    stroke="#282839"
    stroke-linecap="round"
    stroke-linejoin="round"
  />
<path
    d="M310.068 397.139H298.941"
    stroke="#282839"
    stroke-linecap="round"
    stroke-linejoin="round"
  />
<path
    d="M491.621 204.747C488.664 193.925 484.597 183.285 479.515 173.101C447.141 109.015 374.235 87.0364 305.851 88.2146C296.272 88.3364 286.786 88.8808 277.3 89.6689C253.368 91.5702 228.538 95.1086 207.132 106.476C185.662 117.842 169.676 138.183 159.296 159.528C154.214 170.017 152.151 180.99 152.89 192.625C153.629 203.208 161.917 212.73 160.775 223.276C160.312 227.359 158.309 231.076 156.095 234.582C146.39 249.939 134.284 262.756 129.726 280.745C125.724 296.645 127.264 313.358 139.366 325.513C150.054 336.275 165.118 340.536 179.901 341.987C192.686 343.226 205.654 340.987 218.312 339.297C247.883 335.304 278.592 326.691 308.411 326.752C326.676 326.813 345.001 330.892 362.99 333.464C383.473 336.364 403.648 339.57 424.07 342.71C439.04 345.07 455.705 344.554 467.685 335.365C474.924 329.775 479.608 321.642 483.334 313.452C498.889 279.051 501.322 240.599 491.621 204.747Z"
    fill="#E9F9F9"
  />
<path
    d="M344.742 260.545V228.102C344.742 239.754 335.215 249.28 323.564 249.28L323.434 287.386C334.248 287.386 343.324 295.625 344.482 306.179V309.141L344.612 308.564C344.612 307.727 344.612 307.016 344.482 306.119V281.658C344.482 280.37 344.742 279.213 345.042 278.099C345.063 277.99 345.189 277.665 345.237 277.539C346.606 273.545 350.596 270.714 355.166 270.714C358.128 270.714 360.703 271.876 362.698 273.87C364.567 275.735 365.85 278.441 365.85 281.398V309.271C365.85 320.922 356.328 330.449 344.677 330.449V368.746H259.709V184.142C259.709 178.284 264.41 173.458 270.394 173.458C273.229 173.458 275.931 174.615 277.926 176.61C279.92 178.479 281.082 181.18 281.082 184.142V168.05C281.082 162.192 285.779 157.366 291.767 157.366C294.598 157.366 297.3 158.524 299.299 160.519C301.293 162.383 302.451 165.089 302.451 168.05V152.085C302.451 146.231 307.151 141.4 313.135 141.4C315.967 141.4 318.673 142.558 320.667 144.557C322.662 146.422 323.82 149.127 323.82 152.085V227.33C323.82 215.683 333.346 206.157 344.998 206.157C356.649 206.157 366.175 215.683 366.175 227.33V259.644C366.175 265.632 361.345 270.328 355.491 270.328C352.529 270.328 349.824 269.17 347.959 267.175C346.541 265.758 345.514 263.893 344.888 262.085C344.742 261.573 344.742 260.996 344.742 260.545Z"
    fill="white"
    stroke="#282839"
    stroke-linecap="round"
    stroke-linejoin="round"
  />
<path
    d="M344.481 306.244C344.611 306.955 344.611 307.792 344.611 308.69L344.481 309.271V306.244Z"
    fill="white"
    stroke="#282839"
    stroke-linecap="round"
    stroke-linejoin="round"
  />
<path
    d="M350.47 350.66H253.404V364.882H350.47V350.66Z"
    fill="#04C6CD"
    stroke="#282839"
    stroke-linecap="round"
    stroke-linejoin="round"
  />
<path
    d="M320.858 362.567H354.459V397.005H249.541V362.567H311.718H320.858Z"
    fill="#3C3C56"
    stroke="#282839"
    stroke-linecap="round"
    stroke-linejoin="round"
  />
<path
    d="M337.916 385.224C340.902 385.224 343.324 382.802 343.324 379.817C343.324 376.831 340.902 374.409 337.916 374.409C334.931 374.409 332.509 376.831 332.509 379.817C332.509 382.802 334.931 385.224 337.916 385.224Z"
    fill="white"
    stroke="#282839"
    stroke-linecap="round"
    stroke-linejoin="round"
  />
<path
    d="M281.171 269.008V253.753"
    stroke="#282839"
    stroke-linecap="round"
    stroke-linejoin="round"
  />
<path
    d="M281.082 184.077V243.808"
    stroke="#282839"
    stroke-linecap="round"
    stroke-linejoin="round"
  />
<path
    d="M302.443 167.941L301.866 239.067"
    stroke="#282839"
    stroke-linecap="round"
    stroke-linejoin="round"
  />
<path
    d="M227.656 397.005H376.344"
    stroke="#282839"
    stroke-linecap="round"
    stroke-linejoin="round"
  />
<path
    d="M344.868 262.024C344.742 261.317 344.612 260.61 344.612 259.773V236.15C344.612 235.569 344.612 234.992 344.742 234.411V260.61C344.742 260.996 344.742 261.573 344.868 262.024Z"
    fill="white"
    stroke="#282839"
    stroke-linecap="round"
    stroke-linejoin="round"
  />
<path
    d="M408.759 207.044C422.693 207.044 433.979 195.758 433.979 181.824C433.979 167.893 422.693 156.604 408.759 156.604C394.828 156.604 383.539 167.893 383.539 181.824C383.539 195.758 394.828 207.044 408.759 207.044Z"
    fill="#04C6CD"
    stroke="#282839"
    stroke-linecap="round"
    stroke-linejoin="round"
  />
<path
    d="M397.64 181.649L405.257 189.266L419.971 174.467"
    stroke="#282839"
    stroke-linecap="round"
    stroke-linejoin="round"
  />
<path
    d="M226.133 154.036H139.541C128.665 154.036 119.874 145.245 119.874 134.374C119.874 123.498 128.665 114.707 139.541 114.707H194.75H199.763H213.697C218.061 114.707 221.575 118.225 221.575 122.588C221.575 126.951 218.061 130.465 213.697 130.465H226.588H244.17C250.678 130.465 256.082 135.869 256.082 142.381C256.082 148.893 250.678 154.296 244.17 154.296H231.731"
    fill="#4B4B66"
  />
<path
    d="M226.133 154.036H139.541C128.665 154.036 119.874 145.245 119.874 134.374C119.874 123.498 128.665 114.707 139.541 114.707H194.75H199.763H213.697C218.061 114.707 221.575 118.225 221.575 122.588C221.575 126.951 218.061 130.465 213.697 130.465H226.588H244.17C250.678 130.465 256.082 135.869 256.082 142.381C256.082 148.893 250.678 154.296 244.17 154.296H231.731"
    stroke="#282839"
    stroke-linecap="round"
    stroke-linejoin="round"
  />
<path
    d="M213.698 130.595H199.048"
    stroke="#282839"
    stroke-linecap="round"
    stroke-linejoin="round"
  />
<path
    d="M191.886 130.595H179.191"
    stroke="#282839"
    stroke-linecap="round"
    stroke-linejoin="round"
  />
<path
    d="M140.451 314.284L169.623 219.242L198.796 314.284H140.451Z"
    fill="#A5A4BC"
    stroke="#282839"
    stroke-linecap="round"
    stroke-linejoin="round"
  />
<path d="M169.624 367.085V283.592V367.085Z" fill="#A5A4BC" />
<path
    d="M169.624 367.085V283.592"
    stroke="#282839"
    stroke-linecap="round"
    stroke-linejoin="round"
  />
<path d="M169.624 396.944V375.214V396.944Z" fill="#A5A4BC" />
<path
    d="M169.624 396.944V375.214"
    stroke="#282839"
    stroke-linecap="round"
    stroke-linejoin="round"
  />
<path d="M179.272 273.944L169.624 283.592L159.975 273.944" fill="#A5A4BC" />
<path
    d="M179.272 273.944L169.624 283.592L159.975 273.944"
    stroke="#282839"
    stroke-linecap="round"
    stroke-linejoin="round"
  />
<path d="M179.272 288.833L169.624 298.482L159.975 288.833" fill="#A5A4BC" />
<path
    d="M179.272 288.833L169.624 298.482L159.975 288.833"
    stroke="#282839"
    stroke-linecap="round"
    stroke-linejoin="round"
  />
<path
    d="M403.246 306.366C411.517 306.366 418.228 299.659 418.228 291.388C418.228 283.117 411.517 276.405 403.246 276.405C394.974 276.405 388.267 283.117 388.267 291.388C388.267 299.659 394.974 306.366 403.246 306.366Z"
    fill="#E7E7EE"
    stroke="#282839"
    stroke-linecap="round"
    stroke-linejoin="round"
  />
<path
    d="M403.246 331.387V291.387"
    stroke="#282839"
    stroke-linecap="round"
    stroke-linejoin="round"
  />
<path
    d="M403.246 350.972V339.861"
    stroke="#282839"
    stroke-linecap="round"
    stroke-linejoin="round"
  />
<path
    d="M403.246 396.818V358.545"
    stroke="#282839"
    stroke-linecap="round"
    stroke-linejoin="round"
  />
<path
    d="M439.048 350.972C447.32 350.972 454.027 344.265 454.027 335.994C454.027 327.722 447.32 321.015 439.048 321.015C430.777 321.015 424.07 327.722 424.07 335.994C424.07 344.265 430.777 350.972 439.048 350.972Z"
    fill="#3C3C56"
    stroke="#282839"
    stroke-linecap="round"
    stroke-linejoin="round"
  />
<path
    d="M439.048 396.817V350.972"
    stroke="#282839"
    stroke-linecap="round"
    stroke-linejoin="round"
  />
<path
    d="M470.24 270.892C484.512 270.892 496.086 259.322 496.086 245.051C496.086 230.779 484.512 219.205 470.24 219.205C455.968 219.205 444.398 230.779 444.398 245.051C444.398 259.322 455.968 270.892 470.24 270.892Z"
    fill="#E7E7EE"
    stroke="#282839"
    stroke-linecap="round"
    stroke-linejoin="round"
  />
<path
    d="M470.24 396.818V245.872"
    stroke="#282839"
    stroke-linecap="round"
    stroke-linejoin="round"
  />
<path
    d="M479.706 248.589L470.24 258.055L460.778 248.589"
    stroke="#282839"
    stroke-linecap="round"
    stroke-linejoin="round"
  />
<path
    d="M470.24 270.892C484.512 270.892 496.086 259.322 496.086 245.051C496.086 230.779 484.512 219.205 470.24 219.205C455.968 219.205 444.398 230.779 444.398 245.051C444.398 259.322 455.968 270.892 470.24 270.892Z"
    stroke="#282839"
    stroke-linecap="round"
    stroke-linejoin="round"
  />
</svg>
