<svg width="650" height="488" viewBox="0 0 650 488" fill="none" xmlns="http://www.w3.org/2000/svg">
	<path d="M546.882 283.173C545.192 264.92 537.635 248.085 528.84 231.916C525.549 225.79 521.418 220.163 516.799 214.788C521.82 202.581 525.33 189.869 526.13 176.617C527.239 157.991 521.199 138.153 509.998 122.736C487.025 91.2316 450.145 73.9375 410.646 68.315C372.564 62.855 332.439 60.9781 294.048 65.0203C273.918 67.1044 253.837 70.2731 234.683 76.9803C215.223 83.8581 198.38 92.69 182.163 104.735C173.721 111.028 166.035 118.068 159.189 125.986C126.799 155.492 106.669 195.288 103.249 238.335C99.1617 290.591 124.219 346.263 167.59 379.433C211.49 412.896 268.231 428.232 324.484 424.564C354.656 422.606 384.341 416.479 412.689 406.522C440.371 396.853 468.63 385.101 493.07 369.476C523.551 350.224 550.392 319.638 546.882 283.173Z" fill="#E9F9F9"/>
	<path d="M476.633 226.163L512.281 218.794" stroke="#282839" stroke-width="2" stroke-linecap="round" stroke-linejoin="round"/>
	<path d="M137.719 296.274L173.367 288.905" stroke="#282839" stroke-width="2" stroke-linecap="round" stroke-linejoin="round"/>
	<path d="M454.289 342.619L484.713 362.582" stroke="#282839" stroke-width="2" stroke-linecap="round" stroke-linejoin="round"/>
	<path d="M165.287 152.486L195.711 172.449" stroke="#282839" stroke-width="2" stroke-linecap="round" stroke-linejoin="round"/>
	<path d="M286.26 70.2528L293.629 105.905" stroke="#282839" stroke-width="2" stroke-linecap="round" stroke-linejoin="round"/>
	<path d="M239.915 386.827L219.952 417.247" stroke="#282839" stroke-width="2" stroke-linecap="round" stroke-linejoin="round"/>
	<path d="M430.048 97.8209L410.085 128.245" stroke="#282839" stroke-width="2" stroke-linecap="round" stroke-linejoin="round"/>
	<path d="M293.577 377.435L271.197 340.73L232.164 358.812L270.12 233.659L331.358 252.098L293.577 377.435Z" fill="#00778F" stroke="#282839" stroke-width="2" stroke-linecap="round" stroke-linejoin="round"/>
	<path d="M396.712 288.807L379.881 233.659L318.643 252.098L356.424 377.435L378.983 340.73L417.837 358.812L407.632 324.976" fill="#00778F"/>
	<path d="M396.712 288.807L379.881 233.659L318.643 252.098L356.424 377.435L378.983 340.73L417.837 358.812L407.632 324.976" stroke="#282839" stroke-width="2" stroke-linecap="round" stroke-linejoin="round"/>
	<path d="M325.09 275.555C357.318 275.555 383.46 249.413 383.46 217.185C383.46 184.957 357.318 158.815 325.09 158.815C292.842 158.815 266.72 184.957 266.72 217.185C266.72 249.413 292.842 275.555 325.09 275.555Z" fill="#04C6CD" stroke="#282839" stroke-width="2" stroke-linecap="round" stroke-linejoin="round"/>
	<path d="M404.588 314.767L399.754 299.191" stroke="#282839" stroke-width="2" stroke-linecap="round" stroke-linejoin="round"/>
	<path d="M325.09 183.881C343.534 183.881 358.394 198.742 358.394 217.185C358.394 235.629 343.534 250.49 325.09 250.49C317.034 250.49 309.514 247.626 303.782 242.791" fill="#04C6CD"/>
	<path d="M325.09 183.881C343.534 183.881 358.394 198.742 358.394 217.185C358.394 235.629 343.534 250.49 325.09 250.49C317.034 250.49 309.514 247.626 303.782 242.791" stroke="#282839" stroke-width="2" stroke-linecap="round" stroke-linejoin="round"/>
	<path d="M291.606 217.185C291.606 206.083 296.977 196.235 305.395 190.149" stroke="#282839" stroke-width="2" stroke-linecap="round" stroke-linejoin="round"/>
	<path d="M552.914 105.861V71.3009H518.358L552.914 105.861Z" fill="#E7E7EE" stroke="#282839" stroke-width="2" stroke-linecap="round" stroke-linejoin="round"/>
	<path d="M96.1348 77.4881C100.112 77.4881 103.334 74.2665 103.334 70.2893C103.334 66.3121 100.112 63.0906 96.1348 63.0906C92.1576 63.0906 88.936 66.3121 88.936 70.2893C88.936 74.2665 92.1576 77.4881 96.1348 77.4881Z" fill="#A5A4BC" stroke="#282839" stroke-width="2" stroke-linecap="round" stroke-linejoin="round"/>
	<path d="M215.284 132.157C218.091 132.157 220.366 129.882 220.366 127.075C220.366 124.268 218.091 121.993 215.284 121.993C212.477 121.993 210.202 124.268 210.202 127.075C210.202 129.882 212.477 132.157 215.284 132.157Z" fill="white" stroke="#282839" stroke-width="2" stroke-linecap="round" stroke-linejoin="round"/>
	<path d="M87.5144 237.132C92.361 237.132 96.2854 241.057 96.2854 245.899C96.2854 250.746 92.361 254.666 87.5144 254.666C82.6719 254.666 78.7476 250.746 78.7476 245.899C78.7476 241.057 82.6719 237.132 87.5144 237.132Z" fill="#E7E7EE" stroke="#282839" stroke-width="2" stroke-linecap="round" stroke-linejoin="round"/>
	<path d="M66.6819 271.944C69.4606 271.944 71.7194 274.198 71.7194 276.977C71.7194 279.756 69.4606 282.011 66.6819 282.011C63.9072 282.011 61.6484 279.756 61.6484 276.977C61.6484 274.198 63.9072 271.944 66.6819 271.944Z" fill="#A5A4BC" stroke="#282839" stroke-width="2" stroke-linecap="round" stroke-linejoin="round"/>
	<path d="M523.884 418.121C526.659 418.121 528.918 420.379 528.918 423.154C528.918 425.933 526.659 428.192 523.884 428.192C521.105 428.192 518.847 425.933 518.847 423.154C518.847 420.379 521.105 418.121 523.884 418.121Z" fill="white" stroke="#282839" stroke-width="2" stroke-linecap="round" stroke-linejoin="round"/>
	<path d="M576.79 207.687C578.049 215.406 572.805 222.67 565.098 223.929C557.379 225.18 550.116 219.936 548.864 212.229C547.605 204.51 552.85 197.247 560.556 195.995C568.275 194.736 575.539 199.981 576.79 207.687Z" fill="#A5A4BC" stroke="#282839" stroke-width="2" stroke-linecap="round" stroke-linejoin="round"/>
	</svg>
	