<svg width="650" height="487" viewBox="0 0 650 487" fill="none" xmlns="http://www.w3.org/2000/svg">
	<path d="M531.518 306.076C530.438 303.013 529.044 300.158 527.27 297.408C522.363 289.963 515.159 284.289 508.028 278.86C510.22 280.531 519.544 250.636 519.789 248.131C520.973 236.229 518.918 223.91 513.28 213.333C505.033 197.882 490.521 187.057 474.688 180.271C458.575 173.348 442.533 171.886 425.167 171.501C424.299 171.501 423.428 171.433 422.628 171.12C418.312 169.136 415.248 160.089 412.325 156.363C407.595 150.448 402.094 145.264 395.971 140.844C383.651 132.074 368.963 126.609 353.861 125.742C350.798 125.533 347.666 125.533 344.743 124.73C333.226 121.461 324.176 114.43 311.856 112.17C298.285 109.628 284.122 109.977 270.619 112.76C228.441 121.67 190.439 157.548 197.575 203.588C182.923 205.572 169.214 213.646 160.304 225.408C151.394 237.169 147.463 252.552 149.515 267.204C135.071 271.934 123.242 283.836 118.508 298.21C113.774 312.582 116.456 329.286 125.362 341.536C136.151 356.361 154.493 363.878 172.623 367.01C201.297 371.917 230.565 367.464 259.588 365.271C299.991 362.208 340.498 363.529 380.901 364.332C401.122 364.713 421.376 364.99 441.593 364.609C469.745 364.018 514.115 368.054 529.43 337.987C534.509 328.242 535.1 316.376 531.518 306.076Z" fill="#E9F9F9"/>
	<path d="M535.585 159.294H380.249V261.904H535.585V159.294Z" fill="#F3F4F7" stroke="#282839" stroke-linecap="round" stroke-linejoin="round"/>
	<path d="M392.396 169.748H411.731" stroke="#282839" stroke-linecap="round" stroke-linejoin="round"/>
	<path d="M409.279 176.286H411.731" stroke="#282839" stroke-linecap="round" stroke-linejoin="round"/>
	<path d="M392.396 176.286H406.828" stroke="#282839" stroke-linecap="round" stroke-linejoin="round"/>
	<path d="M392.396 182.823H402.144" stroke="#282839" stroke-linecap="round" stroke-linejoin="round"/>
	<path d="M481.265 211.699C479.001 210.946 476.611 211.238 474.681 212.329L479.041 198.822L465.537 194.462C466.585 196.431 466.88 198.782 466.163 201.046C464.738 205.449 460 207.883 455.594 206.457C451.191 205.032 448.757 200.29 450.183 195.888C450.939 193.623 452.534 191.859 454.546 190.894L441.039 186.531L428.749 224.536L466.754 236.827L471.113 223.32C472.078 225.332 473.799 226.97 476.107 227.683C480.509 229.108 485.251 226.675 486.676 222.272C488.102 217.866 485.711 213.128 481.265 211.699Z" fill="#3C3C56" stroke="#282839" stroke-linecap="round" stroke-linejoin="round"/>
	<path d="M487.677 330.02H449.182L454.24 376.748H482.615L487.677 330.02Z" fill="#7D7D9B" stroke="#282839" stroke-linecap="round" stroke-linejoin="round"/>
	<path d="M456.494 330.02L446.331 299.254" stroke="#282839" stroke-linecap="round" stroke-linejoin="round"/>
	<path d="M468.496 330.02L458.333 299.254" stroke="#282839" stroke-linecap="round" stroke-linejoin="round"/>
	<path d="M477.511 330.02L483.4 312.038" stroke="#282839" stroke-linecap="round" stroke-linejoin="round"/>
	<path d="M204.332 376.64H88.5161" stroke="#282839" stroke-linecap="round" stroke-linejoin="round"/>
	<path d="M561.484 376.64H229.337" stroke="#282839" stroke-linecap="round" stroke-linejoin="round"/>
	<path d="M320.82 311.192L351.183 366.542" stroke="#282839" stroke-linecap="round" stroke-linejoin="round"/>
	<path d="M415.824 318.784H234.176C231.105 318.784 228.632 316.311 228.632 313.24V293.624L325 239.728L421.368 293.624V313.24C421.368 316.311 418.895 318.784 415.824 318.784Z" fill="#3C3C56" stroke="#282839" stroke-linecap="round" stroke-linejoin="round"/>
	<path d="M380.944 293.624H228.632V185.916H421.368V293.624" fill="#04C6CD"/>
	<path d="M380.944 293.624H228.632V185.916H421.368V293.624" stroke="#282839" stroke-linecap="round" stroke-linejoin="round"/>
	<path d="M394.077 293.624H412.242" stroke="#282839" stroke-linecap="round" stroke-linejoin="round"/>
	<path d="M360.392 376.69H289.608V370.549C289.608 366.625 292.762 363.385 296.772 363.385H353.314C357.238 363.385 360.478 366.542 360.478 370.549L360.392 376.69Z" fill="#3C3C56" stroke="#282839" stroke-linecap="round" stroke-linejoin="round"/>
	<path d="M299.692 217.423C304.178 217.423 304.178 226.434 308.628 226.434C313.113 226.434 313.113 217.423 317.563 217.423C322.009 217.423 322.048 226.434 326.574 226.434C331.063 226.434 331.063 217.423 335.509 217.423C339.958 217.423 339.998 226.434 344.523 226.434C349.048 226.434 349.012 217.423 353.538 217.423" stroke="#282839" stroke-linecap="round" stroke-linejoin="round"/>
	<path d="M290.912 217.423H299.692" stroke="#282839" stroke-linecap="round" stroke-linejoin="round"/>
	<path d="M353.577 217.423H362.433" stroke="#282839" stroke-linecap="round" stroke-linejoin="round"/>
	<path d="M287.567 245.604L292.723 236.435L297.961 245.604H287.567Z" fill="#04C6CD" stroke="#282839" stroke-linecap="round" stroke-linejoin="round"/>
	<path d="M324.647 245.921C327.362 245.921 329.565 243.714 329.565 240.999C329.565 238.285 327.362 236.078 324.647 236.078C321.929 236.078 319.726 238.285 319.726 240.999C319.726 243.714 321.929 245.921 324.647 245.921Z" fill="#04C6CD" stroke="#282839" stroke-linecap="round" stroke-linejoin="round"/>
	<path d="M308.782 237.417V244.621" stroke="#282839" stroke-linecap="round" stroke-linejoin="round"/>
	<path d="M312.404 240.999H305.161" stroke="#282839" stroke-linecap="round" stroke-linejoin="round"/>
	<path d="M341.61 235.999H360.305" stroke="#282839" stroke-linecap="round" stroke-linejoin="round"/>
	<path d="M341.61 240.171H360.305" stroke="#282839" stroke-linecap="round" stroke-linejoin="round"/>
	<path d="M341.61 244.264H349.048" stroke="#282839" stroke-linecap="round" stroke-linejoin="round"/>
	<path d="M352.828 244.264H360.305" stroke="#282839" stroke-linecap="round" stroke-linejoin="round"/>
	<path d="M329.252 258.279H311.813V275.714H329.252V258.279Z" fill="#3D84A8" stroke="#282839" stroke-linecap="round" stroke-linejoin="round"/>
	<path d="M360.345 258.279H342.91V275.714H360.345V258.279Z" fill="#3D84A8" stroke="#282839" stroke-linecap="round" stroke-linejoin="round"/>
	<path d="M320.551 269.616C322.009 269.616 323.19 268.435 323.19 266.977C323.19 265.522 322.009 264.342 320.551 264.342C319.096 264.342 317.916 265.522 317.916 266.977C317.916 268.435 319.096 269.616 320.551 269.616Z" fill="white" stroke="#282839" stroke-linecap="round" stroke-linejoin="round"/>
	<path d="M351.608 269.616C353.066 269.616 354.247 268.435 354.247 266.977C354.247 265.522 353.066 264.342 351.608 264.342C350.153 264.342 348.973 265.522 348.973 266.977C348.973 268.435 350.153 269.616 351.608 269.616Z" fill="white" stroke="#282839" stroke-linecap="round" stroke-linejoin="round"/>
	<path d="M323.189 266.977H348.973" stroke="#282839" stroke-linecap="round" stroke-linejoin="round"/>
	<path d="M208.248 205.608H197.837V241.176H261.95L274.424 253.628V241.176H281.876V205.608H215.459" fill="#F3F4F7"/>
	<path d="M208.248 205.608H197.837V241.176H261.95L274.424 253.628V241.176H281.876V205.608H215.459" stroke="#282839" stroke-linecap="round" stroke-linejoin="round"/>
	<path d="M213.681 205.608H210.199" stroke="#282839" stroke-linecap="round" stroke-linejoin="round"/>
	<path d="M217.921 232.273C222.825 232.273 226.803 228.295 226.803 223.392C226.803 218.488 222.825 214.51 217.921 214.51C213.018 214.51 209.04 218.488 209.04 223.392C209.04 228.295 213.018 232.273 217.921 232.273Z" fill="#3C3C56" stroke="#282839" stroke-linecap="round" stroke-linejoin="round"/>
	<path d="M234.572 226.941H270.669" stroke="#282839" stroke-linecap="round" stroke-linejoin="round"/>
	<path d="M243.68 231.319H263.811" stroke="#282839" stroke-linecap="round" stroke-linejoin="round"/>
	<path d="M234.572 231.319H241.343" stroke="#282839" stroke-linecap="round" stroke-linejoin="round"/>
	<path d="M136.72 198.883C155.055 198.883 169.923 184.015 169.923 165.68C169.923 147.345 155.055 132.477 136.72 132.477C118.378 132.477 103.517 147.345 103.517 165.68C103.517 184.015 118.378 198.883 136.72 198.883Z" fill="#F3F4F7" stroke="#282839" stroke-linecap="round" stroke-linejoin="round"/>
	<path d="M144.399 146.737H127.648V153.148H144.399V146.737Z" fill="#3C3C56" stroke="#282839" stroke-linecap="round" stroke-linejoin="round"/>
	<path d="M144.399 153.148H127.648V159.564H144.399V153.148Z" fill="#7D7D9B" stroke="#282839" stroke-linecap="round" stroke-linejoin="round"/>
	<path d="M132.627 173.107H115.876V179.519H132.627V173.107Z" fill="#3C3C56" stroke="#282839" stroke-linecap="round" stroke-linejoin="round"/>
	<path d="M157.647 173.107H140.896V179.519H157.647V173.107Z" fill="#7D7D9B" stroke="#282839" stroke-linecap="round" stroke-linejoin="round"/>
	<path d="M136.086 159.603L124.991 170.702" stroke="#282839" stroke-linecap="round" stroke-linejoin="round"/>
	<path d="M136.086 159.603L147.181 170.702" stroke="#282839" stroke-linecap="round" stroke-linejoin="round"/>
	</svg>
	