<svg xmlns="http://www.w3.org/2000/svg" fill="none" viewBox="0 0 650 487" aria-hidden="true">
  <path fill="#e9f9f9" d="M528.822 254.982c-1.65-9.092-5.117-17.813-9.461-25.925-1.852-3.449-4.006-6.997-4.681-10.884-1.178-6.523 1.718-12.878 3.674-19.198 19.595-63.821-49.633-100.462-102.359-102.828-33.603-1.521-66.733 8.857-93.941 28.701-52.421-17.24-126.767-12.17-150.337 46.915-1.983 4.935-3.534 10.175-6.767 14.333-3.805 5.002-9.529 8.044-14.543 11.764-12.626 9.362-21.313 23.83-23.737 39.345-6.061 39.345 29.965 82.036 68.653 85.823 12.829 1.251 25.756-.541 38.212-3.616 2.896-.677 30.441-11.696 30.171-12.003 46.027 32.859 106.766 36.642 161.278 35.391 15.454-.338 31.551-1.521 46.026-7.2 29.192-11.425 58.387-33.057 58.99-67.468 0-4.293-.337-8.722-1.178-13.15"/><mask id="a" fill="#fff">
  <path d="M146.585 378.679v16.212h202.24v-37.59h-202.24v7.2"/></mask>
  <path fill="#e7e7ee" d="M146.585 378.679v16.212h202.24v-37.59h-202.24v7.2"/>
  <path fill="#282839" d="M146.585 394.891h-1v1h1zm202.24 0v1h1v-1zm0-37.59h1v-1h-1zm-202.24 0v-1h-1v1zm-1 21.378v16.212h2v-16.212zm1 17.212h202.24v-2h-202.24zm203.24-1v-37.59h-2v37.59zm-1-38.59h-202.24v2h202.24zm-203.24 1v7.2h2v-7.2z" mask="url(#a)"/>
  <path fill="#e7e7ee" stroke="#282839" stroke-linecap="round" stroke-linejoin="round" d="M180.646 320.111h168.179v37.687H180.646z"/>
  <path fill="#e7e7ee" d="M333.665 282.424H214.709v37.687h134.117v-37.687h-10.614"/>
  <path stroke="#282839" stroke-linecap="round" stroke-linejoin="round" d="M333.665 282.424H214.709v37.687h134.116v-37.687h-10.613M146.585 368.873v6.646"/>
  <path fill="#3c3c56" stroke="#282839" stroke-linecap="round" stroke-linejoin="round" d="m244.478 222.903 25.988-4.81 26.036 4.81v97.208h-52.024z"/><mask id="b" fill="#fff">
  <path d="m318.695 178.383 12.839-5.649 7.811 17.605-42.843 21.004v11.56h-52.024v-7.589c-5.867 0-10.677-4.766-10.677-10.677v-24.092c0-12.931 10.502-23.433 23.428-23.433h24.844c7.632 0 13.766 6.181 13.766 13.77v17.561l18.841-8.296"/></mask>
  <path fill="#fff" d="m318.695 178.383 12.839-5.649 7.811 17.605-42.843 21.004v11.56h-52.024v-7.589c-5.867 0-10.677-4.766-10.677-10.677v-24.092c0-12.931 10.502-23.433 23.428-23.433h24.844c7.632 0 13.766 6.181 13.766 13.77v17.561l18.841-8.296"/>
  <path fill="#282839" d="m331.534 172.734.914-.405-.404-.912-.913.402zm7.811 17.605.44.898.864-.423-.39-.88zm-42.843 21.004-.44-.898-.56.275v.623zm0 11.56v1h1v-1zm-52.024 0h-1v1h1zm0-7.589h1v-1h-1zm51.361-26.871h-1v1.533l1.403-.618zm23.259-9.145 12.839-5.649-.806-1.83-12.839 5.648zm11.522-6.158 7.811 17.605 1.828-.811-7.811-17.605zm8.285 16.301-42.843 21.004.881 1.796 42.842-21.004zm-43.403 21.902v11.56h2v-11.56zm1 10.56h-52.024v2h52.024zm-51.024 1v-7.589h-2v7.589zm-1-8.589c-5.318 0-9.677-4.321-9.677-9.677h-2c0 6.466 5.26 11.677 11.677 11.677zm-9.677-9.677v-24.092h-2v24.092zm0-24.092c0-12.379 10.054-22.433 22.428-22.433v-2c-13.479 0-24.428 10.95-24.428 24.433zm22.428-22.433h24.844v-2h-24.844zm24.844 0c7.077 0 12.766 5.731 12.766 12.77h2c0-8.138-6.579-14.77-14.766-14.77zm12.766 12.77v17.561h2v-17.561zm1.403 18.476 18.841-8.295-.806-1.831-18.841 8.296z" mask="url(#b)"/>
  <path stroke="#282839" stroke-linecap="round" stroke-linejoin="round" d="m318.695 178.383 12.839-5.649 7.811 17.605-42.843 21.004v11.56h-52.024v-7.589c-5.867 0-10.677-4.766-10.677-10.677v-24.092c0-12.931 10.502-23.433 23.428-23.433h24.844c7.632 0 13.766 6.181 13.766 13.77v17.561l18.841-8.296"/>
  <path fill="#fff" stroke="#282839" stroke-linecap="round" stroke-linejoin="round" d="M277.573 141.626s-13.105-7.855-23.961 2.162c-2.25 2.075-6.662 8.296-3.22 16.504 3.53 5.426 10.061 8.471 16.811 7.235 11.869-2.163 17.474-16.059 10.37-25.901"/>
  <path stroke="#282839" stroke-linecap="round" stroke-linejoin="round" d="m272.366 148.598.926 5.251M268.968 154.644a2.2 2.2 0 0 0 2.56 1.765 2.205 2.205 0 0 0 1.765-2.56"/>
  <path fill="#3c3c56" stroke="#282839" stroke-linecap="round" stroke-linejoin="round" d="M261.201 135.095c-11.516 2.119-17.296 15.312-10.852 25.197 3.971-.707 6.574-4.503 5.823-8.474l-1.105-6.042 22.459-4.107c-3.574-5.028-9.838-7.763-16.325-6.574"/>
  <path fill="#7d7d9b" stroke="#282839" stroke-linecap="round" stroke-linejoin="round" d="M311.46 168.938h-29.697l-3.399 21.091 8.519-3.438 6.706 19.414-16.413 6.575h27.268z"/>
  <path stroke="#282839" stroke-linecap="round" stroke-linejoin="round" d="M244.478 215.314h25.813l6.885-2.734M255.289 187.426a7.797 7.797 0 0 1-7.81 7.811h18.002l12.927-5.208M279.731 245.584v-5.295M279.731 320.111V249.38"/>
  <path fill="#00778f" stroke="#282839" stroke-linecap="round" stroke-linejoin="round" d="M501.115 281.017h-69.28v28.763h69.28z"/>
  <path stroke="#282839" stroke-linecap="round" stroke-linejoin="round" d="m431.834 309.781-18.881 18.829M454.123 291.225v8.292M460.327 291.225v8.292M472.678 291.225v8.292M478.827 291.225v8.292"/>
  <path fill="#00778f" stroke="#282839" stroke-linecap="round" stroke-linejoin="round" d="M394.013 340.579h-69.277v28.763h69.277z"/>
  <path stroke="#282839" stroke-linecap="round" stroke-linejoin="round" d="m394.068 369.342 18.83 18.829M347.076 350.787v8.291M353.226 350.787v8.291M365.575 350.787v8.291"/>
  <path fill="#7d7d9b" stroke="#282839" stroke-linecap="round" stroke-linejoin="round" d="M394.013 221.456h-69.277v28.763h69.277z"/>
  <path stroke="#282839" stroke-linecap="round" stroke-linejoin="round" d="m394.068 250.219 18.83 18.83M347.076 231.664v8.292M365.575 231.664v8.292M371.78 231.664v8.292"/>
  <path fill="#00778f" stroke="#282839" stroke-linecap="round" stroke-linejoin="round" d="M394.013 161.895h-69.277v28.763h69.277z"/>
  <path stroke="#282839" stroke-linecap="round" stroke-linejoin="round" d="m394.068 190.658 18.83 18.829M347.076 172.102v8.292M353.226 172.102v8.292M359.43 172.102v8.292M371.78 172.102v8.292M412.953 388.172V209.487"/>
  <path fill="#00778f" stroke="#282839" stroke-linecap="round" stroke-linejoin="round" d="M412.953 395.474a7.3 7.3 0 0 0 7.299-7.303 7.297 7.297 0 0 0-7.299-7.302 7.303 7.303 0 0 0 0 14.605M412.953 335.912a7.3 7.3 0 0 0 7.299-7.302 7.297 7.297 0 0 0-7.299-7.302 7.302 7.302 0 0 0 0 14.604M412.953 276.351a7.3 7.3 0 0 0 7.299-7.302 7.297 7.297 0 0 0-7.299-7.302 7.302 7.302 0 0 0 0 14.604M412.953 216.789a7.3 7.3 0 0 0 7.299-7.302 7.297 7.297 0 0 0-7.299-7.302 7.303 7.303 0 0 0 0 14.604"/>
  <path fill="#7d7d9b" stroke="#282839" stroke-linecap="round" stroke-linejoin="round" d="m121.686 272.228 7.803-5.887 9.321 3.105-3.216-9.282 5.82-7.878-9.795.183-5.708-7.986-2.854 9.357-9.357 2.961 8.058 5.637z"/>
  <path fill="#ccccdb" stroke="#282839" stroke-linecap="round" stroke-linejoin="round" d="m526.345 260.666 2.528-6.937 7.155-1.844-5.816-4.551.469-7.334-6.141 4.118-6.865-2.711 2.023 7.083-4.698 5.673 7.37.286z"/><mask id="c" fill="#fff">
  <path d="m334.898 116.275 2.528 1.049 2.782 13.186 8.781-10.224 13.404 1.447-7.012-11.528 5.529-12.282-13.113 3.108L337.788 92l-1.121 13.403L325 112.121l6.392 2.675"/></mask>
  <path fill="#e7e7ee" d="m334.898 116.275 2.528 1.049 2.782 13.186 8.781-10.224 13.404 1.447-7.012-11.528 5.529-12.282-13.113 3.108L337.788 92l-1.121 13.403L325 112.121l6.392 2.675"/>
  <path fill="#282839" d="m337.426 117.324.978-.206-.108-.515-.487-.202zm2.782 13.186-.978.206.418 1.981 1.319-1.536zm8.781-10.224.107-.994-.523-.057-.342.399zm13.404 1.447-.108.994 2.015.217-1.053-1.731zm-7.012-11.528-.912-.41-.216.48.274.45zm5.529-12.282.912.41.834-1.852-1.977.469zm-13.113 3.108-.67.742.389.352.511-.121zM337.788 92l.669-.743-1.498-1.352-.168 2.011zm-1.121 13.403.499.867.453-.261.044-.522zM325 112.121l-.499-.866-1.752 1.008 1.865.781zm9.514 5.078 2.528 1.049.767-1.847-2.528-1.05zm1.933.332 2.783 13.185 1.957-.413-2.783-13.185zm4.52 13.63 8.781-10.224-1.517-1.303-8.781 10.224zm7.915-9.881 13.403 1.447.215-1.988-13.404-1.447zm14.365-.067-7.012-11.527-1.708 1.039 7.011 11.527zm-6.954-10.597 5.529-12.283-1.824-.821-5.529 12.283zm4.386-13.666-13.113 3.108.461 1.946 13.114-3.109zm-12.212 3.338-10.01-9.03-1.339 1.484 10.009 9.031zm-11.676-8.372-1.121 13.404 1.993.167 1.121-13.404zm-.623 12.621-11.667 6.718.998 1.733 11.667-6.718zm-11.554 8.507 6.392 2.675.772-1.845-6.392-2.675z" mask="url(#c)"/>
  <path stroke="#282839" stroke-linecap="round" stroke-linejoin="round" d="m334.898 116.275 2.528 1.049 2.782 13.186 8.781-10.224 13.404 1.447-7.012-11.528 5.529-12.282-13.113 3.108L337.788 92l-1.121 13.403L325 112.121l6.392 2.675"/>
</svg>
