<svg xmlns="http://www.w3.org/2000/svg" fill="none" aria-hidden="true" viewBox="0 0 650 487">
  <path fill="#e9f9f9" d="M158.731 261.847c5.802 15.026 15.901 27.51 26.822 39.146 4.098 4.418 8.746 8.22 13.72 11.699-.983 11.468-.648 23.006 1.961 34.384 3.683 15.984 13.319 31.349 25.956 41.801 25.886 21.332 59.298 27.468 91.931 23.147 31.463-4.135 63.669-11.765 93.05-23.997 15.417-6.383 30.531-13.671 44.039-23.733 13.712-10.278 24.874-21.607 34.757-35.501 5.139-7.253 9.495-14.968 12.972-23.227 18.404-32.357 24.584-70.589 16.75-107.73-9.558-45.077-43.018-86.338-85.451-104.395-42.925-18.18-91.572-18.1-135.181-2.084-23.387 8.584-45.371 20.573-65.361 35.494-19.536 14.526-39.016 30.94-54.525 49.752-19.403 23.258-33.149 55.255-21.44 85.244"/>
  <path fill="#00b5c0" d="M388.877 115.291a53.4 53.4 0 0 1 9.196 30.036c0 29.6-23.941 53.561-53.527 53.561-29.581 0-53.523-23.961-53.523-53.561s23.942-53.558 53.523-53.558c14.75 0 28.198 5.988 37.825 15.713"/>
  <path stroke="#282839" stroke-linecap="round" stroke-linejoin="round" d="M388.877 115.291a53.4 53.4 0 0 1 9.196 30.036c0 29.6-23.941 53.561-53.527 53.561-29.581 0-53.523-23.961-53.523-53.561s23.942-53.558 53.523-53.558c14.75 0 28.198 5.988 37.825 15.713"/>
  <path stroke="#282839" stroke-linecap="round" stroke-linejoin="round" d="M314.272 123.19c2.777-3.732 6.159-7.029 10.15-9.546M344.546 182.827c-20.73 0-37.472-16.753-37.472-37.5a38 38 0 0 1 3.987-16.928M330.062 110.778a37 37 0 0 1 14.571-2.952c20.734 0 37.477 16.753 37.477 37.501 0 16.753-10.929 30.902-26.022 35.763"/>
  <path fill="#9ae4e3" stroke="#282839" stroke-linecap="round" stroke-linejoin="round" d="M344.546 163.992c10.301 0 18.653-8.362 18.653-18.665 0-10.304-8.352-18.662-18.653-18.662-10.304 0-18.649 8.358-18.649 18.662s8.345 18.665 18.649 18.665"/>
  <path stroke="#282839" stroke-linecap="round" stroke-linejoin="round" d="m344.546 145.327 74.953-74.914"/>
  <path fill="#9ae4e3" stroke="#282839" stroke-linecap="round" stroke-linejoin="round" d="m398.334 75.277 21.165-21.183v16.318l-21.165 21.183zM414.555 91.595l21.168-21.182h-16.224l-21.165 21.182z"/>
  <path stroke="#282839" stroke-linecap="round" stroke-linejoin="round" d="M429.217 76.923h-16.311M405.098 73.54v11.196M423.577 82.48h-8.935"/>
  <path fill="#e7e7ee" d="M477.38 127.915a23.76 23.76 0 0 0-7.036 16.905c0 13.157 10.656 23.782 23.767 23.782 13.153 0 23.768-10.663 23.768-23.782s-10.657-23.787-23.768-23.787c-4.221 0-8.205 1.09-11.621 3.058"/>
  <path stroke="#282839" stroke-linecap="round" stroke-linejoin="round" d="M477.38 127.915a23.76 23.76 0 0 0-7.036 16.905c0 13.157 10.656 23.782 23.767 23.782 13.153 0 23.768-10.663 23.768-23.782s-10.657-23.787-23.768-23.787c-4.221 0-8.205 1.09-11.621 3.058M494.111 168.602v7.968c0 5.553-4.505 10.062-10.055 10.062h-3.578"/>
  <path stroke="#282839" stroke-linecap="round" stroke-linejoin="round" d="M497.531 148.279H484.34a3.23 3.23 0 0 0-3.219 3.221 3.23 3.23 0 0 0 3.219 3.218h9.087M492.424 140.19h11.984a4.055 4.055 0 0 1 4.063 4.065 4.055 4.055 0 0 1-4.063 4.066h-3.579"/>
  <path fill="#3c3c56" stroke="#282839" stroke-linecap="round" stroke-linejoin="round" d="m479.351 103.53 13.338 30.577-4.903 2.139-13.338-30.578zM492.424 140.19l.238-6.037-4.864 2.134z"/>
  <path fill="#e7e7ee" stroke="#282839" stroke-linecap="round" stroke-linejoin="round" d="M438.492 258.555h67.206l-29.65 76.947h-67.167z"/>
  <path fill="#e7e7ee" stroke="#282839" stroke-linecap="round" stroke-linejoin="round" d="M477.474 331.592h-75.762a3.911 3.911 0 0 0 0 7.824h75.762z"/>
  <path stroke="#282839" stroke-linecap="round" stroke-linejoin="round" d="m468.063 339.458 8.677 54.204M407.171 339.458l-8.674 54.204"/>
  <path fill="#3c3c56" stroke="#282839" stroke-linecap="round" stroke-linejoin="round" d="m414.785 271.134 28.602-7.419 34.689 7.252V393.92h-63.291z"/>
  <path fill="#fff" stroke="#282839" stroke-linecap="round" stroke-linejoin="round" d="M487.756 214.888c0-15.61-12.669-28.234-28.216-28.234h-28.326c-15.267 0-27.716 12.401-27.716 27.682v25.463c0 6.2 5.034 11.239 11.231 11.239v20.981h63.29v-18.105c5.92-4.595 9.68-11.791 9.68-19.872v-19.154z"/>
  <path fill="#3c3c56" stroke="#282839" stroke-linecap="round" stroke-linejoin="round" d="M430.719 202.931v5.314a9.66 9.66 0 0 1-9.684-9.69v-4.815c9.075 0 9.684 4.043 9.684 9.191"/>
  <path fill="#fff" stroke="#282839" stroke-linecap="round" stroke-linejoin="round" d="M421.035 177.797c-6.306 13.176 4.539 28.4 19.307 26.406 9.075-1.219 15.328-8.691 15.99-16.939.276-3.101-8.023-9.467-9.57-9.467 0 0-2.213-3.763-3.322-4.596-2.599-1.991-10.289-3.266-14.658-1.824-2.213.662-7.747 6.42-7.747 6.42"/>
  <path stroke="#282839" stroke-linecap="round" d="M428.229 186.877v3.543M433.208 190.42a2.483 2.483 0 0 1-2.489 2.491 2.48 2.48 0 0 1-2.49-2.491"/>
  <path fill="#3c3c56" stroke="#282839" stroke-linecap="round" stroke-linejoin="round" d="M464.079 194.183v-6.919c0-5.258-4.263-9.467-9.461-9.467-2.988-6.254-9.351-10.573-16.765-10.573-7.411 0-13.773 4.319-16.762 10.573h5.588c2.712 0 4.868-2.215 4.868-4.872a4.877 4.877 0 0 0 4.868 4.872h7.192v14.558c0 5.98 4.815 10.852 10.735 10.962v2.767a9.66 9.66 0 0 0 9.68 9.69h13.112v-8.471c.056-7.253-5.811-13.12-13.055-13.12"/>
  <path stroke="#282839" stroke-linecap="round" stroke-linejoin="round" d="M427.564 226.07h-6.639M468.339 226.07h-12.064M414.785 251.038h24.838M438.628 393.92v-89.904M438.628 297.483v-7.586M478.076 253.914a25.08 25.08 0 0 1-15.491 5.315h-6.529a20.58 20.58 0 0 1-18.698-11.958l-15.215-33.049 23.291-11.291 15.876 34.211c0-6.7 5.425-12.124 12.117-12.124"/>
  <path fill="#3c3c56" d="M389.698 303.191H240.455v-10.016h188.509v10.016h-30.811"/>
  <path stroke="#282839" stroke-linecap="round" stroke-linejoin="round" d="M389.698 303.191H240.455v-10.016h188.509v10.016h-30.811M413.242 303.191l12.85 90.142M256.176 303.191l-12.846 90.142"/>
  <path fill="#3c3c56" stroke="#282839" stroke-linecap="round" stroke-linejoin="round" d="m182.082 273.602-33.262-6.791-33.262 6.791v120.004h66.524z"/>
  <path fill="#fff" stroke="#282839" stroke-linecap="round" stroke-linejoin="round" d="M138.481 187.199h30.479c7.281 0 13.168 5.89 13.168 13.177v21.905l15.418-15.425 18.521 18.529-8.678 8.68h9.934v26.224h-35.195v13.358h-66.57v-21.455c-8.224-6.7-13.573-16.999-13.573-28.427 0-20.24 16.315-36.566 36.496-36.566"/>
  <path stroke="#282839" stroke-linecap="round" stroke-linejoin="round" d="M182.082 260.289h-43.601c-8.764 0-16.765-3.059-23.056-8.233M145.676 219.896c0 7.828-6.34 14.127-14.117 14.127h75.785M156.416 303.558v-9.489M156.416 393.606v-83.794"/>
  <path fill="#fff" stroke="#282839" stroke-linecap="round" stroke-linejoin="round" d="M170.083 177.528s-12.945-11.333-26.971-2.472c-2.921 1.843-9.079 7.824-6.923 17.632 2.788 6.7 9.397 11.424 17.129 11.424 13.663 0 22.651-14.259 16.765-26.584"/>
  <path stroke="#282839" stroke-linecap="round" stroke-linejoin="round" d="M162.884 184.201v5.985M157.944 190.167a2.47 2.47 0 0 0 2.474 2.476c1.347 0 2.474-1.125 2.474-2.476"/>
  <path fill="#3c3c56" stroke="#282839" stroke-linecap="round" stroke-linejoin="round" d="M153.359 166.959c-13.168 0-22.246 13.404-17.177 25.729 4.592 0 8.235-3.691 8.235-8.188v-6.972h25.666c-2.969-6.253-9.351-10.569-16.724-10.569"/>
  <path stroke="#282839" stroke-linecap="round" stroke-linejoin="round" d="M182.082 222.236v11.829"/>
  <path fill="#e7e7ee" d="M208.089 125.405a22.45 22.45 0 0 1 9.245 18.165c0 12.423-10.066 22.458-22.44 22.458-12.377 0-22.443-10.072-22.443-22.458 0-12.381 10.066-22.454 22.443-22.454 3.205 0 6.223.67 8.985 1.866"/>
  <path stroke="#282839" stroke-linecap="round" stroke-linejoin="round" d="M208.089 125.405a22.45 22.45 0 0 1 9.245 18.165c0 12.423-10.066 22.458-22.44 22.458-12.377 0-22.443-10.072-22.443-22.458 0-12.381 10.066-22.454 22.443-22.454 3.205 0 6.223.67 8.985 1.866"/>
  <path stroke="#282839" stroke-linecap="round" stroke-linejoin="round" d="m186.357 149.055-5.482-5.485 5.482-5.443M203.428 138.127l5.482 5.443-5.482 5.485M198.473 138.127l-7.161 10.928M194.895 166.028v29.843"/>
  <path fill="#7d7d9b" stroke="#282839" stroke-linecap="round" stroke-linejoin="round" d="M381.803 244.148h-66.078l22.546 46.832h66.025z"/>
  <path fill="#7d7d9b" stroke="#282839" stroke-linecap="round" stroke-linejoin="round" d="M336.183 286.695h88.673v6.427h-88.673z"/>
  <path fill="#fff" stroke="#282839" stroke-linecap="round" stroke-linejoin="round" d="M358.993 269.332a3.912 3.912 0 0 1 0-7.824 3.912 3.912 0 0 1 0 7.824M334.499 233.837h-26.09v-24.892c0-12.264-9.915-22.185-22.171-22.185h-4.101v.045h-26.631c-20.234 0-36.591 16.413-36.591 36.615 0 11.5 5.315 21.781 13.607 28.5v21.507l49.615 11.05v20.697h26.272v-45.048h26.09z"/>
  <path fill="#3c3c56" stroke="#282839" stroke-linecap="round" stroke-linejoin="round" d="M299.217 273.473h-66.74v120.261h66.74z"/>
  <path stroke="#282839" stroke-linecap="round" stroke-linejoin="round" d="M273.441 320.009v-26.02M273.441 393.78v-67.503M299.217 233.766v-14.494M299.217 273.473v-13.347M255.461 260.126a36.6 36.6 0 0 1-22.893-8.025M308.409 260.126h-47.092"/>
  <path fill="#fff" stroke="#282839" stroke-linecap="round" d="m287.274 177.066.227-2.706h-27.308c-.949 0-1.713.768-1.759 1.714l-.227 6.988c0 4.557-.45 9.244-5.001 9.244 2.796 6.764 7.751 11.499 18.476 11.499 12.347 0 21.497-14.384 15.592-26.739Z"/>
  <path stroke="#282839" stroke-linecap="round" d="M280.114 182.763v6.987M275.064 189.781c0 1.4 1.127 2.525 2.523 2.525a2.52 2.52 0 0 0 2.523-2.525"/>
  <path fill="#3c3c56" stroke="#282839" stroke-linecap="round" stroke-linejoin="round" d="M294.711 169.265c0-4.331-3.518-7.802-7.796-7.802-3.336 0-6.128 2.074-7.255 4.963h-9.193c-13.342 0-22.352 13.615-17.295 25.902 4.631-.064 8.326-3.762 8.326-8.316v-6.991h25.822c4.1-.137 7.391-3.562 7.391-7.756"/>
  <path stroke="#282839" stroke-linecap="round" stroke-linejoin="round" d="M262.671 219.635c0 7.843-6.355 14.157-14.151 14.157h59.889M476.143 393.784h72.252M85.56 393.784h363.157"/>
</svg>
