<svg xmlns="http://www.w3.org/2000/svg" fill="none" viewBox="0 0 24 24" aria-hidden="true">
  <path fill="currentColor" d="M11.25 3a.75.75 0 0 1 1.5 0v1.528c1.932.903 4.545 1.722 6.25 1.722h2a.75.75 0 0 1 0 1.5h-1.293l2.995 7.986a.75.75 0 0 1-.253.865A5.76 5.76 0 0 1 19 17.75a5.76 5.76 0 0 1-3.45-1.15.75.75 0 0 1-.252-.864l3-8 .009-.021c-1.72-.15-3.839-.808-5.557-1.544V20.25H17a.75.75 0 0 1 0 1.5H7a.75.75 0 0 1 0-1.5h4.25V6.17c-1.719.737-3.839 1.395-5.558 1.545l.01.021 3 8a.75.75 0 0 1-.253.865A5.76 5.76 0 0 1 5 17.75a5.76 5.76 0 0 1-3.45-1.15.75.75 0 0 1-.252-.864L4.293 7.75H3a.75.75 0 0 1 0-1.5h2c1.705 0 4.318-.819 6.25-1.722zM2.914 15.698A4.25 4.25 0 0 0 5 16.25c.733 0 1.448-.193 2.085-.552L5 10.136zm14 0A4.25 4.25 0 0 0 19 16.25c.733 0 1.448-.193 2.085-.552L19 10.136z"/>
</svg>
