<svg xmlns="http://www.w3.org/2000/svg" viewBox="0 0 24 24" aria-hidden="true" fill="currentColor">
  <title>LinkedIn</title>
  <path d="M1.049 4.861Q.216 4.073.217 2.912c0-.773.278-1.452.832-1.979Q1.88.145 3.195.145c.876 0 1.562.263 2.116.788q.833.789.832 1.98c0 .792-.278 1.423-.832 1.948q-.832.788-2.116.789c-.857 0-1.591-.264-2.146-.789m4.627 3.013v16.102H.682V7.874zM22.3 9.464q1.633 1.805 1.632 4.96v9.267H19.19v-8.614q0-1.59-.81-2.472t-2.175-.882-2.176.882q-.81.88-.81 2.472v8.614H8.45V7.83h4.77v2.103q.726-1.051 1.953-1.663 1.227-.61 2.762-.61 2.736 0 4.366 1.805" />
</svg>