<svg xmlns="http://www.w3.org/2000/svg" width="24" height="24" viewBox="0 0 24 24" fill="none">
  <path d="M6.5198 16.4194L15.139 7.80016L7.05013 7.80017C6.63592 7.80017 6.30021 7.46446 6.30021 7.05025C6.30021 6.63603 6.63592 6.30033 7.05013 6.30033L16.9496 6.30033L17.0263 6.30378C17.4045 6.34215 17.6995 6.6619 17.6995 7.05025L17.6995 16.9497C17.6995 17.364 17.3638 17.6997 16.9496 17.6997C16.5354 17.6997 16.1997 17.364 16.1997 16.9497L16.1997 8.86083L7.58046 17.4801C7.28757 17.773 6.81269 17.773 6.5198 17.4801C6.22691 17.1872 6.22691 16.7123 6.5198 16.4194Z" fill="currentColor"/>
</svg>