<svg width="466" height="466" viewBox="0 0 466 466" fill="none" xmlns="http://www.w3.org/2000/svg">
<path d="M332.373 202.761C323.66 184.796 310.805 167.172 293.809 149.889C276.902 132.95 258.115 117.971 237.445 104.952C217.121 91.843 196.741 82.0591 176.305 75.5997C146.258 66.1209 119.372 62.4408 95.648 64.5594" stroke="#3C3C56" stroke-width="9.32"/>
<path d="M249.273 390.459L96.1592 125.257L143.723 97.7966L296.837 362.998L249.273 390.459Z" fill="#3C3C56" stroke="#3C3C56" stroke-width="9.32" stroke-linejoin="round"/>
<path d="M93.3129 65.4029C91.124 66.6666 89.8909 69.1063 90.1713 71.6182L96.1598 125.255L143.723 97.7945L100.266 65.7898C98.2312 64.291 95.5018 64.1391 93.3129 65.4029Z" fill="#E9F9F9" stroke="#3C3C56" stroke-width="9.32" stroke-linejoin="round"/>
<path d="M249.273 390.459L264.835 417.412C272.418 430.546 289.212 435.046 302.347 427.463C315.481 419.88 319.981 403.085 312.398 389.951L296.837 362.998L249.273 390.459Z" fill="#E9F9F9" stroke="#3C3C56" stroke-width="9.32" stroke-linejoin="round"/>
<path d="M99.5332 293.288C98.5264 315.942 99.9107 338.722 103.686 361.628C109.476 395.609 120.425 425.185 136.535 450.356" stroke="#3C3C56" stroke-width="9.32"/>
<path d="M336.526 121.676C353.806 136.361 369.549 152.882 383.758 171.241C404.708 198.614 418.919 226.769 426.39 255.705" stroke="#3C3C56" stroke-width="9.32"/>
</svg>
