<svg xmlns="http://www.w3.org/2000/svg" fill="none" viewBox="0 0 24 24" aria-hidden="true">
  <path fill="currentColor" d="M16 21v-2a3 3 0 0 0-2.703-2.985L13 16H5a3 3 0 0 0-3 3v2a1 1 0 1 1-2 0v-2a5 5 0 0 1 5-5h8a5 5 0 0 1 5 5v2a1 1 0 1 1-2 0m6 0v-1.999l-.01-.248a3 3 0 0 0-2.24-2.654 1 1 0 0 1 .5-1.937A5 5 0 0 1 24 19V21a1 1 0 1 1-2 0M12 7a3 3 0 1 0-6 0 3 3 0 0 0 6 0m6.008.005a3 3 0 0 0-2.256-2.906 1 1 0 0 1 .496-1.938 5.001 5.001 0 0 1 0 9.688 1 1 0 1 1-.496-1.938 3 3 0 0 0 2.256-2.906M14 7A5 5 0 1 1 4 7a5 5 0 0 1 10 0"/>
</svg>
