<svg xmlns="http://www.w3.org/2000/svg" fill="none" viewBox="0 0 24 24" aria-hidden="true">
  <path fill="currentColor" d="M16.25 8a4.25 4.25 0 0 0-8.5 0 .75.75 0 0 1-.353.637A5.75 5.75 0 0 0 10.03 19.25h1.22v-2.422l-.005-.123a1.25 1.25 0 0 0-.277-.669l-.083-.092L8.97 14.03a.75.75 0 0 1 1.06-1.06l1.914 1.914c.19.19.348.405.474.636l1.552-1.55a.75.75 0 0 1 1.06 1.06l-2.28 2.28v1.94h1.077a5.25 5.25 0 0 0 2.8-9.8.75.75 0 0 1-.377-.65zm1.5.384a6.75 6.75 0 0 1-3.694 12.37l-.283-.004H12.75V22a.75.75 0 0 1-1.5 0v-1.25H10q-.026 0-.051-.002a7.25 7.25 0 0 1-3.684-13.16A5.749 5.749 0 0 1 17.75 8z"/>
</svg>
