<svg width="450" height="450" viewBox="0 0 450 450" fill="none" xmlns="http://www.w3.org/2000/svg">
<path d="M82.449 69.1069H345.613H367.692C370.874 69.1069 373.452 71.6858 373.452 74.8669V277.73H76.689V74.8669C76.689 71.6858 79.2678 69.1069 82.449 69.1069Z" fill="#E9F9F9" stroke="#3C3C56" stroke-width="5.6" stroke-linecap="round" stroke-linejoin="round"/>
<path d="M373.453 277.682H76.6892V300.598C76.6892 303.779 79.268 306.358 82.4492 306.358H367.693C370.874 306.358 373.453 303.779 373.453 300.598V277.682Z" fill="#3C3C56" stroke="#3C3C56" stroke-width="5.6" stroke-linecap="round" stroke-linejoin="round"/>
<path d="M355.272 294.932C356.81 294.932 358.057 293.685 358.057 292.146C358.057 290.608 356.81 289.361 355.272 289.361C353.733 289.361 352.486 290.608 352.486 292.146C352.486 293.685 353.733 294.932 355.272 294.932Z" fill="#E9F9F9"/>
<path d="M355.272 294.932C356.81 294.932 358.057 293.685 358.057 292.146C358.057 290.608 356.81 289.361 355.272 289.361C353.733 289.361 352.486 290.608 352.486 292.146C352.486 293.685 353.733 294.932 355.272 294.932Z" fill="#E9F9F9"/>
<path d="M357.219 292.146C357.219 293.222 356.347 294.094 355.271 294.094C354.196 294.094 353.323 293.222 353.323 292.146C353.323 291.07 354.196 290.198 355.271 290.198C356.347 290.198 357.219 291.07 357.219 292.146Z" stroke="#E9F9F9" stroke-width="5.6" stroke-linecap="round" stroke-linejoin="round"/>
<path d="M274.933 377.004H172.813C158.774 377.004 147.25 390.104 147.25 406.375H300.373C300.492 390.104 289.092 377.004 274.933 377.004Z" fill="#3C3C56" stroke="#3C3C56" stroke-width="5.6" stroke-linecap="round" stroke-linejoin="round"/>
<path d="M225.13 377.004V306.406" stroke="#3C3C56" stroke-width="5.6" stroke-linecap="round" stroke-linejoin="round"/>
<path d="M336.134 107.141L291.918 149.239L247.368 127.977L202.818 182.507L158.268 190.462L113.919 244.196" stroke="#3C3C56" stroke-width="5.6" stroke-linecap="round" stroke-linejoin="round"/>
<path d="M336.487 112.947C333.283 112.947 330.682 110.346 330.682 107.141C330.682 103.937 333.283 101.336 336.487 101.336C339.692 101.336 342.293 103.937 342.293 107.141C342.293 110.346 339.692 112.947 336.487 112.947Z" stroke="#3C3C56" stroke-width="5.6" stroke-linecap="round" stroke-linejoin="round"/>
<path d="M291.938 154.802C288.733 154.802 286.132 152.201 286.132 148.996C286.132 145.786 288.733 143.191 291.938 143.191C295.142 143.191 297.743 145.786 297.743 148.996C297.743 152.201 295.142 154.802 291.938 154.802Z" stroke="#3C3C56" stroke-width="5.6" stroke-linecap="round" stroke-linejoin="round"/>
<path d="M247.387 133.754C244.183 133.754 241.582 131.153 241.582 127.949C241.582 124.744 244.183 122.143 247.387 122.143C250.598 122.143 253.199 124.744 253.199 127.949C253.199 131.153 250.598 133.754 247.387 133.754Z" stroke="#3C3C56" stroke-width="5.6" stroke-linecap="round" stroke-linejoin="round"/>
<path d="M202.837 188.312C199.633 188.312 197.032 185.711 197.032 182.501C197.032 179.296 199.633 176.695 202.837 176.695C206.042 176.695 208.643 179.296 208.643 182.501C208.643 185.711 206.042 188.312 202.837 188.312Z" stroke="#3C3C56" stroke-width="5.6" stroke-linecap="round" stroke-linejoin="round"/>
<path d="M158.287 196.416C155.083 196.416 152.482 193.815 152.482 190.605C152.482 187.4 155.083 184.8 158.287 184.8C161.492 184.8 164.093 187.4 164.093 190.605C164.093 193.815 161.492 196.416 158.287 196.416Z" stroke="#3C3C56" stroke-width="5.6" stroke-linecap="round" stroke-linejoin="round"/>
<path d="M113.919 250.002C110.715 250.002 108.114 247.401 108.114 244.196C108.114 240.992 110.715 238.391 113.919 238.391C117.124 238.391 119.725 240.992 119.725 244.196C119.725 247.401 117.124 250.002 113.919 250.002Z" stroke="#3C3C56" stroke-width="5.6" stroke-linecap="round" stroke-linejoin="round"/>
</svg>
