<svg xmlns="http://www.w3.org/2000/svg" fill="none" viewBox="0 0 24 24" aria-hidden="true">
  <path fill="currentColor" d="M19.25 6a.25.25 0 0 0-.25-.25c-2.052 0-4.453-1.093-6.25-2.507v17.756c1.756-.676 3.303-1.546 4.443-2.716 1.26-1.293 2.057-2.982 2.057-5.284zm-14.5 7c0 2.301.797 3.99 2.058 5.28 1.14 1.168 2.686 2.035 4.442 2.707V3.242c-1.668 1.31-3.872 2.356-5.825 2.493L5 5.75a.25.25 0 0 0-.25.25zm16 0c0 2.698-.954 4.76-2.483 6.33-1.51 1.548-3.547 2.584-5.68 3.328l-.006.003a1.75 1.75 0 0 1-1.156-.013c-2.14-.739-4.18-1.772-5.69-3.32C4.202 17.76 3.25 15.699 3.25 13V6A1.75 1.75 0 0 1 5 4.25l.336-.012c1.71-.125 3.856-1.165 5.41-2.523l.007-.006a1.92 1.92 0 0 1 2.36-.104l.134.105.007.005C14.92 3.173 17.242 4.25 19 4.25A1.75 1.75 0 0 1 20.75 6z"/>
</svg>
