<svg xmlns="http://www.w3.org/2000/svg" fill="none" viewBox="0 0 24 24" aria-hidden="true">
  <path fill="currentColor" d="M12.178 1.263q.177.025.34.096l.157.083.145.105q.136.115.237.262l.09.153v.001l2.31 4.679a1.37 1.37 0 0 0 1.031.75l5.166.756c.177.025.346.088.497.182l.144.106.128.124q.12.133.197.294l.068.165.043.172a1.28 1.28 0 0 1-.248 1.007l-.12.133-3.736 3.638a1.37 1.37 0 0 0-.394 1.214l.881 5.14a1.28 1.28 0 0 1-1.172 1.496 1.3 1.3 0 0 1-.69-.147v-.001l-4.615-2.425a1.37 1.37 0 0 0-1.275 0l-4.616 2.426a1.28 1.28 0 0 1-1.351-.095 1.28 1.28 0 0 1-.527-1.079l.019-.178.88-5.135a1.37 1.37 0 0 0-.394-1.216l-3.736-3.637a1.278 1.278 0 0 1 .709-2.185l5.165-.755a1.37 1.37 0 0 0 1.032-.75l2.31-4.679v-.001c.106-.214.27-.394.472-.52l.158-.083A1.3 1.3 0 0 1 12 1.25zm-2.29 6.043a2.87 2.87 0 0 1-2.16 1.57L3 9.566l3.42 3.329a2.87 2.87 0 0 1 .826 2.543l-.806 4.7 4.224-2.22.156-.076a2.87 2.87 0 0 1 2.515.076l4.226 2.22-.807-4.701a2.88 2.88 0 0 1 .826-2.542h.001l3.416-3.328-4.725-.69h-.001a2.88 2.88 0 0 1-2.158-1.571L12 3.026z"/>
</svg>
