<svg xmlns="http://www.w3.org/2000/svg" width="24" height="24" viewBox="0 0 24 24" fill="none"
	aria-hidden="true" focusable="false">
	<path
		d="M10.3295 1.37746C12.7582 0.994855 15.2447 1.45642 17.3744 2.68507C17.733 2.89202 17.8565 3.35076 17.6498 3.70949C17.4428 4.06817 16.9841 4.19167 16.6254 3.98488C14.7928 2.9275 12.6528 2.52967 10.5629 2.8589C8.47284 3.18818 6.55875 4.2248 5.14001 5.79445C3.72139 7.36406 2.88401 9.37242 2.76696 11.4849C2.64992 13.5973 3.25996 15.6861 4.49645 17.4028C5.73303 19.1195 7.52117 20.3603 9.56188 20.9185C11.6026 21.4766 13.7732 21.3186 15.7113 20.4702C17.6495 19.6218 19.2389 18.1345 20.2133 16.2564C21.1876 14.3783 21.4882 12.223 21.0658 10.1499C20.9831 9.7442 21.2451 9.34806 21.6508 9.26515C22.0566 9.18247 22.4527 9.44436 22.5355 9.85011C23.0264 12.2594 22.6766 14.7642 21.5443 16.9468C20.4119 19.1294 18.5654 20.8582 16.3129 21.8443C14.0604 22.8302 11.5381 23.0144 9.16638 22.3657C6.7946 21.7171 4.71683 20.275 3.27966 18.2798C1.84248 16.2846 1.13288 13.857 1.26892 11.4019C1.40496 8.94674 2.37891 6.61277 4.0277 4.78859C5.6765 2.96444 7.90054 1.76013 10.3295 1.37746ZM21.4701 3.46925C21.763 3.17681 22.2379 3.17655 22.5306 3.46925C22.8235 3.76215 22.8235 4.23788 22.5306 4.53078L12.5306 14.5308C12.2379 14.8235 11.763 14.8232 11.4701 14.5308L8.47009 11.5308C8.17719 11.2379 8.17719 10.7621 8.47009 10.4693C8.763 10.1768 9.23788 10.1765 9.53063 10.4693L12.0004 12.939L21.4701 3.46925Z"
		fill="currentColor" />
</svg>