<svg
  xmlns="http://www.w3.org/2000/svg"
  fill="none"
  viewBox="0 0 24 24"
  aria-hidden="true"
>
  <path
    fill="currentColor"
    d="M7.25 17a.25.25 0 0 0-.25-.25H3a.25.25 0 0 0-.25.25v4c0 .138.112.25.25.25h4a.25.25 0 0 0 .25-.25zm14 0a.25.25 0 0 0-.25-.25h-4a.25.25 0 0 0-.25.25v4c0 .138.112.25.25.25h4a.25.25 0 0 0 .25-.25zm-7-14a.25.25 0 0 0-.25-.25h-4a.25.25 0 0 0-.25.25v4c0 .138.112.25.25.25h4a.25.25 0 0 0 .25-.25zm1.5 4A1.75 1.75 0 0 1 14 8.75h-1.25v2.5H18A1.75 1.75 0 0 1 19.75 13v2.25H21c.966 0 1.75.784 1.75 1.75v4A1.75 1.75 0 0 1 21 22.75h-4A1.75 1.75 0 0 1 15.25 21v-4c0-.966.784-1.75 1.75-1.75h1.25V13a.25.25 0 0 0-.25-.25H6a.25.25 0 0 0-.25.25v2.25H7c.966 0 1.75.784 1.75 1.75v4A1.75 1.75 0 0 1 7 22.75H3A1.75 1.75 0 0 1 1.25 21v-4c0-.966.784-1.75 1.75-1.75h1.25V13A1.75 1.75 0 0 1 6 11.25h5.25v-2.5H10A1.75 1.75 0 0 1 8.25 7V3c0-.966.784-1.75 1.75-1.75h4c.966 0 1.75.784 1.75 1.75z"
  />
</svg>
