<svg xmlns="http://www.w3.org/2000/svg" viewBox="0 0 24 24" aria-hidden="true" fill="currentColor">
  <title>YouTube</title>
  <path d="M21.969 6.544a2.25 2.25 0 0 0-1.36-1.533C17.396 3.776 12.279 3.787 12 3.788c-.28-.002-5.396-.012-8.609 1.223a2.25 2.25 0 0 0-1.36 1.532C1.79 7.474 1.5 9.177 1.5 12s.289 4.526.532 5.456a2.25 2.25 0 0 0 1.36 1.533c3.075 1.182 7.895 1.223 8.546 1.223h.124c.651 0 5.471-.041 8.547-1.223a2.25 2.25 0 0 0 1.36-1.532c.242-.931.531-2.634.531-5.457s-.289-4.526-.532-5.456m-6.761 5.768-4.5 3a.375.375 0 0 1-.583-.312V9a.375.375 0 0 1 .583-.312l4.5 3a.374.374 0 0 1 0 .624"/>
</svg>