<svg xmlns="http://www.w3.org/2000/svg" fill="none" viewBox="0 0 487 496">
    <path class="logo-bg" fill="#282839" fill-rule="evenodd" d="M405.996 76.233c111.349 87.96 44.295 185.694-18.109 305.907C325.482 502.353 172.04 526.786 70.48 351.354-30.836 175.921 35.73 97.978 98.623 61.817c63.139-36.406 196.024-73.3 307.373 14.416Z" clip-rule="evenodd"/>
    <path class="logo-text" fill="#fff" d="M132.884 357.471c-5.629-8.063-6.363-25.41-2.203-52.043 3.427-22.479 9.545-46.912 18.355-73.789 5.628-17.837 14.683-38.605 26.675-62.794 11.991-24.189 23.248-43.492 33.527-58.152 4.65-6.597 9.299-11.24 13.949-13.927 6.118-3.91 11.991-4.398 17.375-1.466 6.363 3.42 10.034 10.262 10.768 20.524.245 8.307-1.468 18.081-5.139 29.565-5.873 17.836-14.439 33.473-25.451 46.912-7.097 9.04-14.684 16.37-22.515 21.99-6.363 4.398-12.725 7.819-19.088 10.506 2.202 1.466 3.915 3.665 5.384 6.353 2.447 3.91 4.649 8.063 6.852 12.95 3.671 7.819 6.363 12.95 8.076 15.149 2.692 3.42 4.65 5.131 6.363 5.131 1.713.244 3.915-.489 6.852-2.932 4.65-3.177 10.034-8.552 15.662-16.371 1.469-2.199 3.671-3.176 6.118-3.665 2.448-.244 4.895 0 6.853 1.466 1.957 1.466 3.181 3.665 3.426 6.109.489 2.443 0 4.886-1.713 6.841-14.194 19.058-27.165 27.854-39.156 26.877-5.384-.489-10.279-2.932-14.928-7.575 0 5.62-.49 11.729-1.224 18.814-2.692 19.547-8.81 36.65-18.354 50.822-8.076 12.461-16.397 18.814-24.717 18.814-8.321 0-8.81-1.955-11.747-6.109Zm16.152-50.088c-2.692 16.859-3.426 28.831-2.203 35.673 1.469-1.466 2.447-2.688 3.426-3.665 3.427-3.91 6.608-9.529 10.034-16.371 1.468-3.665 2.937-7.574 4.405-12.217 1.468-4.398 2.692-10.262 4.16-17.592 1.469-7.33 1.713-15.393 1.224-24.433a97.005 97.005 0 0 0-5.139-26.388c-6.852 20.768-11.992 42.514-15.907 64.993Zm75.13-186.184c-14.684 20.769-29.367 48.134-44.295 82.341 11.257-6.352 21.046-15.393 29.367-27.121 8.32-11.728 14.928-24.189 19.088-37.139 2.447-7.33 3.916-14.171 4.161-20.524 0-2.199 0-4.154-.49-6.108-2.202 1.466-4.894 4.153-7.831 8.307v.244Z"/>
    <path class="logo-text" fill="#fff" d="M226.613 357.227c-5.139-4.887-7.097-10.751-6.118-18.081.979-7.819 6.118-15.882 14.928-24.433 7.342-7.33 17.375-14.172 30.346-20.769l12.48-5.619c0-.245.49-.978.735-1.711.244-.733.489-1.466.734-1.71-11.502 8.796-22.025 13.194-31.325 13.927-8.32.489-15.417-2.443-21.046-8.552-5.629-5.62-7.831-12.95-7.097-21.99.979-10.995 6.852-23.456 17.375-37.628 9.3-11.972 18.599-21.501 28.144-28.342 8.075-5.62 16.396-9.285 25.206-10.507 8.81-1.221 16.152 0 22.025 3.665 8.076 5.131 11.258 12.95 9.3 23.701-.49 2.443-1.713 4.398-3.671 5.619-1.958 1.222-3.916 1.955-6.363 1.711 1.713.733 3.181 2.199 4.405 4.153 3.182 5.62.979 13.683-7.097 23.701l-2.202 2.932c-2.448 8.796-4.405 15.149-5.629 19.302 11.991-7.33 22.025-18.325 30.101-32.74 1.468-2.199 3.181-3.665 5.629-4.398 2.447-.733 4.649-.489 7.097.733 2.202 1.221 3.67 2.932 4.405 5.375.734 2.443.489 4.887-.735 7.086-7.831 14.415-17.13 25.655-27.653 33.718-5.874 4.398-15.418 9.773-28.144 15.882-2.691 6.597-5.873 13.194-9.299 19.791-5.384 10.262-11.013 18.814-16.641 25.655-6.608 7.819-12.971 12.705-19.333 14.416-1.958.733-4.161.977-6.608.977-5.139 0-10.034-1.71-14.194-5.375l.245-.489Zm50.168-140.004c-8.076 5.864-16.396 14.171-24.717 24.922-8.321 10.751-12.726 19.791-13.46 27.61-.244 3.176.245 5.62 2.203 7.819 1.713 1.954 3.915 2.687 6.852 2.687 5.384 0 11.992-3.176 20.067-9.284 8.076-6.109 15.663-13.439 23.249-22.235l.734-3.909c2.692-11.728 7.831-18.081 14.928-19.058.49 0 1.469-.245 2.692-.245-4.16-2.199-5.873-5.375-4.894-10.017.489-2.688 0-4.154-.979-4.398-1.468-.978-3.426-1.222-6.118-1.222-6.852 0-13.46 2.443-20.312 7.574l-.245-.244ZM246.68 329.617c-4.65 5.131-7.342 9.041-7.831 12.217 0 .733 0 1.222.245 1.466.734.733 1.468.977 2.692.489 6.852-2.199 14.928-11.729 24.227-29.321-8.076 4.887-14.683 9.774-19.333 14.905v.244Z"/>
    <path fill="#04C6CD" d="M355.339 269.266c3.671-3.176 7.342-4.642 10.768-4.642 5.629 0 8.565 2.688 8.565 8.063s-1.468 6.597-4.16 10.262-5.873 5.376-9.544 5.376c-3.671 0-6.608-.978-8.566-2.933-1.957-1.954-2.936-4.153-2.936-7.085 0-2.932 1.958-6.109 5.628-9.041h.245Z"/>
    <style>
        .logo-bg { fill: #282839; }
        .logo-text { fill: #fff; }
        
        @media (prefers-color-scheme: dark) {
            .logo-bg { fill: #fff; }
            .logo-text { fill: #282839; }
        }
    </style>
</svg>